<svg xmlns="http://www.w3.org/2000/svg" viewBox="0 0 350 100"><defs><style>.a{fill:#f7f8f8;}.b{fill:#ee7730;}.c{fill:#fff;}</style></defs><title>box</title><path class="a" d="M128.74,79.62a.67.67,0,0,1-.67-.66V21.56a.65.65,0,0,1,.66-.66l20.85,0c6.89,0,17,3.63,17,14.35,0,7.71-3,10.51-6.35,13,6.35,2,11.19,4.67,11.19,15.35,0,8.85-6.84,16-17.86,16Zm13.35-25.53a.66.66,0,0,0-.66.67V68.27a.66.66,0,0,0,.66.67c13.52,0,16-1.33,16-7.34S155.61,54.09,142.09,54.09Zm-.66-21.86V42.74a.66.66,0,0,0,.66.67c10.68,0,12.52-2.17,12.52-6s-.83-5.84-12.35-5.84h-.17A.66.66,0,0,0,141.43,32.23Zm49.23,47.39h-12A.67.67,0,0,1,178,79V38.57a.67.67,0,0,1,.67-.67h12a.67.67,0,0,1,.67.67V79A.67.67,0,0,1,190.66,79.62Zm-6-45.72h-.17a6.87,6.87,0,0,1-7-7.18,6.91,6.91,0,0,1,7.18-7.18c4.41,0,7.09,3.12,7.18,7.18A6.91,6.91,0,0,1,184.65,33.9Zm27.87,6.18a16.88,16.88,0,0,1,9.51-3c14.49,0,20.53,9.71,20.53,21.69s-6,21.7-20.53,21.7a17,17,0,0,1-9.51-3h0L209,79.53a.69.69,0,0,1-.34.09h-8.83a.67.67,0,0,1-.67-.66V21.21a.67.67,0,0,1,.67-.67h12a.67.67,0,0,1,.67.67Zm0,16v5.68a5.86,5.86,0,0,0,.33,2.17A8.33,8.33,0,0,0,221,69.78c6.12,0,9.85-4,9.85-11,0-6.19-3.17-11-9.85-11a8.41,8.41,0,0,0-8.18,6A7.36,7.36,0,0,0,212.52,56.09Zm98.63-7.64,7.34-10.55h14.36L318.33,58.76l14.52,20.86H318.49l-7.34-10.55-7.34,10.55H289.46L304,58.76,289.46,37.9h14.35Z"/><circle class="b" cx="268.93" cy="58.76" r="21.7"/><path class="c" d="M279.13,55.93c.43-2.89-1.78-4.45-4.79-5.49l1-3.92-2.39-.6L272,49.74l-1.92-.45,1-3.84-2.38-.6-1,3.93-1.53-.36h0l-3.3-.83-.63,2.55s1.77.41,1.73.43A1.27,1.27,0,0,1,265.05,52l-1.11,4.47.25.08-.25-.06-1.57,6.26a.87.87,0,0,1-1.09.57s-1.74-.44-1.74-.44l-1.18,2.74,3.11.77,1.7.44-1,4,2.39.59,1-3.92c.66.18,1.29.34,1.91.49l-1,3.91,2.39.59,1-4c4.07.77,7.13.46,8.42-3.22,1-3,0-4.67-2.19-5.79A3.82,3.82,0,0,0,279.13,55.93Zm-5.46,7.65c-.74,3-5.73,1.37-7.35,1l1.31-5.25C269.25,59.69,274.44,60.49,273.67,63.58Zm.74-7.69c-.68,2.7-4.83,1.33-6.18,1l1.19-4.77C270.77,52.45,275.11,53.08,274.41,55.89Z"/><path class="a" d="M74.12,28.18,52.52,15.7a7.51,7.51,0,0,1-3.5,2v25A7.52,7.52,0,0,1,54.4,52L76,64.51a7.53,7.53,0,0,1,3.49-2v-25a7.57,7.57,0,0,1-5.38-9.33Zm9.15,9.33v25A7.54,7.54,0,1,1,76,75.08L54.4,87.57a7.47,7.47,0,0,1,.28,2,7.54,7.54,0,0,1-15.08,0,7.46,7.46,0,0,1,.27-2L18.27,75.08A7.54,7.54,0,1,1,11,62.49v-25a7.54,7.54,0,1,1,7.27-12.59l21.6-12.49a7.46,7.46,0,0,1-.27-2,7.54,7.54,0,1,1,14.8,2L76,24.92a7.54,7.54,0,1,1,7.26,12.59ZM74.12,71.82a7.73,7.73,0,0,1,0-4L52.52,55.29a7.56,7.56,0,0,1-10.76,0L20.16,67.77a7.73,7.73,0,0,1,0,4L41.76,84.3a7.56,7.56,0,0,1,10.76,0ZM39.87,52a7.56,7.56,0,0,1,5.38-9.32v-25a7.52,7.52,0,0,1-3.49-2L20.16,28.18a7.57,7.57,0,0,1-5.38,9.33v25a7.63,7.63,0,0,1,3.49,2Z"/></svg>