<svg xmlns="http://www.w3.org/2000/svg" viewBox="0 0 491.39 168.93"><defs><style>.a{fill:#122e8a;}.b{fill:#ee7730;}.c{fill:#fff;}</style></defs><title>二元的會員中心</title><path class="a" d="M178.51,127.68a.92.92,0,0,1-.92-.92V47.87a.92.92,0,0,1,.92-.91l28.65,0c9.47,0,23.42,5,23.42,19.73,0,10.6-4.13,14.45-8.72,17.89,8.72,2.76,15.37,6.42,15.37,21.11,0,12.16-9.4,22-24.54,22Zm18.35-35.1a.92.92,0,0,0-.92.92v18.58a.92.92,0,0,0,.92.92c18.58,0,22-1.84,22-10.09S215.44,92.58,196.86,92.58Zm-.92-30V77a.92.92,0,0,0,.92.92c14.68,0,17.2-3,17.2-8.26s-1.14-8-17-8h-.23A.92.92,0,0,0,195.94,62.53Zm67.67,65.15H247.1a.92.92,0,0,1-.92-.92V71.25a.92.92,0,0,1,.92-.92h16.51a.92.92,0,0,1,.92.92v55.51A.92.92,0,0,1,263.61,127.68Zm-8.25-62.85h-.23c-5.84,0-9.64-4.42-9.64-9.87a9.49,9.49,0,0,1,9.87-9.86c6.06,0,9.74,4.28,9.86,9.86A9.49,9.49,0,0,1,255.36,64.83Zm38.31,8.49a23.31,23.31,0,0,1,13.07-4.14C326.65,69.18,335,82.54,335,99s-8.31,29.82-28.22,29.82a23.23,23.23,0,0,1-13.07-4.14h0l-4.84,2.85a.84.84,0,0,1-.46.13H276.23a.92.92,0,0,1-.92-.92V47.39a.92.92,0,0,1,.92-.92h16.52a.92.92,0,0,1,.92.92Zm0,22v7.8a8,8,0,0,0,.45,3,11.44,11.44,0,0,0,11.24,8c8.42,0,13.54-5.53,13.54-15.14,0-8.51-4.36-15.14-13.54-15.14-5.16,0-10,3.42-11.24,8.25A10.12,10.12,0,0,0,293.67,95.34ZM429.24,84.83l10.09-14.5h19.73L439.1,99l20,28.67H439.33l-10.09-14.5-10.09,14.5H399.42l20-28.67-20-28.68h19.73Z"/><circle class="b" cx="371.2" cy="99.01" r="29.82"/><path class="c" d="M385.22,95.12c.59-4-2.44-6.12-6.58-7.55L380,82.18l-3.28-.82-1.31,5.25L372.76,86l1.32-5.28-3.28-.82-1.34,5.39c-.72-.16-1.42-.32-2.1-.49v0l-4.52-1.13L362,87.15s2.44.55,2.39.59a1.75,1.75,0,0,1,1.53,1.91l-1.53,6.14.34.11-.35-.09-2.15,8.61a1.19,1.19,0,0,1-1.5.78s-2.39-.6-2.39-.6l-1.63,3.76,4.28,1.07,2.34.6-1.36,5.45,3.28.82,1.34-5.39,2.62.67L367.83,117l3.28.81,1.36-5.44c5.59,1.06,9.8.63,11.57-4.43,1.43-4.08-.07-6.43-3-8A5.25,5.25,0,0,0,385.22,95.12Zm-7.5,10.52c-1,4.07-7.88,1.87-10.1,1.32l1.8-7.23C371.64,100.29,378.78,101.39,377.72,105.64Zm1-10.58c-.92,3.71-6.63,1.82-8.49,1.36l1.64-6.55C373.73,90.33,379.7,91.19,378.73,95.06Z"/><path class="a" d="M122.93,56.14,91.39,37.9a11,11,0,0,1-5.1,3V77.33A11,11,0,0,1,94.15,91l31.54,18.23a11,11,0,0,1,5.1-2.94V69.76a11,11,0,0,1-7.86-13.62ZM136.3,69.76v36.48a11,11,0,1,1-10.61,18.38L94.15,142.85a11,11,0,1,1-21.23,0L41.38,124.62a11,11,0,1,1-10.61-18.38V69.76A11,11,0,1,1,41.38,51.37L72.92,33.14a11,11,0,1,1,21.23,0l31.54,18.23A11,11,0,1,1,136.3,69.76Zm-13.37,50.09a11.08,11.08,0,0,1,0-5.9L91.39,95.71a11,11,0,0,1-15.71,0L44.14,114a11.08,11.08,0,0,1,0,5.9l31.54,18.24a11,11,0,0,1,15.71,0ZM72.92,91a11,11,0,0,1,7.86-13.62V40.85a11,11,0,0,1-5.1-3L44.14,56.14a11,11,0,0,1-7.86,13.62v36.48a11,11,0,0,1,5.1,2.94Z"/></svg>