<svg xmlns="http://www.w3.org/2000/svg" viewBox="0 0 570 105"><defs><style>.cls-1{fill:#4484bd;}.cls-2{fill:#e47b49;}.cls-3{fill:#fff;}</style></defs><title>二元的會員中心</title><g id="圖層_4" data-name="圖層 4"><rect class="cls-1" x="18.11" y="0.43" width="32.91" height="32.91"/><rect class="cls-1" x="18.11" y="36.04" width="32.91" height="32.91"/><rect class="cls-1" x="18.11" y="71.66" width="32.91" height="32.91"/><rect class="cls-1" x="54.66" y="0.43" width="32.91" height="32.91"/><rect class="cls-2" x="54.66" y="36.04" width="32.91" height="32.91" rx="16.46"/><rect class="cls-1" x="90.67" y="0.43" width="32.91" height="32.91"/><rect class="cls-3" x="379.15" y="0.79" width="11.49" height="77.73"/><polygon class="cls-3" points="446.2 27.46 427.78 67.04 422.38 78.65 410.48 104.21 398.99 104.21 416.29 67.04 397.47 27.46 408.96 27.46 421.98 54.82 434.71 27.46 446.2 27.46"/><polygon class="cls-3" points="369.56 12.28 369.56 0.79 339.47 0.79 334.71 0.79 327.98 0.79 327.98 78.52 339.47 78.52 339.47 43.72 369.56 43.72 369.56 32.23 339.47 32.23 339.47 12.28 369.56 12.28"/><path class="cls-3" d="M320,65.89v9.76s-5.14,3.72-14,2.87c-12.15,0-16-7.17-16.05-16V36.81h-9.27L290,27.65l0,0,11.11-11v9.83h16V36.81H301.45V59.46L301.8,63a7.31,7.31,0,0,0,1.84,4.32C305.75,69.56,310.91,71.2,320,65.89Z"/><path class="cls-3" d="M236.26,26.36c-5.87-.27-11.93.38-17.33,4.13V.79H207.44V78.52h27.23a13.74,13.74,0,0,0,8.46-2.9l0,0C249.5,72.05,254,62.76,254,51.85,254,37.88,244.16,26.73,236.26,26.36Zm7.09,27.71c-.41,8.49-6.12,15.18-11.69,15.18H218.93V40.14a22.2,22.2,0,0,1,2-1.26,20.92,20.92,0,0,1,2.85-1.37,16,16,0,0,1,9.32-1.08,8.72,8.72,0,0,1,1.25.16c4.72,1.11,8.41,7,8.92,14.46.05.58.07,1.18.07,1.79Q243.38,53.46,243.35,54.07Z"/><rect class="cls-3" x="264.19" y="27.62" width="11.49" height="50.9"/><path class="cls-3" d="M270.3,18.76a6.11,6.11,0,1,0-6.11-6.11A6.1,6.1,0,0,0,270.3,18.76Z"/><path class="cls-3" d="M473.94,26.38c-13.1,0-23.72,11.67-23.72,26.08s10.62,25.9,23.72,26.06c2.49,0,6.19,0,6.19,0a24.45,24.45,0,0,0,15.49-4.76l-.12-10.93a22.6,22.6,0,0,1-2.69,2.36c-4.07,2.62-10.37,3.88-13.63,3.9a22.52,22.52,0,0,1-10.43-1.75c-3.28-1.4-7-7.83-7-10.92a12.18,12.18,0,0,1,.27-2.57h35.58c0-.47,0-.93,0-1.4C497.66,38.05,487,26.38,473.94,26.38ZM461.79,47.86a12.55,12.55,0,0,1,25.08,0Z"/><path class="cls-3" d="M534,26.38c-7.15,0-12.8,6.85-15.23,10.37V27.46H507.24V78.52h11.49V45.81a35.34,35.34,0,0,1,5.79-7c7.43-7.15,15.29,2.94,15.29,2.94l5-8.41S540.35,26.38,534,26.38Z"/></g></svg>