<svg xmlns="http://www.w3.org/2000/svg" viewBox="0 0 570 105"><defs><style>.cls-1{fill:#29a589;}.cls-2{fill:#239680;}</style></defs><title>二元的會員中心</title><g id="圖層_4" data-name="圖層 4"><polygon class="cls-1" points="348.6 74.88 340.04 74.88 327.61 56.43 321.72 65.17 321.72 74.88 313.17 74.88 313.17 30.77 321.72 30.77 321.72 52.48 323.33 50.09 327.61 43.74 336.35 30.77 344.9 30.77 331.88 50.09 348.6 74.88"/><path class="cls-1" d="M391.32,30.77V60a2.26,2.26,0,0,1,0,.26C391.16,68.41,384,75,375.16,75s-16-6.57-16.15-14.73a2.26,2.26,0,0,1,0-.26V30.77h8.51V60a7.67,7.67,0,0,0,15.3,0V30.77Z"/><path class="cls-1" d="M485.06,45.49a14.88,14.88,0,0,0-8.51-12.94,17.31,17.31,0,0,0-15.29,0,14.87,14.87,0,0,0-8.51,12.94,2.44,2.44,0,0,0,0,.27V60a2.26,2.26,0,0,0,0,.26,14.88,14.88,0,0,0,8.51,12.94,17.26,17.26,0,0,0,15.29,0,14.89,14.89,0,0,0,8.51-13,2.26,2.26,0,0,0,0-.26V45.76A2.44,2.44,0,0,0,485.06,45.49ZM476.55,60a7.67,7.67,0,0,1-15.29,0V45.76a7.67,7.67,0,0,1,15.29,0Z"/><path class="cls-1" d="M422.55,67.08A7.38,7.38,0,0,1,414.9,60V45.76a7.67,7.67,0,0,1,15.28-.21h8.52v-.06a14.88,14.88,0,0,0-8.51-12.94,17.31,17.31,0,0,0-15.29,0,14.87,14.87,0,0,0-8.51,12.94,2.44,2.44,0,0,0,0,.27V60a2.26,2.26,0,0,0,0,.26,14.88,14.88,0,0,0,8.51,12.94,17.26,17.26,0,0,0,15.29,0,14.89,14.89,0,0,0,8.51-13V60h-8.51A7.38,7.38,0,0,1,422.55,67.08Z"/><rect class="cls-1" x="501.06" y="30.77" width="8.63" height="44.21"/><polygon class="cls-1" points="552.85 30.77 552.85 60.63 537.38 30.77 536.07 30.77 528.75 30.77 527.43 30.77 527.43 74.98 536.07 74.98 536.07 44.89 551.65 74.98 552.85 74.98 560.28 74.98 561.48 74.98 561.48 30.77 552.85 30.77"/><circle class="cls-2" cx="73.98" cy="52.41" r="8.62"/><path class="cls-1" d="M103.25,63.92c-5.87-4.17-10-.06-11.19,1.22-1.77,1.93-2.21,2.85-5.39,6.64-3.42,4.08-6.87,9.81-10.85,9.33S48.25,71.31,50.1,52.27c.81-8.34,4.14-11.81,8.63-17,5.07-5.83,10-11.7,14.82-12.3,5.19-.64,13.1,10.31,15.13,13.08a16.22,16.22,0,0,0,1.68,1.84c4.65,4.62,8.69,6.38,14.45,1.14,4.38-4,4.91-9.81.43-15.49-4.15-5.27-11.15-8.94-20.61-19.18-8.52-9.24-20.08-1.95-25.29,4.4,0,0-16.63,21.76-29.59,27.64-.3-9.55-.77-18.83-.77-18.83a8.82,8.82,0,0,0-8.81-8.81h0a8.81,8.81,0,0,0-8.81,8.81V86.94a8.8,8.8,0,0,0,8.81,8.81h0A8.81,8.81,0,0,0,29,86.94s.53-9.36.83-21.7C36.35,71.8,59.29,94.89,63.6,99.87c4.88,5.63,9.51,5.4,12.6,4.88,1.65-.28,3.93-.9,8.2-5.16s12.55-13,15-15.11c2-1.71,6.82-6.64,7.39-8.34S110.16,68.82,103.25,63.92Z"/><path class="cls-1" d="M247.81,31.25c17.3.27,22-2.49,22-2.49V21.22c-8,2.65-12.16,2.26-22,2.39H209.58v7.64h24.53V40H211.65V77.07h10.52V47.34h11.94V84.53h10.83V47.34h12.42V66.61s0,3.61-2.86,3.61h-4.78v6.85h8.81c2.12,0,10,.9,9.08-10.89h-.05V40H244.94V31.25Z"/><path class="cls-1" d="M186.49,25.2h-22.3V20.47H151.88V25.2H127.24V59.92c0,6.69.48,10.11-4.09,17.41v7.2s14.21-3.35,14.21-24.61V32.21h49.13Z"/><path class="cls-1" d="M169.13,68.2V61.91h14.49V55.62H169.13V47.5H158.46v8.12h-8.79a45.25,45.25,0,0,0,8.54-10.83H185.3V38.34H161.47c1.08-2.5,1.61-4.14,1.61-4.14H151.4a14,14,0,0,1-.8,4.14H139.51v6.45h8.22a99.15,99.15,0,0,1-6.87,10.83v6.29h17.6V68.2H137.83v6.69h20.63v9.64h10.67V74.89h18.08V68.2Z"/></g></svg>