<svg xmlns="http://www.w3.org/2000/svg" viewBox="0 0 595 578"><defs><style>.cls-1{fill:#29a589;}.cls-2{fill:#239680;}</style></defs><title>二元的會員中心</title><g id="圖層_4" data-name="圖層 4"><polygon class="cls-1" points="181.44 485.13 169.83 485.13 152.94 460.06 144.95 471.93 144.95 485.13 133.34 485.13 133.34 425.22 144.95 425.22 144.95 454.7 147.14 451.46 152.94 442.85 164.82 425.22 176.43 425.22 158.75 451.46 181.44 485.13"/><path class="cls-1" d="M239.45,425.22V464.9c0,.12,0,.25,0,.36-.2,11.07-9.94,20-21.92,20s-21.74-8.92-21.94-20c0-.11,0-.24,0-.36V425.22h11.56V464.9c0,5.33,4.65,9.63,10.39,9.63s10.37-4.3,10.37-9.63V425.22Z"/><path class="cls-1" d="M366.73,445.21a20.22,20.22,0,0,0-11.56-17.56,23.43,23.43,0,0,0-20.76,0,20.23,20.23,0,0,0-11.55,17.57c0,.12,0,.25,0,.37V464.9c0,.12,0,.25,0,.36a20.2,20.2,0,0,0,11.55,17.56,23.43,23.43,0,0,0,20.76,0,20.19,20.19,0,0,0,11.56-17.57c0-.11,0-.24,0-.36V445.58C366.74,445.46,366.74,445.33,366.73,445.21ZM355.17,464.9c0,5.33-4.65,9.63-10.37,9.63s-10.39-4.3-10.39-9.63V445.58c0-5.33,4.65-9.64,10.38-9.64s10.38,4.31,10.38,9.64Z"/><path class="cls-1" d="M281.85,474.53c-5.74,0-10.39-4.3-10.39-9.63V445.58c0-5.33,4.65-9.64,10.38-9.64s10.21,4.16,10.37,9.36h11.57v-.09a20.22,20.22,0,0,0-11.55-17.56,23.45,23.45,0,0,0-20.77,0,20.23,20.23,0,0,0-11.55,17.57c0,.12,0,.25,0,.37V464.9c0,.12,0,.25,0,.36a20.2,20.2,0,0,0,11.55,17.56,23.45,23.45,0,0,0,20.77,0,20.2,20.2,0,0,0,11.55-17.57c0-.11,0-.24,0-.36H292.23C292.23,470.23,287.58,474.53,281.85,474.53Z"/><rect class="cls-1" x="388.45" y="425.22" width="11.72" height="60.03"/><polygon class="cls-1" points="458.77 425.22 458.77 465.77 437.77 425.22 435.98 425.22 426.05 425.22 424.26 425.22 424.26 485.25 435.98 485.25 435.98 444.39 457.14 485.25 458.77 485.25 468.86 485.25 470.49 485.25 470.49 425.22 458.77 425.22"/><circle class="cls-2" cx="331.53" cy="126.3" r="20.78"/><path class="cls-1" d="M402.08,154c-14.16-10-24.14-.14-27,3-4.27,4.65-5.33,6.87-13,16-8.24,9.84-16.56,23.63-26.15,22.49-9.75-1.16-66.44-23.62-62-69.52,1.94-20.08,10-28.45,20.8-40.91,12.2-14,24.09-28.21,35.7-29.64C343,53.87,362.08,80.25,367,86.93A36.88,36.88,0,0,0,371,91.36c11.21,11.14,20.95,15.39,34.84,2.75,10.54-9.59,11.81-23.63,1-37.33-10-12.7-26.88-21.55-49.66-46.23-20.55-22.27-48.4-4.69-61,10.61,0,0-40.08,52.45-71.3,66.6-.75-23-1.88-45.36-1.88-45.36a21.24,21.24,0,0,0-21.23-21.24h0A21.24,21.24,0,0,0,180.61,42.4V209.53a21.24,21.24,0,0,0,21.24,21.23h0a21.24,21.24,0,0,0,21.23-21.23s1.29-22.56,2-52.31c15.74,15.81,71,71.48,81.43,83.47,11.76,13.57,22.92,13,30.37,11.76,4-.67,9.47-2.17,19.75-12.45,10.11-10.11,30.26-31.27,36.18-36.41,4.75-4.12,16.44-16,17.81-20.09S418.74,165.86,402.08,154Z"/><path class="cls-1" d="M361.43,355.37c21.56.33,27.45-3.11,27.45-3.11v-9.39c-10,3.3-15.15,2.82-27.45,3H313.8v9.53h30.56v10.91h-28v46.18h13.1v-37h14.88v46.33h13.49V375.41h15.48v24s0,4.49-3.57,4.49h-5.95v8.55h11c2.64,0,12.43,1.11,11.31-13.57H386V366.28H357.85V355.37Z"/><path class="cls-1" d="M285,347.83H257.25v-5.89H241.91v5.89H211.22v43.25c0,8.34.59,12.6-5.1,21.7v9s17.7-4.17,17.7-30.66V356.56H285Z"/><path class="cls-1" d="M263.4,401.4v-7.84h18.06v-7.83H263.4V375.61H250.11v10.12h-11a55.82,55.82,0,0,0,10.65-13.5h33.74v-8H253.86c1.35-3.11,2-5.16,2-5.16H241.31a17.4,17.4,0,0,1-1,5.16H226.5v8h10.24a124,124,0,0,1-8.56,13.5v7.83h21.93v7.84h-25.7v8.34h25.7v12H263.4v-12h22.53V401.4Z"/></g></svg>