<?phpxml version="1.0" encoding="utf-8"?>
<!-- Generator: Adobe Illustrator 23.1.1, SVG Export Plug-In . SVG Version: 6.00 Build 0)  -->
<svg version="1.1" id="圖層_1" xmlns="http://www.w3.org/2000/svg" xmlns:xlink="http://www.w3.org/1999/xlink" x="0px" y="0px"
	 viewBox="0 0 570 105" style="enable-background:new 0 0 570 105;" xml:space="preserve">
<style type="text/css">
	.st0{fill:url(#Path_339_1_);}
	.st1{fill:url(#Path_340_1_);}
	.st2{opacity:0.33;fill:url(#Path_341_1_);enable-background:new    ;}
	.st3{fill:#B7160F;}
	.st4{fill:#DF1C14;}
	.st5{fill:url(#Path_344_1_);}
	.st6{fill:url(#Path_347_1_);}
	.st7{fill:url(#Path_350_1_);}
	.st8{fill:url(#Path_352_1_);}
	.st9{fill:url(#Path_355_1_);}
	.st10{opacity:0.48;fill:url(#Path_358_1_);enable-background:new    ;}
	.st11{fill:#F3BA2F;}
</style>
<g id="Group_202" transform="translate(-35.317)">
	<g id="Group_147" transform="translate(35.317)">
		
			<linearGradient id="Path_339_1_" gradientUnits="userSpaceOnUse" x1="-36.3736" y1="20.1651" x2="-36.9086" y2="20.8891" gradientTransform="matrix(13.776 0 0 32.853 601.3673 -594.7991)">
			<stop  offset="0.238" style="stop-color:#DF1C14"/>
			<stop  offset="0.564" style="stop-color:#DD1B13"/>
			<stop  offset="0.682" style="stop-color:#D61A12"/>
			<stop  offset="0.765" style="stop-color:#CA1811"/>
			<stop  offset="0.833" style="stop-color:#B9160F"/>
			<stop  offset="0.842" style="stop-color:#B7160F"/>
		</linearGradient>
		<path id="Path_339" class="st0" d="M97.2,57.3v13.2c0,6.6-2.4,12.9-6.8,17.8c2.3,1.1,4.9,1.7,7.4,1.8c4.1-5.7,6.4-12.6,6.3-19.6
			V57.3H97.2z"/>
		
			<linearGradient id="Path_340_1_" gradientUnits="userSpaceOnUse" x1="-36.0158" y1="21.2603" x2="-36.6188" y2="22.0153" gradientTransform="matrix(12.558 0 0 31.038 546.9233 -596.6011)">
			<stop  offset="0" style="stop-color:#B7160F"/>
			<stop  offset="1" style="stop-color:#DF1C14"/>
		</linearGradient>
		<path id="Path_340" class="st1" d="M97.2,57.3h-6.9v13.2c0,5.1-2,10.1-5.6,13.7c1.7,1.7,3.6,3.1,5.7,4.1
			c4.4-4.9,6.8-11.2,6.8-17.8V57.3z"/>
		
			<linearGradient id="Path_341_1_" gradientUnits="userSpaceOnUse" x1="-80.657" y1="101.7779" x2="-80.467" y2="101.5608" gradientTransform="matrix(18.275 0 0 13.03 772.5092 -592.9367)">
			<stop  offset="0" style="stop-color:#006AB5;stop-opacity:0"/>
			<stop  offset="0.931" style="stop-color:#070303;stop-opacity:0.6"/>
		</linearGradient>
		<path id="Path_341" class="st2" d="M97.1,92.1l-15.5-5l3.1-2.7l2.6-3.3l2.6-2l10,8l-2,3.2L97,91l0.1,0.6L97.1,92.1z"/>
		<path id="Path_342" class="st3" d="M65.1,50.4v6.9H24.6c-3.8,0-6.9-3.1-6.9-6.9c0-1.2,0.3-2.4,0.9-3.5c1.2,2.1,3.5,3.5,6,3.5H65.1
			z"/>
		<path id="Path_343" class="st4" d="M65.1,43.5v6.9H24.6c-2.5,0-4.8-1.3-6-3.5c1.2-2.1,3.5-3.5,6-3.5L65.1,43.5z"/>
		
			<linearGradient id="Path_344_1_" gradientUnits="userSpaceOnUse" x1="-31.5529" y1="17.1427" x2="-31.5359" y2="16.5457" gradientTransform="matrix(5.683 0 0 13.882 248.377 -627.6552)">
			<stop  offset="0" style="stop-color:#006AB5;stop-opacity:0"/>
			<stop  offset="0.636" style="stop-color:#070303;stop-opacity:0.502"/>
		</linearGradient>
		<path id="Path_344" class="st5" d="M66.7,43.5v13.9H61l0.6-13.9H66.7z"/>
		<path id="Path_345" class="st3" d="M84.6,101c-4.4,2-9.2,3.1-14,3.1H6.9c-3.8,0-6.9-3.1-6.9-6.9c0-1.2,0.3-2.4,0.9-3.5
			c1.2,2.2,3.5,3.5,6,3.5h63.7c2.2,0,4.4-0.3,6.6-0.8C79.4,98.2,81.9,99.8,84.6,101z"/>
		<path id="Path_346" class="st4" d="M77.2,96.3c-2.2,0.6-4.4,0.8-6.6,0.8H6.9c-2.5,0-4.8-1.3-6-3.5c1.2-2.1,3.5-3.5,6-3.5h63.7
			c0.3,0,0.6,0,0.9,0C73.1,92.5,75,94.5,77.2,96.3z"/>
		
			<linearGradient id="Path_347_1_" gradientUnits="userSpaceOnUse" x1="-37.3288" y1="45.7676" x2="-37.1297" y2="45.5766" gradientTransform="matrix(17.437 0 0 14.803 725.4757 -579.9901)">
			<stop  offset="0" style="stop-color:#006AB5;stop-opacity:0"/>
			<stop  offset="0.931" style="stop-color:#070303;stop-opacity:0.6"/>
		</linearGradient>
		<path id="Path_347" class="st6" d="M72.9,90.2l12.5,10.5l-3.9,1.6l-3.4,1.3l-3.4,1.4L68,91.3l0.8-1.1H70h1.1
			C71.1,90.2,72.9,90.2,72.9,90.2z"/>
		<path id="Path_348" class="st3" d="M169.2,6.9c0,3.8-3.1,6.9-6.9,6.9l0,0H98.6c-0.3,0-0.6,0-0.9,0c-1.6-2.3-3.6-4.3-5.7-6.1
			c2.2-0.6,4.4-0.8,6.6-0.8h63.7c2.5,0,4.8-1.3,6-3.5C168.9,4.5,169.2,5.7,169.2,6.9z"/>
		<path id="Path_349" class="st3" d="M151.5,50.4c0,3.8-3.1,6.9-6.9,6.9l0,0H79v-6.9h11.2h54.4c2.5,0,4.8-1.3,6-3.5
			C151.2,48,151.5,49.2,151.5,50.4z"/>
		
			<linearGradient id="Path_350_1_" gradientUnits="userSpaceOnUse" x1="-38.6713" y1="87.27" x2="-39.5823" y2="88.26" gradientTransform="matrix(83.67 0 0 7.77 3391.408 -677.2144)">
			<stop  offset="0" style="stop-color:#DF1C14"/>
			<stop  offset="0.455" style="stop-color:#DD1B13"/>
			<stop  offset="0.619" style="stop-color:#D61A12"/>
			<stop  offset="0.735" style="stop-color:#CA1811"/>
			<stop  offset="0.829" style="stop-color:#B9160F"/>
			<stop  offset="0.842" style="stop-color:#B7160F"/>
		</linearGradient>
		<path id="Path_350" class="st7" d="M168.3,3.5c-1.2,2.1-3.5,3.5-6,3.5H98.6c-2.2,0-4.4,0.3-6.6,0.8c-2.3-1.9-4.7-3.5-7.4-4.7
			C89,1,93.8,0,98.6,0h63.7C164.7,0,167,1.3,168.3,3.5z"/>
		<path id="Path_351" class="st4" d="M150.6,46.9c-1.2,2.1-3.5,3.5-6,3.5H90.2H79v-6.9h2.3l0,0h63.3
			C147.1,43.5,149.4,44.8,150.6,46.9z"/>
		
			<linearGradient id="Path_352_1_" gradientUnits="userSpaceOnUse" x1="-36.5991" y1="120.132" x2="-36.5911" y2="118.6741" gradientTransform="matrix(13.775 0 0 5.694 601.3269 -621.9557)">
			<stop  offset="0" style="stop-color:#006AB5;stop-opacity:0"/>
			<stop  offset="0.636" style="stop-color:#070303;stop-opacity:0.502"/>
		</linearGradient>
		<path id="Path_352" class="st8" d="M90.3,57.3h13.8V63l-13.8-0.6V57.3z"/>
		<path id="Path_353" class="st3" d="M169.2,97.2c0,3.8-3.1,6.9-6.9,6.9l0,0H98.6c-7.8,0-15.4-2.7-21.4-7.8
			c-2.2-1.8-4.1-3.9-5.7-6.1c-4.1-5.7-6.4-12.6-6.3-19.6V33.5c0-7,2.2-13.9,6.3-19.6c2.6,0.1,5.1,0.7,7.4,1.8
			c-4.4,4.9-6.8,11.2-6.8,17.8v37.1c0,9.2,4.7,17.7,12.6,22.6c2.3,1.4,4.8,2.5,7.4,3.2c2.2,0.6,4.4,0.8,6.6,0.8h63.7
			c2.5,0,4.8-1.3,6-3.5C168.9,94.7,169.2,95.9,169.2,97.2z"/>
		<path id="Path_354" class="st4" d="M168.3,93.7c-1.2,2.1-3.5,3.5-6,3.5H98.6c-2.2,0-4.4-0.3-6.6-0.8c-2.6-0.7-5.1-1.7-7.4-3.2
			C76.8,88.3,72,79.8,72.1,70.6V33.5c0-6.6,2.4-12.9,6.8-17.8c2.1,1,4.1,2.4,5.7,4.1C81,23.4,79,28.4,79,33.5v37.1
			c0,5.1,2,10.1,5.6,13.7c1.7,1.7,3.6,3.1,5.7,4.1c2.3,1.1,4.9,1.7,7.4,1.8c0.3,0,0.6,0,0.9,0h63.7C164.7,90.2,167,91.5,168.3,93.7z
			"/>
		
			<linearGradient id="Path_355_1_" gradientUnits="userSpaceOnUse" x1="-37.0277" y1="37.8626" x2="-36.4297" y2="37.2986" gradientTransform="matrix(15.426 0 0 17.906 646.2179 -656.0006)">
			<stop  offset="0" style="stop-color:#006AB5;stop-opacity:0"/>
			<stop  offset="0.666" style="stop-color:#070303;stop-opacity:0.6"/>
		</linearGradient>
		<path id="Path_355" class="st9" d="M75.7,11.1l8.9,8.7l-2.5,3.1L79.5,29L69.2,17.7l1.3-1.5l1-2.3l2.8-1.6L75.7,11.1z"/>
		<path id="Path_356" class="st3" d="M97.2,33.5v10h-6.9v-10c0-10.5-8.3-19.1-18.8-19.6c-0.3,0-0.6,0-0.9,0H6.9
			c-3.8,0-6.9-3.1-6.9-7c0-1.2,0.3-2.4,0.9-3.5c1.2,2.1,3.5,3.5,6,3.5h63.7c2.2,0,4.4,0.3,6.6,0.8c2.6,0.7,5.1,1.7,7.4,3.2
			C92.4,15.8,97.2,24.3,97.2,33.5L97.2,33.5z"/>
		<path id="Path_357" class="st4" d="M104.1,33.5v10h-6.9v-10C97.2,18.8,85.3,7,70.6,6.9l0,0H6.9c-2.5,0-4.8-1.3-6-3.5
			C2.2,1.3,4.5,0,6.9,0h63.7C89.1,0,104.1,15,104.1,33.5L104.1,33.5z"/>
		
			<linearGradient id="Path_358_1_" gradientUnits="userSpaceOnUse" x1="-36.6382" y1="133.9188" x2="-36.6382" y2="135.3778" gradientTransform="matrix(13.945 0 0 5.083 608.0201 -641.3325)">
			<stop  offset="0" style="stop-color:#006AB5;stop-opacity:0"/>
			<stop  offset="0.636" style="stop-color:#070303;stop-opacity:0.502"/>
		</linearGradient>
		<path id="Path_358" class="st10" d="M90.2,38.6h13.9l-0.1,4.9l-13.9,0.2L90.2,38.6z"/>
	</g>
	<g id="Group_149" transform="translate(250.361 3.739)">
		<path id="Path_371" class="st11" d="M0,72.9c-0.1-0.9,0.5-1.7,1.4-1.7c0.1,0,0.2,0,0.2,0h7.8c0.9-0.1,1.7,0.5,1.8,1.4
			c0,0.1,0,0.2,0,0.3c0.3,9.1,3.9,13,9.2,13c5.8,0,9.2-4.6,9.2-12V58.8c0-7.8-4.1-12.4-10.5-12.4h-5.4c-1.1,0.1-2-0.7-2.1-1.8
			c0-0.1,0-0.2,0-0.4v-2.7c0-1.4,0.3-2.7,0.9-3.9L26.2,12h-23c-0.9,0.1-1.7-0.6-1.8-1.5c0-0.1,0-0.3,0-0.4V3C1.3,2.1,2,1.3,2.9,1.2
			c0.1,0,0.2,0,0.3,0h34.3c1.4-0.1,2.7,0.9,2.8,2.3c0,0.2,0,0.3,0,0.5v1.1c0,1.1-0.3,2.2-0.8,3.2L25.3,36.6l0.3,0.4
			C36,39,41.1,48.4,41.1,59.5v14c0,14.1-8.3,23.7-20.5,23.7C8.6,97.1,0.3,88,0,72.9z"/>
		<path id="Path_372" class="st11" d="M64.7,72.9V24.2C64.7,9.7,73.5,0,86.6,0c12.6,0,21.2,10.1,21.6,25.8c0.1,0.8-0.5,1.6-1.3,1.7
			c-0.1,0-0.3,0-0.4,0h-8.2c-0.8,0.1-1.6-0.5-1.7-1.4c0-0.1,0-0.3,0-0.4c-0.3-9.4-4.2-14.4-10.1-14.4c-6.4,0-10.1,4.6-10.1,12.1v50
			c0,7.5,3.7,12.1,10.1,12.1C93,85.5,97,80,97.3,70.2c-0.1-0.8,0.4-1.6,1.3-1.7c0.1,0,0.3,0,0.4,0h8.2c1,0,1.7,0.7,1.7,1.9
			C108.4,86.7,99.8,97,86.7,97S64.7,87.4,64.7,72.9z"/>
		<path id="Path_373" class="st11" d="M131.8,93.8V3.2c-0.1-0.9,0.6-1.7,1.5-1.8c0.1,0,0.2,0,0.3,0h8.1c0.9,0,1.6,0.6,1.7,1.5
			c0,0.1,0,0.2,0,0.2v39.4h10.3L164.1,3c0.2-0.9,1-1.5,1.9-1.5h8.1c1.3,0,1.8,0.8,1.5,2l-11.8,42.2c7.3,3.5,11.3,11.4,11.3,21.7
			v26.4c0.1,0.9-0.5,1.7-1.4,1.9c-0.1,0-0.3,0-0.4,0h-8.1c-0.9,0.1-1.7-0.6-1.8-1.5c0-0.1,0-0.3,0-0.4V67.1c0-8.1-4-13.2-10.8-13.2
			h-9.4v39.8c0,1.2-0.6,1.9-1.7,1.9h-8.1c-0.9,0.1-1.7-0.6-1.8-1.5C131.8,94,131.8,93.9,131.8,93.8z"/>
		<path id="Path_374" class="st11" d="M203.2,1.5h8.1c0.9,0,1.6,0.6,1.7,1.5c0,0.1,0,0.2,0,0.2v90.5c0,1.2-0.6,1.9-1.7,1.9h-8.1
			c-0.9,0.1-1.7-0.6-1.8-1.5c0-0.1,0-0.3,0-0.4V3.2c-0.1-0.9,0.6-1.7,1.5-1.8C202.9,1.5,203.1,1.5,203.2,1.5z"/>
		<path id="Path_375" class="st11" d="M240.5,93.8v-69c0-14.5,8.6-24.8,21.9-24.8s22.1,10.2,22.1,24.8v69c0.1,0.9-0.5,1.7-1.4,1.9
			c-0.1,0-0.3,0-0.4,0h-8.1c-1,0-1.8-0.7-1.8-1.6c0-0.1,0-0.2,0-0.2V24.2c0-7.7-4-12.8-10.4-12.8S252,16.5,252,24.2v69.5
			c0,1.2-0.6,1.9-1.7,1.9h-8.2C241.1,95.6,240.5,95,240.5,93.8z"/>
		<path id="Path_376" class="st11" d="M309.8,72.2V24.8C309.8,10.1,318.7,0,332,0c12.8,0,21.7,10.1,22.1,24.5c0,1.2-0.6,1.9-1.7,1.9
			h-8.2c-1,0-1.7-0.7-1.8-1.9c-0.4-8.2-4.2-13-10.4-13c-6.5,0-10.5,5-10.5,12.9v48.4c0,7.9,4.5,12.9,11,12.9c6.4,0,10.9-5,10.9-12
			V55.4h-8.9c-0.9,0.1-1.7-0.5-1.8-1.4c0-0.1,0-0.2,0-0.3v-7.1c-0.1-0.9,0.5-1.7,1.4-1.9c0.1,0,0.3,0,0.4,0h15.1
			c3.3,0,5.3,2,5.3,5.5V73c0,13.9-9.2,24.1-22.6,24.1S309.8,86.9,309.8,72.2z"/>
	</g>
</g>
</svg>
