<svg xmlns="http://www.w3.org/2000/svg" width="45.247" height="40.723" viewBox="0 0 45.247 40.723">
  <path id="iconfinder_coins-1_3338958" d="M45.239,16.574c-.075-1.29-1.609-2.3-4.679-3.068a1.7,1.7,0,0,0,.162-.706V7.525H40.71C40.44,3.13,22.43,3,20.361,3S.283,3.13.013,7.525H0v.1H0V12.8c0,1.433,1.853,2.554,4.6,3.389a1.654,1.654,0,0,0-.068.382H4.525v.1h0v5.171C1.561,22.606.081,23.6.008,24.87H0v.1H0v5.18c0,1,.9,1.844,2.374,2.549a1.661,1.661,0,0,0-.1.469H2.262v.1h0v5.18c.006,2.508,5.654,4.065,11.929,4.792a.692.692,0,0,0,.137.028c.014,0,.026-.008.041-.008,1.21.136,2.439.243,3.655.319a.622.622,0,0,0,.075.015c.014,0,.026-.008.039-.008,1.544.094,3.064.141,4.486.141s2.941-.048,4.486-.142c.014,0,.026.008.039.008s.049-.013.075-.015c1.216-.076,2.446-.182,3.655-.319.014,0,.026.008.041.008a.692.692,0,0,0,.137-.028c6.275-.727,11.922-2.285,11.929-4.794V33.165h-.012c-.053-.925-.841-1.7-2.4-2.341a1.686,1.686,0,0,0,.147-.679V25.216c2.707-.833,4.521-1.946,4.525-3.366V16.574ZM39.133,30.391l-.257.225a6.747,6.747,0,0,1-1.924,1.041v-3.6a11.223,11.223,0,0,0,2.262-1.038v3.121A.48.48,0,0,1,39.133,30.391Zm-16.867,3.5-.332.007c-.269.005-.545.007-.818.009V30.144l.622-.009.12,0q1.139-.021,2.274-.072v3.765l-.487.023C23.192,33.869,22.733,33.884,22.266,33.895Zm-3.293.011q-.518-.009-1.031-.025l-.127,0q-.616-.02-1.224-.051V30.061q1.133.053,2.274.072l.119,0,.622.009v3.769c-.146,0-.293,0-.438,0ZM5.352,32.186l-.073-.021V28.522c.7.19,1.461.363,2.262.521v3.681Q6.5,32.5,5.629,32.264C5.537,32.237,5.442,32.213,5.352,32.186Zm15.9,6.245.622.009v3.77q-1.563-.015-3.016-.087V38.357q1.133.053,2.274.072Zm2.872,0q1.139-.021,2.274-.072v3.765q-1.452.071-3.016.087v-3.77L24,38.43Zm6.045-.341v3.745q-1.087.114-2.262.2V38.27C28.667,38.221,29.423,38.16,30.165,38.088Zm1.508-.163q1.166-.14,2.262-.318v3.7q-1.066.188-2.262.345Zm3.771-.587c.8-.158,1.558-.331,2.262-.521V40.46c-.672.194-1.428.382-2.262.559Zm-25.64,0v3.681c-.834-.177-1.59-.365-2.262-.559V36.816C8.246,37.006,9,37.181,9.8,37.338Zm1.508.27q1.095.178,2.262.318v3.73q-1.2-.157-2.262-.345Zm3.771.48c.742.072,1.5.133,2.262.183v3.761q-1.175-.083-2.262-.2Zm-1.871-4.51-.229-.023-.162-.017V29.793c.742.072,1.5.133,2.262.183v3.758C14.449,33.689,13.823,33.638,13.212,33.578Zm-1.9-3.949v3.73q-1.2-.157-2.262-.345v-3.7Q10.144,29.489,11.312,29.63ZM26.142,33.7l-.5.038V29.976c.765-.051,1.52-.111,2.262-.183v3.745c-.466.049-.943.1-1.432.135C26.361,33.682,26.252,33.691,26.142,33.7Zm3.268-.339V29.63q1.166-.14,2.262-.318v3.7Q30.608,33.2,29.411,33.36Zm3.771-4.317c.8-.158,1.558-.331,2.262-.521v3.643c-.672.194-1.428.382-2.262.559ZM22.869,25.6c-.567-.014-1.121-.036-1.666-.063l-.087,0V21.766q1.133.053,2.274.072l.119,0,.622.009v3.765c-.367,0-.738-.005-1.1-.014ZM5.279,14.82V11.177c.7.19,1.461.363,2.262.521v3.681l-.279-.059c-.4-.088-.793-.18-1.167-.278C5.811,14.969,5.54,14.895,5.279,14.82Zm13.706-2.029.622.009v3.765c-1.015-.01-2.024-.036-3.016-.086V12.717q1.133.053,2.274.072Zm2.872,0q1.139-.021,2.274-.072v3.762c-.128.006-.251.015-.38.021l-.032,0c-.506.023-1.022.039-1.544.051l-.244.005c-.268.005-.543.006-.815.009V12.8l.622-.009Zm17.184.379-.021,0-.275.213a7.335,7.335,0,0,1-1.794.927V10.715a11.223,11.223,0,0,0,2.262-1.038V12.8A.592.592,0,0,1,39.042,13.167ZM29.411,16.01V12.285q1.166-.14,2.262-.318v3.7C30.958,15.79,30.206,15.906,29.411,16.01Zm3.771-.637V11.7c.8-.158,1.558-.331,2.262-.521v3.635C34.768,15.009,34.007,15.2,33.181,15.373ZM27.9,12.448v3.74q-1.093.115-2.262.2V12.631C26.4,12.58,27.161,12.519,27.9,12.448ZM12.82,16.19V12.448c.742.072,1.5.133,2.262.183v3.754C14.315,16.33,13.558,16.267,12.82,16.19Zm-1.508-3.9v3.726c-.149-.02-.3-.035-.452-.056l-.284-.041q-.654-.094-1.28-.2l-.247-.044v-3.7Q10.144,12.144,11.312,12.285ZM19.42,25.427l-.305-.023q-.724-.057-1.414-.125l-.3-.03-.06-.007V21.5c.742.072,1.5.133,2.262.183v3.759Zm-4.982-.563c-.3-.048-.579-.1-.863-.149v-3.7q1.095.178,2.262.318v3.73c-.462-.061-.913-.124-1.347-.192Zm-2.372-4.117v3.675q-1.25-.268-2.262-.566v-3.63C10.508,20.416,11.265,20.59,12.066,20.747ZM8.3,19.765v3.583a4.7,4.7,0,0,1-2.2-1.342l-.051-.084a.476.476,0,0,1-.013-.072V18.727A11.222,11.222,0,0,0,8.3,19.765Zm18.087,2.073q1.139-.021,2.274-.072v3.762c-.991.049-2,.076-3.016.087V21.849l.622-.009Zm9.746,2.894c-.331.057-.665.114-1.008.166-.2.03-.4.059-.6.087s-.389.051-.583.075V21.334q1.166-.14,2.262-.318v3.7Zm-5.106.644c-.281.023-.572.038-.857.059V21.68c.765-.051,1.52-.111,2.262-.183v3.741c-.438.046-.876.092-1.326.13Zm8.618-1.414c-.376.1-.773.2-1.179.3-.188.044-.379.087-.575.13l-.179.037V20.748c.8-.158,1.558-.331,2.262-.521V23.87Zm4.091-7.338c-.069.512-1.23,1.193-3.3,1.833h0A50.618,50.618,0,0,1,28.3,20.269c-.271.011-.541.023-.817.032l-.682.02c-.624.014-1.258.023-1.911.023s-1.287-.01-1.911-.024c-.229-.005-.455-.013-.682-.02-.277-.008-.547-.02-.817-.032A50.612,50.612,0,0,1,9.343,18.456h0c-2.055-.635-3.213-1.311-3.3-1.82a.177.177,0,0,1,.013-.044c.051.013.109.023.161.036.295.07.6.138.9.2,1.5.323,3.159.587,4.928.79.006,0,.011,0,.016,0h0c1.205.137,2.455.245,3.739.321.01,0,.018.005.028.005s.009,0,.014,0q1.386.081,2.807.115c.58.014,1.149.022,1.7.022.4,0,.8,0,1.211-.012a57.748,57.748,0,0,0,14.092-1.746c.163-.046.322-.094.479-.141.1-.029.194-.058.287-.087.273-.087.535-.177.787-.271l.129-.05c.213-.081.419-.164.615-.25l.17-.074c.209-.094.411-.191.6-.291.084-.044.158-.09.237-.136s.181-.1.265-.158c.048-.03.1-.059.149-.089C42.755,15.51,43.645,16.311,43.731,16.623ZM20.361,4.508C32.8,4.508,39.086,6.466,39.2,7.59c-.091.51-1.249,1.183-3.3,1.817h0a50.619,50.619,0,0,1-12.134,1.813c-.271.011-.541.023-.817.032l-.682.02c-.624.014-1.258.024-1.911.024s-1.287-.01-1.911-.024c-.229-.005-.455-.013-.682-.02-.277-.008-.547-.02-.817-.032A50.612,50.612,0,0,1,4.818,9.406h0C2.768,8.773,1.611,8.1,1.52,7.59,1.637,6.466,7.927,4.508,20.361,4.508ZM1.508,12.8V9.678a11.223,11.223,0,0,0,2.262,1.038v3.611C2.3,13.776,1.51,13.225,1.508,12.8ZM5.161,23.237c.011.012.029.023.04.035,1.032,1.042,3.17,1.861,5.832,2.472l.188.042q.293.066.594.128A58.161,58.161,0,0,0,20.355,27h.008q1.532.089,3.132.119c.472.01.937.016,1.391.016.52,0,1.054-.006,1.6-.019.986-.02,1.958-.061,2.917-.117l.011,0c.007,0,.012,0,.019,0a58.326,58.326,0,0,0,8.706-1.115,13.662,13.662,0,0,1-2.231.872h0A52.039,52.039,0,0,1,22.873,28.6l-.509.016-.56.011c-.474.008-.952.014-1.442.014-.653,0-1.287-.01-1.911-.024-.229-.005-.455-.013-.682-.02-.277-.008-.547-.02-.817-.032A50.612,50.612,0,0,1,4.818,26.751h0c-2.074-.641-3.234-1.323-3.3-1.835C1.6,24.633,2.363,23.923,5.161,23.237ZM1.508,30.145V27.023A11.222,11.222,0,0,0,3.771,28.06v3.6l-.431-.167-.009.009C2.147,31.007,1.51,30.526,1.508,30.145Zm2.262,8.3V35.318a11.223,11.223,0,0,0,2.262,1.038v3.611C4.566,39.417,3.772,38.865,3.771,38.441Zm35.444,1.526v-3.61a11.223,11.223,0,0,0,2.262-1.038v3.121C41.476,38.864,40.681,39.416,39.214,39.966Zm2.253-6.743c-.082.511-1.241,1.188-3.3,1.824h0A50.619,50.619,0,0,1,26.033,36.86c-.271.011-.541.023-.817.032l-.682.02c-.624.014-1.258.023-1.911.023s-1.287-.01-1.912-.024c-.227-.005-.451-.013-.675-.02-.278-.009-.55-.02-.822-.032A50.619,50.619,0,0,1,7.08,35.047h0c-1.995-.616-3.147-1.271-3.292-1.776.225.078.458.155.7.229l.072.022q.305.094.625.182l.244.067c.121.032.244.063.368.1a55.017,55.017,0,0,0,10.037,1.426h.006c1.169.069,2.363.112,3.569.127.321.006.64.009.953.009.416,0,.841-.005,1.271-.013,1.1-.018,2.186-.059,3.248-.122l.006,0,.01,0c1.293-.078,2.545-.189,3.748-.327l.013,0c.017,0,.03-.008.047-.01,1.339-.155,2.609-.345,3.788-.566.243-.044.482-.09.719-.138l.158-.032a20.263,20.263,0,0,0,5.477-1.783c.072-.039.14-.08.209-.12.084-.05.164-.1.241-.152s.156-.092.222-.14C41.008,32.559,41.418,33.034,41.467,33.223Zm.01-9.847v-3.61a11.223,11.223,0,0,0,2.262-1.038v3.121C43.738,22.273,42.944,22.825,41.477,23.376Z" transform="translate(0 -3)" fill="#cfd3e8"/>
</svg>
