<svg xmlns="http://www.w3.org/2000/svg" width="107.143" height="100" viewBox="0 0 107.143 100">
  <g id="iconfinder_atm-2_3338909" opacity="0.996">
    <path id="Path_404" data-name="Path 404" d="M9,33.925H23.34V16H9Zm3.585-14.34h7.17V30.34h-7.17Z" transform="translate(7.795 8.979)" fill="#fff"/>
    <path id="Path_405" data-name="Path 405" d="M9,45.925H23.34V28H9Zm3.585-14.34h7.17V42.34h-7.17Z" transform="translate(7.795 18.39)" fill="#fff"/>
    <path id="Path_406" data-name="Path 406" d="M9,57.925H23.34V40H9Zm3.585-14.34h7.17V54.34h-7.17Z" transform="translate(7.795 26.079)" fill="#fff"/>
    <path id="Path_414" data-name="Path 414" d="M85.633,2H0V14.5H5.352V94.47A7.536,7.536,0,0,0,12.875,102H72.758a7.536,7.536,0,0,0,7.523-7.53V14.5h5.352Zm-8.92,92.47a3.96,3.96,0,0,1-3.955,3.959H12.875A3.96,3.96,0,0,1,8.92,94.47V10.929h7.136v12.5H30.329v-12.5H46.385V31.9a4.03,4.03,0,0,0,4.023,4.027h16.93A4.03,4.03,0,0,0,71.361,31.9V10.929h5.352ZM19.624,10.929H26.76v8.929H19.624Zm41.033,0V14.5H57.089V10.929Zm7.136,0v3.618a3.848,3.848,0,0,0-.455-.046H64.225V10.929ZM50.408,32.357a.455.455,0,0,1-.455-.455V25.168a3.849,3.849,0,0,0,.455.046h3.113v7.143Zm6.681-7.143H60.2a.455.455,0,0,1,.455.455V31.9a3.855,3.855,0,0,0,.046.455H57.089ZM64.225,31.9V25.67A4.03,4.03,0,0,0,60.2,21.643H50.408a.455.455,0,0,1-.455-.455V18.527a.455.455,0,0,1,.455-.455h16.93a.455.455,0,0,1,.455.455V31.9a.455.455,0,0,1-.455.455H64.68A.455.455,0,0,1,64.225,31.9Zm-10.7-17.4H50.408a3.849,3.849,0,0,0-.455.046V10.929h3.568Zm28.544-3.571H80.281V7.357H5.352v3.571H3.568V5.571h78.5Z" transform="translate(0 -2)" fill="#fff"/>
    <path id="Path_415" data-name="Path 415" d="M70.569,67.959a1.79,1.79,0,0,0-2.535,0l-7.7,7.695V29.792a1.792,1.792,0,1,0-3.585,0V75.654l-7.7-7.695a1.792,1.792,0,0,0-2.535,2.535L57.278,81.247a1.8,1.8,0,0,0,2.538,0L70.569,70.494A1.79,1.79,0,0,0,70.569,67.959Z" transform="translate(36.048 18.226)" fill="#fff"/>
  </g>
</svg>
