<svg xmlns="http://www.w3.org/2000/svg" width="40" height="39.998" viewBox="0 0 40 39.998">
  <g id="Group_2874" data-name="Group 2874" opacity="0.3">
    <path id="Shape" d="M-88.47,273.833a20.019,20.019,0,0,0,15.206,23.843,20.019,20.019,0,0,0,23.843-15.206,19.9,19.9,0,0,0-2.455-14.735.814.814,0,0,0-1.119-.271.814.814,0,0,0-.271,1.118,18.281,18.281,0,0,1,2.255,13.535,18.39,18.39,0,0,1-21.9,13.968,18.389,18.389,0,0,1-13.968-21.9,18.389,18.389,0,0,1,21.9-13.968,18.292,18.292,0,0,1,6.2,2.632.814.814,0,0,0,1.128-.227.814.814,0,0,0-.227-1.128,19.913,19.913,0,0,0-6.752-2.866A20.019,20.019,0,0,0-88.47,273.833Z" transform="translate(88.944 -258.153)" fill="#fff"/>
    <path id="Path_458" data-name="Path 458" d="M5.477,304.244a.814.814,0,0,0-1.148.087L-11.9,323.349l-6.5-6.5a.814.814,0,0,0-1.151,0,.814.814,0,0,0,0,1.151l7.117,7.117a.811.811,0,0,0,.575.238.811.811,0,0,0,.576-.238c.061-.061,16.85-19.725,16.85-19.725A.814.814,0,0,0,5.477,304.244Z" transform="translate(29.173 -297.822)" fill="#fff"/>
  </g>
</svg>
