<svg xmlns="http://www.w3.org/2000/svg" width="48.915" height="44.023" viewBox="0 0 48.915 44.023">
  <path id="iconfinder_diagram-1_3338973" d="M43.208,34.035V24.2H25.273V15.988a6.522,6.522,0,1,0-1.63,0V24.2H5.707v9.839a6.522,6.522,0,1,0,1.63,0V25.827h16.3v8.209a6.522,6.522,0,1,0,1.63,0V25.827h16.3v8.209a6.522,6.522,0,1,0,1.63,0ZM19.566,9.522a4.891,4.891,0,1,1,4.891,4.891A4.9,4.9,0,0,1,19.566,9.522ZM11.413,40.5A4.891,4.891,0,1,1,6.522,35.61,4.9,4.9,0,0,1,11.413,40.5Zm17.935,0a4.891,4.891,0,1,1-4.891-4.891A4.9,4.9,0,0,1,29.349,40.5Zm13.044,4.891A4.891,4.891,0,1,1,47.284,40.5,4.9,4.9,0,0,1,42.393,45.393Z" transform="translate(0 -3)" fill="#c362fc"/>
</svg>
