<svg id="iconfinder_Time_4781814" xmlns="http://www.w3.org/2000/svg" width="20" height="20" viewBox="0 0 20 20">
  <g id="Layer_2" data-name="Layer 2" transform="translate(1.875 1.875)">
    <path id="Path_382" data-name="Path 382" d="M11.125,19.25a8.125,8.125,0,1,1,8.125-8.125,8.125,8.125,0,0,1-8.125,8.125Zm0-15A6.875,6.875,0,1,0,18,11.125,6.875,6.875,0,0,0,11.125,4.25Z" transform="translate(-3 -3)" fill="#cfd3e8"/>
    <path id="Path_383" data-name="Path 383" d="M19.062,16.688a.625.625,0,0,1-.444-.181l-3.437-3.437A.625.625,0,0,1,15,12.625v-5a.625.625,0,1,1,1.25,0v4.744l3.256,3.25a.625.625,0,0,1-.444,1.069Z" transform="translate(-7.5 -4.5)" fill="#cfd3e8"/>
  </g>
  <g id="frame">
    <rect id="Rectangle_129" data-name="Rectangle 129" width="20" height="20" fill="none"/>
  </g>
</svg>
