<svg xmlns="http://www.w3.org/2000/svg" width="43.122" height="47.426" viewBox="0 0 43.122 47.426">
  <g id="Group_200" data-name="Group 200" transform="translate(305 -818.448)">
    <path id="user-regular" d="M27.57,26.366c-2.523,0-3.736,1.388-7.877,1.388s-5.345-1.388-7.877-1.388A11.74,11.74,0,0,0,0,38.023v2.22a4.193,4.193,0,0,0,4.22,4.163H35.166a4.193,4.193,0,0,0,4.22-4.163v-2.22A11.74,11.74,0,0,0,27.57,26.366Zm-7.877-1.388a12.579,12.579,0,0,0,12.66-12.489,12.661,12.661,0,0,0-25.32,0A12.579,12.579,0,0,0,19.693,24.979Z" transform="translate(-301.264 821.467)" fill="#cfd3e8"/>
    <path id="user-regular-2" data-name="user-regular" d="M27.57,26.366c-2.523,0-3.736,1.388-7.877,1.388s-5.345-1.388-7.877-1.388A11.74,11.74,0,0,0,0,38.023v2.22a4.193,4.193,0,0,0,4.22,4.163H35.166a4.193,4.193,0,0,0,4.22-4.163v-2.22A11.74,11.74,0,0,0,27.57,26.366Zm7.6,13.877H4.22v-2.22a7.558,7.558,0,0,1,7.6-7.494c1.284,0,3.367,1.388,7.877,1.388,4.545,0,6.585-1.388,7.877-1.388a7.558,7.558,0,0,1,7.6,7.494ZM19.693,24.979a12.579,12.579,0,0,0,12.66-12.489,12.661,12.661,0,0,0-25.32,0A12.579,12.579,0,0,0,19.693,24.979Zm0-20.816a8.4,8.4,0,0,1,8.44,8.326,8.441,8.441,0,0,1-16.88,0A8.4,8.4,0,0,1,19.693,4.163Z" transform="translate(-305 818.448)" fill="#3f486e"/>
  </g>
</svg>
