<svg xmlns="http://www.w3.org/2000/svg" width="103.824" height="103.825" viewBox="0 0 103.824 103.825">
  <path id="Path_384" data-name="Path 384" d="M192.185,3.208a52.8,52.8,0,0,0-8.466-4.059l-.22-.084c-.324-.12-.646-.24-.971-.352-.876-.306-1.683-.565-2.473-.8-.885-.256-1.838-.5-2.827-.726-.735-.172-1.47-.318-2.21-.456-1.195-.22-2.276-.384-3.3-.5-.481-.057-.96-.109-1.441-.152-1.808-.161-3.283-.236-4.642-.236s-2.836.075-4.646.236c-.479.043-.959.095-1.436.152-1.023.12-2.1.284-3.31.5-.731.138-1.465.284-2.192.452-.994.227-1.949.472-2.843.731-.782.229-1.59.488-2.463.792-.327.113-.644.231-.96.349l-.24.089a52.956,52.956,0,0,0-8.461,4.059,51.911,51.911,0,1,0,53.1,0Zm-5.862,88.324c-.211.1-.345.168-.485.231-1.406.651-2.84,1.232-4.24,1.72l-.2.075-.29.105a48.685,48.685,0,0,1-15.476,2.5A49.442,49.442,0,0,1,154.5,94.9c-.175-.043-.338-.086-.5-.129l-.27-.072c-1.225-.3-2.5-.683-3.881-1.157-.6-.207-1.18-.418-1.762-.644-.969-.372-1.91-.8-2.716-1.166-.452-.211-.883-.42-1.316-.635l-3.546-1.774,3.557-1.751,10.24-5.043a4.45,4.45,0,0,0,2.5-4.017v-5.1l-1.143-.492c-5.54-2.386-9.128-6.9-10.97-13.791l-.27-1.009-1-.311a4.8,4.8,0,0,1-3.421-4.585V49.863a4.827,4.827,0,0,1,2.6-4.238l.889-.474.106-1a32.7,32.7,0,0,1,2.191-9.045c.447-1.094.83-1.917,1.136-2.577,1-2.15,1.311-3.124,1.229-4.771l-.166-3.4,3.031,1.559a21.917,21.917,0,0,0,10.131,2.323c.706,0,1.431-.029,2.151-.086.535-.045,1.112-.068,1.708-.068,13.3,0,20.1,5.109,21.394,16.082l.114.991.883.467A4.841,4.841,0,0,1,190,49.867v3.364a4.8,4.8,0,0,1-3.425,4.585l-1,.311-.272,1.012c-1.842,6.9-5.431,11.408-10.969,13.79l-1.143.492v5.122a4.476,4.476,0,0,0,2.446,3.993l10.719,5.478,3.512,1.794Zm17.729-72.764c.368.479.735.96,1.085,1.456.638.907,1.291,1.926,2.053,3.206.1.163.2.325.3.488.195.308.39.619.567.941a47.826,47.826,0,0,1,2.223,4.687c.17.411.32.835.47,1.259l.2.572c.46,1.263.826,2.38,1.125,3.425.19.667.359,1.338.517,2.014.275,1.161.51,2.375.715,3.707l.082.506c.07.418.14.839.19,1.266a49.11,49.11,0,0,1,.354,5.642,48.374,48.374,0,0,1-.356,5.631c-.048.418-.118.837-.188,1.255l-.086.524c-.206,1.332-.44,2.548-.717,3.713-.161.672-.329,1.341-.513,2-.3,1.06-.667,2.182-1.125,3.43l-.2.547c-.152.436-.308.871-.483,1.295A48.687,48.687,0,0,1,208.056,71c-.179.327-.374.638-.569.948-.1.161-.2.324-.3.49-.76,1.279-1.413,2.3-2.051,3.2-.35.5-.719.976-1.085,1.457l-.114.148c-.808,1.05-1.638,2.046-2.473,2.965l-.3.338c-.245.275-.492.551-.749.817a48.613,48.613,0,0,1-6.282,5.394l-1.159.849-1.162-.848a13.2,13.2,0,0,0-1.778-1.145L178.044,79.5l-1.071-.547V75.9l1-.563c4.948-2.781,8.475-7.328,10.48-13.516l.238-.737.678-.376a8.575,8.575,0,0,0,4.41-7.486V49.856a8.531,8.531,0,0,0-3.183-6.644l-.572-.463-.127-.726c-2.058-11.776-10.438-17.749-24.908-17.749-.708,0-1.388.027-2.015.079s-1.227.073-1.826.073a17.72,17.72,0,0,1-9.954-2.811,14.9,14.9,0,0,1-3.414-2.985,2.547,2.547,0,0,0-2-.993,2.624,2.624,0,0,0-1,.2,2.538,2.538,0,0,0-1.563,2.663c.166,1.44.386,2.856.655,4.211.674,3.378.712,3.827-.37,6.145l-.039.084c-.327.7-.733,1.581-1.2,2.715a35.613,35.613,0,0,0-2.237,8.36l-.109.753-.587.483a8.534,8.534,0,0,0-3.13,6.6V53.22a8.569,8.569,0,0,0,4.408,7.486l.68.376.238.737c2.006,6.188,5.531,10.735,10.479,13.516l1.005.563v3.035l-1.1.542L139.5,85.59c-.1.057-.318.213-.547.379l-.343.245-1.178.817-1.139-.871a48.65,48.65,0,0,1-5.451-4.794c-.256-.265-.5-.538-.746-.814l-.306-.342c-.817-.9-1.624-1.867-2.466-2.954l-.114-.15c-.37-.483-.74-.967-1.091-1.465-.64-.907-1.293-1.926-2.053-3.206-.1-.163-.2-.324-.3-.486-.2-.309-.39-.621-.567-.942a47.216,47.216,0,0,1-2.223-4.687c-.17-.41-.32-.833-.469-1.255l-.207-.576c-.46-1.263-.826-2.38-1.123-3.425-.19-.667-.359-1.338-.517-2.014-.275-1.161-.51-2.375-.717-3.707l-.082-.506c-.068-.42-.138-.839-.19-1.266a51.362,51.362,0,0,1-.342-5.633,47.911,47.911,0,0,1,.358-5.631c.047-.42.116-.839.186-1.257l.086-.524c.206-1.329.44-2.545.717-3.713.161-.672.331-1.341.515-2,.3-1.062.667-2.184,1.125-3.43l.193-.544c.154-.438.309-.873.485-1.3a48.712,48.712,0,0,1,2.217-4.673c.181-.329.376-.64.572-.951.1-.161.2-.322.3-.486.758-1.277,1.411-2.3,2.051-3.2.343-.488.706-.962,1.069-1.436l.129-.168c.808-1.052,1.64-2.048,2.473-2.967l.3-.334c.247-.277.494-.553.751-.819a49.13,49.13,0,0,1,8.967-7.321,47.922,47.922,0,0,1,51.625,0,49.1,49.1,0,0,1,8.967,7.32c.257.266.5.542.751.819l.3.336c.815.9,1.622,1.865,2.464,2.954Z" transform="translate(-113.721 4.158)" fill="#c362fc"/>
</svg>
