<svg id="iconfinder_graph-2_3338981" xmlns="http://www.w3.org/2000/svg" width="103.824" height="103.824" viewBox="0 0 103.824 103.824">
  <path id="Path_13" data-name="Path 13" d="M102.093,96.9H98.633V57.1H77.868V96.9h-1.73V72.677H55.373V96.9h-1.73V19.034H32.878V96.9h-1.73V32.878H10.382V96.9H6.922V1.73a1.73,1.73,0,1,0-3.461,0V96.9H1.73a1.73,1.73,0,1,0,0,3.461h1.73v1.73a1.73,1.73,0,1,0,3.461,0v-1.73h95.172a1.73,1.73,0,1,0,0-3.461Zm-88.25,0V36.338H27.686V96.9Zm31.147,0a1.73,1.73,0,1,0-3.461,0H36.338V22.5H50.181V96.9Zm13.843,0V76.137H72.677V96.9Zm22.5,0V60.564H95.172V96.9Z" fill="#c5cfe8"/>
  <circle id="Ellipse_1" data-name="Ellipse 1" cx="1.709" cy="1.709" r="1.709" transform="translate(41.547 22.505)" fill="#c5cfe8"/>
  <circle id="Ellipse_2" data-name="Ellipse 2" cx="1.709" cy="1.709" r="1.709" transform="translate(41.547 32.892)" fill="#c5cfe8"/>
  <circle id="Ellipse_3" data-name="Ellipse 3" cx="1.709" cy="1.709" r="1.709" transform="translate(36.354 27.698)" fill="#c5cfe8"/>
  <circle id="Ellipse_4" data-name="Ellipse 4" cx="1.709" cy="1.709" r="1.709" transform="translate(36.354 38.085)" fill="#c5cfe8"/>
  <circle id="Ellipse_5" data-name="Ellipse 5" cx="1.709" cy="1.709" r="1.709" transform="translate(46.741 27.698)" fill="#c5cfe8"/>
  <circle id="Ellipse_6" data-name="Ellipse 6" cx="1.709" cy="1.709" r="1.709" transform="translate(46.741 38.085)" fill="#c5cfe8"/>
  <circle id="Ellipse_7" data-name="Ellipse 7" cx="1.709" cy="1.709" r="1.709" transform="translate(41.547 43.279)" fill="#c5cfe8"/>
  <circle id="Ellipse_8" data-name="Ellipse 8" cx="1.709" cy="1.709" r="1.709" transform="translate(41.547 53.665)" fill="#c5cfe8"/>
  <circle id="Ellipse_9" data-name="Ellipse 9" cx="1.709" cy="1.709" r="1.709" transform="translate(36.354 48.472)" fill="#c5cfe8"/>
  <circle id="Ellipse_10" data-name="Ellipse 10" cx="1.709" cy="1.709" r="1.709" transform="translate(36.354 58.859)" fill="#c5cfe8"/>
  <circle id="Ellipse_11" data-name="Ellipse 11" cx="1.709" cy="1.709" r="1.709" transform="translate(46.741 48.472)" fill="#c5cfe8"/>
  <circle id="Ellipse_12" data-name="Ellipse 12" cx="1.709" cy="1.709" r="1.709" transform="translate(46.741 58.859)" fill="#c5cfe8"/>
  <circle id="Ellipse_13" data-name="Ellipse 13" cx="1.709" cy="1.709" r="1.709" transform="translate(41.547 64.052)" fill="#c5cfe8"/>
  <circle id="Ellipse_14" data-name="Ellipse 14" cx="1.709" cy="1.709" r="1.709" transform="translate(41.547 74.439)" fill="#c5cfe8"/>
  <circle id="Ellipse_15" data-name="Ellipse 15" cx="1.709" cy="1.709" r="1.709" transform="translate(36.354 69.246)" fill="#c5cfe8"/>
  <circle id="Ellipse_16" data-name="Ellipse 16" cx="1.709" cy="1.709" r="1.709" transform="translate(36.354 79.632)" fill="#c5cfe8"/>
  <circle id="Ellipse_17" data-name="Ellipse 17" cx="1.709" cy="1.709" r="1.709" transform="translate(46.741 69.246)" fill="#c5cfe8"/>
  <circle id="Ellipse_18" data-name="Ellipse 18" cx="1.709" cy="1.709" r="1.709" transform="translate(46.741 79.632)" fill="#c5cfe8"/>
  <circle id="Ellipse_19" data-name="Ellipse 19" cx="1.709" cy="1.709" r="1.709" transform="translate(41.547 79.666)" fill="#c5cfe8"/>
  <circle id="Ellipse_20" data-name="Ellipse 20" cx="1.709" cy="1.709" r="1.709" transform="translate(36.354 90.154)" fill="#c5cfe8"/>
  <circle id="Ellipse_21" data-name="Ellipse 21" cx="1.709" cy="1.709" r="1.709" transform="translate(46.741 90.154)" fill="#c5cfe8"/>
</svg>
