<svg id="iconfinder_atm-2_3338909" xmlns="http://www.w3.org/2000/svg" width="35.357" height="33" viewBox="0 0 35.357 33">
  <path id="Path_404" data-name="Path 404" d="M9,21.915h4.732V16H9Zm1.183-4.732h2.366v3.549H10.183Z" transform="translate(-3.458 -7.757)" fill="#c362fc"/>
  <path id="Path_405" data-name="Path 405" d="M9,33.915h4.732V28H9Zm1.183-4.732h2.366v3.549H10.183Z" transform="translate(-3.458 -12.691)" fill="#c362fc"/>
  <path id="Path_406" data-name="Path 406" d="M9,45.915h4.732V40H9Zm1.183-4.732h2.366v3.549H10.183Z" transform="translate(-3.458 -18.194)" fill="#c362fc"/>
  <path id="Path_414" data-name="Path 414" d="M28.259,2H0V6.125H1.766v26.39A2.487,2.487,0,0,0,4.249,35H24.01a2.487,2.487,0,0,0,2.483-2.485V6.125h1.766ZM25.315,32.515a1.307,1.307,0,0,1-1.305,1.306H4.249a1.307,1.307,0,0,1-1.305-1.306V4.946H5.3V9.071h4.71V4.946h5.3v6.921A1.33,1.33,0,0,0,16.635,13.2h5.587a1.33,1.33,0,0,0,1.328-1.329V4.946h1.766ZM6.476,4.946H8.831V7.893H6.476Zm13.541,0V6.125H18.839V4.946Zm2.355,0V6.14a1.27,1.27,0,0,0-.15-.015H21.194V4.946Zm-5.737,7.071a.15.15,0,0,1-.15-.15V9.645a1.27,1.27,0,0,0,.15.015h1.027v2.357Zm2.2-2.357h1.027a.15.15,0,0,1,.15.15v2.057a1.272,1.272,0,0,0,.015.15H18.839Zm2.355,2.207V9.811a1.33,1.33,0,0,0-1.328-1.329H16.635a.15.15,0,0,1-.15-.15V7.454a.15.15,0,0,1,.15-.15h5.587a.15.15,0,0,1,.15.15v4.414a.15.15,0,0,1-.15.15h-.877A.15.15,0,0,1,21.194,11.868ZM17.662,6.125H16.635a1.27,1.27,0,0,0-.15.015V4.946h1.177Zm9.42-1.179h-.589V3.768H1.766V4.946H1.177V3.179h25.9Z" transform="translate(0 -2)" fill="#c362fc"/>
  <path id="Path_415" data-name="Path 415" d="M54.108,41.187a.591.591,0,0,0-.836,0l-2.539,2.539V28.592a.592.592,0,1,0-1.183,0V43.726L47.01,41.187a.591.591,0,0,0-.836.836l3.548,3.548a.593.593,0,0,0,.838,0l3.548-3.548A.591.591,0,0,0,54.108,41.187Z" transform="translate(-18.924 -12.745)" fill="#c362fc"/>
</svg>
