<svg id="iconfinder_receipt_3339034" xmlns="http://www.w3.org/2000/svg" width="48.915" height="48.437" viewBox="0 0 48.915 48.437">
  <path id="Path_427" data-name="Path 427" d="M48.915,3.554A3.264,3.264,0,0,0,45.654.293H3.261A3.254,3.254,0,0,0,2.446,6.7V46.284l2.446-2.446L9.783,48.73l4.891-4.891,4.891,4.891,4.891-4.891,4.891,4.891,4.891-4.891,4.891,4.891,4.891-4.891,2.446,2.446V6.7A3.257,3.257,0,0,0,48.915,3.554ZM44.838,42.348l-.815-.815-4.891,4.891L34.24,41.533l-4.891,4.891-4.891-4.891-4.891,4.891-4.891-4.891L9.783,46.424,4.891,41.533l-.815.815V4.369H44.838V42.348Zm1.63-37.383V2.739H2.446V4.965a1.63,1.63,0,0,1,.815-3.042H45.654a1.63,1.63,0,0,1,.815,3.042Z" transform="translate(0 -0.293)" fill="#c362fc"/>
  <path id="Path_428" data-name="Path 428" d="M41.044,40.293H28.815a.815.815,0,1,0,0,1.63H41.044a.815.815,0,1,0,0-1.63Z" transform="translate(-5.173 -7.683)" fill="#c362fc"/>
  <path id="Path_429" data-name="Path 429" d="M48.236,40.532a.839.839,0,0,0-.236.579.815.815,0,1,0,1.63,0,.839.839,0,0,0-.236-.579A.854.854,0,0,0,48.236,40.532Z" transform="translate(-8.868 -7.686)" fill="#c362fc"/>
  <path id="Path_430" data-name="Path 430" d="M46.044,26.293H33.815a.815.815,0,0,0,0,1.63H46.044a.815.815,0,1,0,0-1.63Z" transform="translate(-6.097 -5.097)" fill="#c362fc"/>
  <path id="Path_431" data-name="Path 431" d="M46.968,33.293H38.815a.815.815,0,0,0,0,1.63h8.152a.815.815,0,1,0,0-1.63Z" transform="translate(-7.021 -6.39)" fill="#c362fc"/>
  <path id="Path_432" data-name="Path 432" d="M28,34.108a.815.815,0,0,0,.815.815h1.63a.815.815,0,1,0,0-1.63h-1.63A.815.815,0,0,0,28,34.108Z" transform="translate(-5.173 -6.39)" fill="#c362fc"/>
  <path id="Path_433" data-name="Path 433" d="M41.859,20.108a.815.815,0,0,0-.815-.815H28.815a.815.815,0,0,0,0,1.63H41.044A.815.815,0,0,0,41.859,20.108Z" transform="translate(-5.173 -3.803)" fill="#c362fc"/>
  <path id="Path_434" data-name="Path 434" d="M48.236,19.532a.839.839,0,0,0-.236.579.807.807,0,0,0,.815.815.842.842,0,0,0,.579-.236.819.819,0,0,0-1.158-1.158Z" transform="translate(-8.868 -3.806)" fill="#c362fc"/>
  <path id="Path_435" data-name="Path 435" d="M30.394,27.689a.827.827,0,0,0,0-1.158.854.854,0,0,0-1.158,0,.827.827,0,0,0,0,1.158.827.827,0,0,0,1.158,0Z" transform="translate(-5.358 -5.099)" fill="#c362fc"/>
  <path id="Path_436" data-name="Path 436" d="M35.394,34.689a.842.842,0,0,0,.236-.579.826.826,0,0,0-.236-.579.815.815,0,1,0,0,1.158Z" transform="translate(-6.282 -6.392)" fill="#c362fc"/>
  <path id="Path_437" data-name="Path 437" d="M15.891,21.006v-.9a.815.815,0,1,0-1.63,0v.9a4.064,4.064,0,0,0-2.3,1.36,2.8,2.8,0,0,0-.647,2.122,2.975,2.975,0,0,0,1.127,2.031l1.817,1.414v4.433a2.442,2.442,0,0,1-1.63-2.3.815.815,0,0,0-1.63,0,4.084,4.084,0,0,0,3.261,3.994v.716a.815.815,0,1,0,1.63,0v-.719a4.069,4.069,0,0,0,2.3-1.36,2.808,2.808,0,0,0,.646-2.124,2.973,2.973,0,0,0-1.127-2.028l-1.817-1.413V22.7a2.442,2.442,0,0,1,1.63,2.3.815.815,0,0,0,1.63,0A4.084,4.084,0,0,0,15.891,21.006Zm.816,8.832a1.339,1.339,0,0,1,.507.911,1.188,1.188,0,0,1-.27.9,2.436,2.436,0,0,1-1.053.713V29.2Zm-3.263-4.6a1.339,1.339,0,0,1-.507-.913,1.191,1.191,0,0,1,.27-.9,2.436,2.436,0,0,1,1.053-.713v3.161Z" transform="translate(-2.032 -3.803)" fill="#c362fc"/>
  <circle id="Ellipse_37" data-name="Ellipse 37" cx="0.815" cy="0.815" r="0.815" transform="translate(31.794 8.152)" fill="#c362fc"/>
  <circle id="Ellipse_38" data-name="Ellipse 38" cx="0.815" cy="0.815" r="0.815" transform="translate(28.534 8.152)" fill="#c362fc"/>
  <circle id="Ellipse_39" data-name="Ellipse 39" cx="0.815" cy="0.815" r="0.815" transform="translate(35.055 8.152)" fill="#c362fc"/>
  <circle id="Ellipse_40" data-name="Ellipse 40" cx="0.815" cy="0.815" r="0.815" transform="translate(25.273 8.152)" fill="#c362fc"/>
  <circle id="Ellipse_41" data-name="Ellipse 41" cx="0.815" cy="0.815" r="0.815" transform="translate(38.316 8.152)" fill="#c362fc"/>
  <circle id="Ellipse_42" data-name="Ellipse 42" cx="0.815" cy="0.815" r="0.815" transform="translate(15.49 8.152)" fill="#c362fc"/>
  <circle id="Ellipse_43" data-name="Ellipse 43" cx="0.815" cy="0.815" r="0.815" transform="translate(18.751 8.152)" fill="#c362fc"/>
  <circle id="Ellipse_44" data-name="Ellipse 44" cx="0.815" cy="0.815" r="0.815" transform="translate(22.012 8.152)" fill="#c362fc"/>
  <circle id="Ellipse_45" data-name="Ellipse 45" cx="0.815" cy="0.815" r="0.815" transform="translate(41.577 8.152)" fill="#c362fc"/>
  <circle id="Ellipse_46" data-name="Ellipse 46" cx="0.815" cy="0.815" r="0.815" transform="translate(12.229 8.152)" fill="#c362fc"/>
  <circle id="Ellipse_47" data-name="Ellipse 47" cx="0.815" cy="0.815" r="0.815" transform="translate(8.968 8.152)" fill="#c362fc"/>
  <circle id="Ellipse_48" data-name="Ellipse 48" cx="0.815" cy="0.815" r="0.815" transform="translate(5.707 8.152)" fill="#c362fc"/>
</svg>
