<svg id="iconfinder_atm-1_3338908" xmlns="http://www.w3.org/2000/svg" width="35.357" height="33" viewBox="0 0 35.357 33">
  <path id="Path_392" data-name="Path 392" d="M9,21.893h4.714V16H9Zm1.179-4.714h2.357v3.536H10.179Z" transform="translate(-3.696 -7.75)" fill="#c362fc"/>
  <path id="Path_393" data-name="Path 393" d="M9,33.893h4.714V28H9Zm1.179-4.714h2.357v3.536H10.179Z" transform="translate(-3.696 -12.679)" fill="#c362fc"/>
  <path id="Path_394" data-name="Path 394" d="M9,45.893h4.714V40H9Zm1.179-4.714h2.357v3.536H10.179Z" transform="translate(-3.696 -17.607)" fill="#c362fc"/>
  <path id="Path_402" data-name="Path 402" d="M28.286,2H0V6.125H1.768v26.39A2.488,2.488,0,0,0,4.253,35h19.78a2.488,2.488,0,0,0,2.485-2.485V6.125h1.768ZM25.339,32.515a1.308,1.308,0,0,1-1.306,1.306H4.253a1.308,1.308,0,0,1-1.306-1.306V4.946H5.3V9.071h4.714V4.946h5.3v6.921A1.331,1.331,0,0,0,16.65,13.2h5.592a1.331,1.331,0,0,0,1.329-1.329V4.946h1.768ZM6.482,4.946H8.839V7.893H6.482Zm13.554,0V6.125H18.857V4.946Zm2.357,0V6.14a1.272,1.272,0,0,0-.15-.015H21.214V4.946ZM16.65,12.018a.15.15,0,0,1-.15-.15V9.645a1.272,1.272,0,0,0,.15.015h1.028v2.357Zm2.207-2.357h1.028a.15.15,0,0,1,.15.15v2.057a1.273,1.273,0,0,0,.015.15H18.857Zm2.357,2.207V9.811a1.331,1.331,0,0,0-1.329-1.329H16.65a.15.15,0,0,1-.15-.15V7.454a.15.15,0,0,1,.15-.15h5.592a.15.15,0,0,1,.15.15v4.414a.15.15,0,0,1-.15.15h-.878A.15.15,0,0,1,21.214,11.868ZM17.679,6.125H16.65a1.272,1.272,0,0,0-.15.015V4.946h1.179Zm9.429-1.179h-.589V3.768H1.768V4.946H1.179V3.179H27.107Z" transform="translate(0 -2)" fill="#c362fc"/>
  <path id="Path_403" data-name="Path 403" d="M54.077,31.709l-3.535-3.535a.583.583,0,0,0-.192-.128.591.591,0,0,0-.642.128l-3.535,3.535a.589.589,0,1,0,.833.833l2.53-2.53V45.09a.589.589,0,1,0,1.179,0V30.012l2.53,2.53a.589.589,0,0,0,.833-.833Z" transform="translate(-18.893 -12.679)" fill="#c362fc"/>
</svg>
