<svg id="iconfinder_Paper_Note_4781822" xmlns="http://www.w3.org/2000/svg" width="32" height="32" viewBox="0 0 32 32">
  <g id="Layer_2" data-name="Layer 2">
    <path id="Path_313" data-name="Path 313" d="M27,29H9a1,1,0,0,1-1-1V16a1,1,0,0,1,2,0V27H26V6a1,1,0,0,0-1-1H7A1,1,0,0,1,7,3H25a3,3,0,0,1,3,3V28A1,1,0,0,1,27,29Z" fill="#a481e5"/>
    <path id="Path_314" data-name="Path 314" d="M9,17H5a1,1,0,0,1-1-1V6a3,3,0,1,1,6,0V16A1,1,0,0,1,9,17ZM6,15H8V6A1,1,0,0,0,6,6Z" fill="#a481e5"/>
    <path id="Path_315" data-name="Path 315" d="M19,19H13a1,1,0,0,1,0-2h6a1,1,0,0,1,0,2Z" fill="#a481e5"/>
    <path id="Path_316" data-name="Path 316" d="M23,23H13a1,1,0,0,1,0-2H23a1,1,0,0,1,0,2Z" fill="#a481e5"/>
    <path id="Path_317" data-name="Path 317" d="M21,15H13a1,1,0,0,1,0-2h8a1,1,0,0,1,0,2Z" fill="#a481e5"/>
    <path id="Path_318" data-name="Path 318" d="M23,8H13a1,1,0,0,1-1-1V4a1,1,0,0,1,1-1H23a1,1,0,0,1,1,1V7A1,1,0,0,1,23,8ZM14,6h8V5H14Z" fill="#a481e5"/>
  </g>
  <g id="frame">
    <rect id="Rectangle_91" data-name="Rectangle 91" width="32" height="32" fill="none"/>
  </g>
</svg>
