<svg id="iconfinder_megaphone_3338897" xmlns="http://www.w3.org/2000/svg" width="36" height="33" viewBox="0 0 36 33">
  <path id="Path_416" data-name="Path 416" d="M30.031,13.2V5.5a3.07,3.07,0,0,0-1.512-2.658,3.157,3.157,0,0,0-3.1-.074L24,3.53v.016L13.672,9.058a3.1,3.1,0,0,0-1.514,1.86l-7.817.476a2.056,2.056,0,0,0-1.887,1.8H1.927A1.924,1.924,0,0,0,0,15.111v3.335a1.925,1.925,0,0,0,1.927,1.92h.531a2.279,2.279,0,0,0,2.1,1.993l.278.017V32.71a2.7,2.7,0,0,0,5.4,0V22.7l1.943.118a3.077,3.077,0,0,0,1.577,1.85L24,29.777v.016l1.5.747a3.115,3.115,0,0,0,1.393.33h.031a3.115,3.115,0,0,0,1.633-.465,3.077,3.077,0,0,0,1.475-2.636V20.362A3,3,0,0,0,33,17.376v-1.2A3,3,0,0,0,30.031,13.2Zm-21,19.515a1.5,1.5,0,0,1-3,0c.02-.029-.021-10.288,0-10.26l3,.185ZM26.067,29.47l-.868-.432V4.262l.819-.437a1.9,1.9,0,0,1,.8-.215c.038,0,.076-.013.114-.012h.01a1.91,1.91,0,0,1,.928.271A1.884,1.884,0,0,1,28.8,5.5V27.768a1.888,1.888,0,0,1-.906,1.618,1.854,1.854,0,0,1-1.826.084ZM2.4,19.17H1.927a.726.726,0,0,1-.727-.723V15.112a.726.726,0,0,1,.727-.724H2.4Zm1.231.925V13.439a.858.858,0,0,1,.79-.852l7.61-.463v9.49l-7.4-.448A1.079,1.079,0,0,1,3.631,20.094ZM14.287,23.6a1.89,1.89,0,0,1-1.056-1.7V11.79a1.9,1.9,0,0,1,1.009-1.677L24,4.9V28.439ZM31.8,17.376a1.8,1.8,0,0,1-1.769,1.79V14.39a1.8,1.8,0,0,1,1.769,1.79Z" transform="translate(0 -2.4)" fill="#a481e5"/>
  <path id="Path_417" data-name="Path 417" d="M57.09,19.706a.6.6,0,0,0-.981.689,5.8,5.8,0,0,1,1.09,3.258,5.578,5.578,0,0,1-1.088,3.223.6.6,0,0,0,.974.7,6.793,6.793,0,0,0,1.313-3.95A6.976,6.976,0,0,0,57.09,19.706Z" transform="translate(-22.4 -9.258)" fill="#a481e5"/>
</svg>
