<svg xmlns="http://www.w3.org/2000/svg" width="121.674" height="121.66" viewBox="0 0 121.674 121.66">
  <g id="iconfinder_Door_enter_entrance_exit_leave_logout_out_quit_4831032" transform="translate(0 0)">
    <path id="Path_421" data-name="Path 421" d="M86.531,30.866h-51.1a2.433,2.433,0,0,1,0-4.866h51.1a2.433,2.433,0,0,1,0,4.866Z" transform="translate(30.263 20.231)" fill="#cfd3e8"/>
    <path id="Path_422" data-name="Path 422" d="M58.1,128.66A2.433,2.433,0,0,1,57,128.393L11.039,105.423A7.3,7.3,0,0,1,7,98.878V14.3A7.3,7.3,0,0,1,14.3,7H36.2a2.433,2.433,0,0,1,0,4.866H17.56L59.144,31.575a2.433,2.433,0,0,1,1.387,2.19v92.462A2.422,2.422,0,0,1,58.1,128.66ZM11.866,14.567V98.878a2.433,2.433,0,0,0,1.338,2.19l42.459,21.218V35.3Z" transform="translate(-7 -7)" fill="#cfd3e8"/>
    <path id="Path_423" data-name="Path 423" d="M48.441,65.67a2.433,2.433,0,0,1-1.728-4.161l20.2-20.171-20.2-20.171a2.443,2.443,0,0,1,3.455-3.455l21.9,21.9a2.433,2.433,0,0,1,0,3.455l-21.9,21.9A2.433,2.433,0,0,1,48.441,65.67Z" transform="translate(48.887 7.326)" fill="#cfd3e8"/>
    <path id="Path_424" data-name="Path 424" d="M51.332,64.2h-21.9a2.433,2.433,0,1,1,0-4.866h21.9A2.433,2.433,0,0,0,53.765,56.9V37.433a2.433,2.433,0,1,1,4.866,0V56.9A7.3,7.3,0,0,1,51.332,64.2Z" transform="translate(21.664 33.13)" fill="#cfd3e8"/>
    <path id="Path_425" data-name="Path 425" d="M74.83,36.2A2.433,2.433,0,0,1,72.4,33.765V14.3a2.433,2.433,0,0,0-2.433-2.433H16.433a2.433,2.433,0,1,1,0-4.866H69.964a7.3,7.3,0,0,1,7.3,7.3V33.765A2.433,2.433,0,0,1,74.83,36.2Z" transform="translate(3.032 -7)" fill="#cfd3e8"/>
  </g>
</svg>
