<svg xmlns="http://www.w3.org/2000/svg" width="103.824" height="95.003" viewBox="0 0 103.824 95.003">
  <g id="Group_201" data-name="Group 201" transform="translate(0)">
    <rect id="Rectangle_10" data-name="Rectangle 10" width="5.759" height="5.756" transform="translate(56.059 89.246)" fill="#cfd3e8"/>
    <path id="Path_51" data-name="Path 51" d="M163.035,86.815c-.68-6.7-7.617-12.736-14.385-12.736l1.638-.007h-1.638l-.019-1.543c0-3.15-2.745-5.863-5.8-6.949l-1.241-.441V63.194a30.391,30.391,0,0,0-60.783,0v1.944l-1.241.441a8.9,8.9,0,0,0-5.8,6.955l-.231,1.414-1.426.146A14.25,14.25,0,0,0,59.361,89.7a14.3,14.3,0,0,0,12.746,12.736l1.417.144.238,1.4a8.885,8.885,0,0,0,17.646-1.416V73.936a8.893,8.893,0,0,0-5.923-8.355l-1.246-.44V63.194a26.958,26.958,0,0,1,53.917,0v1.947l-1.246.44a8.889,8.889,0,0,0-5.921,8.357v28.647a8.891,8.891,0,0,0,5.923,8.355l1.244.441V118.7a5.455,5.455,0,0,1-5.452,5.449h-8.883v3.428H132.7a8.907,8.907,0,0,0,8.885-8.878v-7.313l1.241-.441a8.9,8.9,0,0,0,5.8-6.956l.231-1.416,1.426-.144a14.247,14.247,0,0,0,12.746-15.611Zm-89.4,12.508-2.245-.46a10.878,10.878,0,0,1-8.662-10.6v0a10.882,10.882,0,0,1,8.662-10.6l2.245-.462ZM87.977,73.936v28.649a5.454,5.454,0,0,1-10.907,0V73.936a5.454,5.454,0,0,1,10.907,0Zm57.35,28.649a5.454,5.454,0,0,1-10.907,0V73.936a5.454,5.454,0,0,1,10.907,0Zm14.131-12.172A10.8,10.8,0,0,1,151,98.865l-2.24.453V77.2l2.24.453a10.825,10.825,0,0,1,8.46,12.758Z" transform="translate(-59.286 -32.83)" fill="#cfd3e8"/>
  </g>
</svg>
