<svg xmlns="http://www.w3.org/2000/svg" width="48.915" height="45.652" viewBox="0 0 48.915 45.652">
  <path id="iconfinder_justice-scale_3338992" d="M48.252,11.793,44.837,5.877V2.816s0,0,0-.006a.788.788,0,0,0-.033-.165.829.829,0,0,0-.033-.152l0-.007a.832.832,0,0,0-.066-.093.828.828,0,0,0-.113-.16.808.808,0,0,0-.133-.09.817.817,0,0,0-.129-.082.847.847,0,0,0-.193-.039A.764.764,0,0,0,44.022,2l-.007,0a.787.787,0,0,0-.141.029.817.817,0,0,0-.175.038l-.007,0L28.768,8.661c-.024-.045-.051-.086-.077-.13s-.043-.072-.065-.108a4.9,4.9,0,0,0-.434-.606c-.019-.022-.039-.042-.058-.064a5.014,5.014,0,0,0-.546-.539c-.006,0-.01-.01-.015-.014a4.992,4.992,0,0,0-.632-.439c-.031-.018-.06-.038-.091-.055a4.939,4.939,0,0,0-.673-.311c-.042-.016-.084-.032-.127-.046a4.757,4.757,0,0,0-.723-.189c-.019,0-.036-.011-.055-.014V3.631a.815.815,0,0,0-1.63,0V6.15A4.871,4.871,0,0,0,19.754,12.3L4.589,18.363l-.007,0a.827.827,0,0,0-.211.138.66.66,0,0,0-.055.038.858.858,0,0,0-.108.158.831.831,0,0,0-.068.1.766.766,0,0,0-.017.077.8.8,0,0,0-.047.236s0,0,0,.007v3.227L.661,28.264a4.879,4.879,0,0,0-.646,2.2A.559.559,0,0,0,0,30.534c0,.013.007.024.007.037a4.885,4.885,0,1,0,9.767,0,.309.309,0,0,0,.008-.038.73.73,0,0,0-.015-.073,4.882,4.882,0,0,0-.646-2.2L5.707,22.348V19.673l14.749-5.9a4.935,4.935,0,0,0,.783.87l.007.007a4.915,4.915,0,0,0,.923.639c.042.022.086.041.128.062.116.057.232.111.353.159.063.025.126.047.189.069.107.038.215.072.326.1.067.018.133.036.2.051.091.021.183.037.276.054V35.424H18.751V39.5a7.345,7.345,0,0,0-7.337,7.337v.815H37.5v-.815A7.345,7.345,0,0,0,30.164,39.5V35.424H25.273V15.792c.019,0,.036-.011.055-.015a4.88,4.88,0,0,0,.723-.189c.043-.015.085-.03.127-.046a4.9,4.9,0,0,0,.673-.311c.031-.017.06-.037.09-.055a4.862,4.862,0,0,0,.633-.439c.006,0,.01-.01.015-.014a4.94,4.94,0,0,0,.546-.539c.019-.022.039-.042.058-.064a4.987,4.987,0,0,0,.434-.606c.022-.036.044-.071.065-.108a4.846,4.846,0,0,0,.32-.665c.015-.04.03-.081.045-.121a4.822,4.822,0,0,0,.2-.733c.007-.032.009-.065.015-.1a5.131,5.131,0,0,0,.073-.821,4.883,4.883,0,0,0-.064-.753L43.207,4.068V5.877l-3.415,5.915a4.885,4.885,0,1,0,8.46,0ZM4.891,33.962a3.22,3.22,0,0,1-2.818-1.627,3.268,3.268,0,0,1-.369-.986H8.079a3.268,3.268,0,0,1-.369.986A3.22,3.22,0,0,1,4.891,33.962Zm3.1-4.243H1.8a3.293,3.293,0,0,1,.278-.639L4.891,24.2,7.71,29.079A3.322,3.322,0,0,1,7.988,29.719Zm27.824,16.3H13.1a5.715,5.715,0,0,1,5.649-4.891H30.163A5.715,5.715,0,0,1,35.812,46.023ZM28.533,39.5H20.381V37.056h8.152ZM24.457,7.708a3.263,3.263,0,0,1,2.993,1.971l.1.315a3.963,3.963,0,0,1,.118.473,3.225,3.225,0,0,1-3.793,3.7c-.054-.01-.108-.022-.161-.034A3.19,3.19,0,0,1,23.284,14c-.042-.016-.086-.029-.127-.046a3.266,3.266,0,0,1-.455-.247c-.07-.046-.136-.1-.2-.148s-.135-.108-.2-.165c-.081-.073-.161-.147-.236-.228-.014-.015-.026-.033-.039-.048a3.347,3.347,0,0,1-.484-.725l-.107-.218a3.249,3.249,0,0,1,3.023-4.47Zm19.565.018,2.818,4.882a3.332,3.332,0,0,1,.333.806h-6.3a3.3,3.3,0,0,1,.333-.806Zm0,9.765A3.22,3.22,0,0,1,41.2,15.863a3.283,3.283,0,0,1-.336-.818h6.308a3.283,3.283,0,0,1-.336.818A3.22,3.22,0,0,1,44.022,17.49Z" transform="translate(0 -2.001)" fill="#c362fc"/>
</svg>
