<svg xmlns="http://www.w3.org/2000/svg" width="41.197" height="20.599" viewBox="0 0 41.197 20.599">
  <path id="Path_385" data-name="Path 385" d="M9.432,41.132a4.347,4.347,0,0,0,4.419-4.262,4.159,4.159,0,0,0-1.15-2.858l2.6-2.5a4.511,4.511,0,0,0,5.927,0l3.342,3.223a4.159,4.159,0,0,0-1.15,2.858,4.422,4.422,0,0,0,8.838,0,4.119,4.119,0,0,0-.535-2.031l7.106-6.892a4.483,4.483,0,0,0,2.963,1.11,4.265,4.265,0,1,0-4.419-4.262,4.119,4.119,0,0,0,.535,2.031L30.8,34.438a4.53,4.53,0,0,0-5.07-.595l-3.585-3.457a4.107,4.107,0,0,0,.535-2.031,4.422,4.422,0,0,0-8.838,0,4.119,4.119,0,0,0,.535,2.031l-2.839,2.737a4.523,4.523,0,0,0-2.106-.516,4.264,4.264,0,1,0,0,8.523ZM41.79,22.674a2.843,2.843,0,1,1-2.946,2.841A2.9,2.9,0,0,1,41.79,22.674ZM30.782,37.59a2.948,2.948,0,1,1-2.946-2.841A2.9,2.9,0,0,1,30.782,37.59ZM18.261,25.515a2.843,2.843,0,1,1-2.946,2.841A2.9,2.9,0,0,1,18.261,25.515ZM9.432,34.029a2.843,2.843,0,1,1,0,5.682,2.843,2.843,0,1,1,0-5.682Z" transform="translate(-5.012 -21.253)" fill="#596385"/>
</svg>
