<svg id="iconfinder_megaphone_3338897" xmlns="http://www.w3.org/2000/svg" width="108.694" height="100" viewBox="0 0 108.694 100">
  <path id="Path_416" data-name="Path 416" d="M90.671,35.113V11.8A9.45,9.45,0,0,0,76.755,3.523l-4.293,2.3v.047L41.279,22.577a9.373,9.373,0,0,0-4.57,5.636l-23.6,1.442a6.217,6.217,0,0,0-5.7,5.449H5.817A5.821,5.821,0,0,0,0,40.919v10.1A5.822,5.822,0,0,0,5.817,56.84h1.6a6.891,6.891,0,0,0,6.326,6.04l.841.051V94.248a8.152,8.152,0,1,0,16.3,0V63.923l5.866.357a9.317,9.317,0,0,0,4.761,5.607L72.461,85.359v.047l4.527,2.264a9.377,9.377,0,0,0,4.2,1c.014,0,.029,0,.043,0s.034,0,.051,0a9.4,9.4,0,0,0,9.384-9.4V56.831a9.062,9.062,0,0,0,8.963-9.049V44.159A9.061,9.061,0,0,0,90.671,35.113ZM27.267,94.25a4.529,4.529,0,0,1-9.058,0c.061-.088-.063-31.177,0-31.09l9.058.562ZM78.7,84.43l-2.619-1.31V8.043l2.473-1.324a5.735,5.735,0,0,1,2.415-.652c.116,0,.228-.038.344-.036l.031,0A5.78,5.78,0,0,1,86.954,11.8V79.272A5.692,5.692,0,0,1,78.7,84.43ZM7.246,53.217H5.817a2.2,2.2,0,0,1-2.194-2.192V40.92a2.2,2.2,0,0,1,2.194-2.194H7.246Zm3.717,2.8V35.85a2.6,2.6,0,0,1,2.384-2.581l22.977-1.4V60.623l-22.34-1.357A3.265,3.265,0,0,1,10.963,56.019ZM43.136,66.646a5.731,5.731,0,0,1-3.188-5.157V30.855a5.756,5.756,0,0,1,3.045-5.083L72.461,9.983V81.307ZM96.011,47.782a5.435,5.435,0,0,1-5.34,5.426V38.734a5.436,5.436,0,0,1,5.34,5.426Z" transform="translate(0 -2.4)" fill="#fff"/>
  <path id="Path_417" data-name="Path 417" d="M59.293,20.22a1.812,1.812,0,1,0-2.962,2.089,17.631,17.631,0,0,1,3.292,9.873,16.942,16.942,0,0,1-3.284,9.766,1.811,1.811,0,1,0,2.942,2.114,20.632,20.632,0,0,0,3.964-11.971A21.19,21.19,0,0,0,59.293,20.22Z" transform="translate(45.445 11.438)" fill="#fff"/>
</svg>
