<svg xmlns="http://www.w3.org/2000/svg" width="40" height="40" viewBox="0 0 40 40">
  <g id="Page-1" transform="translate(0 0)" opacity="0.3">
    <g id="close" transform="translate(0 0)">
      <path id="Shape" d="M-429-129.619a20.023,20.023,0,0,0-20,20,20.023,20.023,0,0,0,20,20A19.9,19.9,0,0,0-415.141-95.2a.814.814,0,0,0,.023-1.151.814.814,0,0,0-1.151-.023A18.283,18.283,0,0,1-429-91.247a18.393,18.393,0,0,1-18.372-18.372A18.393,18.393,0,0,1-429-127.991a18.393,18.393,0,0,1,18.372,18.372,18.293,18.293,0,0,1-1.231,6.625.814.814,0,0,0,.466,1.053.814.814,0,0,0,1.053-.466,19.916,19.916,0,0,0,1.34-7.213A20.023,20.023,0,0,0-429-129.619Z" transform="translate(449 129.619)" fill="#fff"/>
      <path id="Shape-2" data-name="Shape" d="M-290.195,29.035a.814.814,0,0,0-1.151.012.814.814,0,0,0,.012,1.151l6.408,6.273a.811.811,0,0,0,.569.232.812.812,0,0,0,.582-.245.814.814,0,0,0-.012-1.151Z" transform="translate(312.935 -7.31)" fill="#fff"/>
      <path id="Shape-3" data-name="Shape" d="M-364.439-43.908a.812.812,0,0,0,.576.238.812.812,0,0,0,.576-.238.814.814,0,0,0,0-1.151l-6.137-6.137a.814.814,0,0,0-1.151,0,.814.814,0,0,0,0,1.151Z" transform="translate(381.421 62.041)" fill="#fff"/>
      <path id="Shape-4" data-name="Shape" d="M-352.268-51.2a.814.814,0,0,0-1.151,0l-17.158,17.158a.814.814,0,0,0,0,1.151.812.812,0,0,0,.576.238.812.812,0,0,0,.576-.238l17.158-17.158A.814.814,0,0,0-352.268-51.2Z" transform="translate(381.422 62.041)" fill="#fff"/>
    </g>
  </g>
</svg>
