<svg xmlns="http://www.w3.org/2000/svg" width="23.446" height="18.236" viewBox="0 0 23.446 18.236">
  <path id="credit-card-regular" d="M21.488,32H1.958A1.955,1.955,0,0,0,0,33.954V48.282a1.955,1.955,0,0,0,1.958,1.954h19.53a1.955,1.955,0,0,0,1.958-1.954V33.954A1.955,1.955,0,0,0,21.488,32ZM2.2,33.954H21.244a.245.245,0,0,1,.244.244v1.71H1.958V34.2A.245.245,0,0,1,2.2,33.954ZM21.244,48.282H2.2a.245.245,0,0,1-.244-.244v-6.92h19.53v6.92A.245.245,0,0,1,21.244,48.282ZM7.815,44.212V45.84a.49.49,0,0,1-.488.488H4.4a.49.49,0,0,1-.488-.488V44.212a.49.49,0,0,1,.488-.488H7.327A.49.49,0,0,1,7.815,44.212Zm7.815,0V45.84a.49.49,0,0,1-.488.488H9.606a.49.49,0,0,1-.488-.488V44.212a.49.49,0,0,1,.488-.488h5.536A.49.49,0,0,1,15.631,44.212Z" transform="translate(0 -32)" fill="#a481e5"/>
</svg>
