<svg id="iconfinder_atm-1_3338908" xmlns="http://www.w3.org/2000/svg" width="107.143" height="100" viewBox="0 0 107.143 100">
  <path id="Path_392" data-name="Path 392" d="M9,33.857H23.286V16H9Zm3.571-14.286h7.143V30.286H12.571Z" transform="translate(7.071 9)" fill="#fff"/>
  <path id="Path_393" data-name="Path 393" d="M9,45.857H23.286V28H9Zm3.571-14.286h7.143V42.286H12.571Z" transform="translate(7.071 18.429)" fill="#fff"/>
  <path id="Path_394" data-name="Path 394" d="M9,57.857H23.286V40H9Zm3.571-14.286h7.143V54.286H12.571Z" transform="translate(7.071 27.857)" fill="#fff"/>
  <path id="Path_402" data-name="Path 402" d="M85.714,2H0V14.5H5.357V94.47a7.539,7.539,0,0,0,7.53,7.53H72.827a7.539,7.539,0,0,0,7.53-7.53V14.5h5.357ZM76.786,94.47a3.962,3.962,0,0,1-3.959,3.959H12.888A3.962,3.962,0,0,1,8.929,94.47V10.929h7.143v12.5H30.357v-12.5H46.429V31.9a4.032,4.032,0,0,0,4.027,4.027H67.4A4.032,4.032,0,0,0,71.429,31.9V10.929h5.357ZM19.643,10.929h7.143v8.929H19.643Zm41.071,0V14.5H57.143V10.929Zm7.143,0v3.618A3.856,3.856,0,0,0,67.4,14.5H64.286V10.929Zm-17.4,21.429A.455.455,0,0,1,50,31.9V25.168a3.856,3.856,0,0,0,.455.046h3.116v7.143Zm6.688-7.143h3.116a.455.455,0,0,1,.455.455V31.9a3.857,3.857,0,0,0,.046.455H57.143ZM64.286,31.9V25.67a4.032,4.032,0,0,0-4.027-4.027h-9.8A.455.455,0,0,1,50,21.188V18.527a.455.455,0,0,1,.455-.455H67.4a.455.455,0,0,1,.455.455V31.9a.455.455,0,0,1-.455.455H64.741A.455.455,0,0,1,64.286,31.9ZM53.571,14.5H50.455a3.856,3.856,0,0,0-.455.046V10.929h3.571Zm28.571-3.571H80.357V7.357h-75v3.571H3.571V5.571H82.143Z" transform="translate(0 -2)" fill="#fff"/>
  <path id="Path_403" data-name="Path 403" d="M70.477,39.237,59.765,28.524a1.768,1.768,0,0,0-.582-.387,1.791,1.791,0,0,0-1.946.387L46.523,39.237a1.785,1.785,0,1,0,2.525,2.525L56.714,34.1V79.785a1.786,1.786,0,1,0,3.571,0V34.1l7.666,7.666a1.785,1.785,0,0,0,2.525-2.525Z" transform="translate(36.143 18.43)" fill="#fff"/>
</svg>
