<svg xmlns="http://www.w3.org/2000/svg" viewBox="0 0 40 40"><defs><style>.a{fill:#fff;}</style></defs><title>新二元手机版</title><path class="a" d="M27.23,7.6V6.23c.29,0,.45.29.49.74h1.05c0-.85-.53-1.33-1.54-1.45V5.18h-.39v.34c-1,.15-1.52.64-1.6,1.45s.46,1.35,1.6,1.54v1.3c-.4,0-.6-.29-.6-.82h-1q0,1.53,1.65,1.56v.28h.39v-.28a1.58,1.58,0,0,0,1.65-1.48C28.88,8.3,28.33,7.8,27.23,7.6Zm-.39-.12c-.34-.09-.51-.28-.49-.57s.18-.64.49-.68Zm.39,2.33V8.59a.64.64,0,0,1,.52.63A.55.55,0,0,1,27.23,9.81Z"/><path class="a" d="M26.83,13.41A5.41,5.41,0,1,1,32.24,8,5.4,5.4,0,0,1,26.83,13.41Zm0-9.81A4.41,4.41,0,1,0,31.24,8,4.42,4.42,0,0,0,26.83,3.6Z"/><path class="a" d="M33.11,25H26a1.65,1.65,0,0,0-1.65,1.64v3.68A1.65,1.65,0,0,0,26,32h7.12a1.64,1.64,0,0,0,1.64-1.65V26.67A1.65,1.65,0,0,0,33.11,25Zm.2,5.32a.19.19,0,0,1-.2.19H26a.18.18,0,0,1-.19-.19V26.67a.19.19,0,0,1,.19-.19h7.11a.21.21,0,0,1,.2.19Z"/><path class="a" d="M19.26,5.71,15.2,1a1,1,0,0,0-.8-.37h0a1.05,1.05,0,0,0-.8.36L9.39,5.83A1,1,0,0,0,9.5,7.3,1.06,1.06,0,0,0,11,7.19L13.26,4.6V14h0v.38a1.06,1.06,0,0,0,1.06,1.07,1,1,0,0,0,.38-.08,1,1,0,0,0,.69-1h0V4.46l2.25,2.61a1.08,1.08,0,0,0,1.5.12A1,1,0,0,0,19.26,5.71Z"/><path class="a" d="M31.69,32.64a.72.72,0,0,0-.73.7h0v2.88a1.68,1.68,0,0,1-1.68,1.67H7.34a.66.66,0,0,1-.66-.65V18.88a2.63,2.63,0,0,0,1.12.25H29.28A1.69,1.69,0,0,1,31,20.81V23.7h0v0a.73.73,0,1,0,1.46,0V20.81a3.13,3.13,0,0,0-3.13-3.13h-.64V16.11a2.09,2.09,0,0,0-2.1-2.1h-9a.73.73,0,0,0-.73.72h0a.73.73,0,0,0,.73.73h9a.65.65,0,0,1,.65.65v1.57H7.8a1.11,1.11,0,0,1,0-2.22h3.31a.73.73,0,0,0,.73-.73h0a.73.73,0,0,0-.73-.72H7.8a2.56,2.56,0,0,0-2.56,2.56h0V37.24a2.1,2.1,0,0,0,2.1,2.11h22a3.13,3.13,0,0,0,3.13-3.12V33.34h0A.72.72,0,0,0,31.69,32.64Z"/></svg>