<svg id="圖層_1" data-name="圖層 1" xmlns="http://www.w3.org/2000/svg" viewBox="0 0 294.33 102.35"><defs><style>.cls-1{fill:#fff;}.cls-2{fill:#2096d5;}.cls-3{fill:#c3e5f4;}</style></defs><title>alipay</title><path class="cls-1" d="M314.86,120.2c-1.58,3-3.17,6.09-4.76,9.15a21.38,21.38,0,0,0-2.19,4.48,22,22,0,0,0-.11,5v4c0,.47-.08.67-.6.65q-1.5-.07-3,0c-.51,0-.62-.16-.61-.63v-8.11a3.41,3.41,0,0,0-.39-1.63c-2.13-4.1-4.23-8.21-6.34-12.31-.11-.21-.21-.44-.35-.73h4.18c.46,0,.51.31.64.59q2,4.28,4,8.53c.1.22.21.44.38.78l2-4.4c.76-1.65,1.53-3.3,2.26-5a.77.77,0,0,1,.84-.53h4Z" transform="translate(-20.53 -48.91)"/><path class="cls-1" d="M190.2,74.41c-2.74,10.13-8.95,17.66-17.11,23.8.1.3.4.36.62.5a111.34,111.34,0,0,0,19.3,9.15.85.85,0,0,1,.68,1c-.05,1.07,0,2.15,0,3.23,0,.52-.06.67-.65.53a98.82,98.82,0,0,1-18.9-6.56,73.37,73.37,0,0,1-6.65-3.44,1,1,0,0,0-1.14,0,94.25,94.25,0,0,1-25.87,10c-.57.13-.66,0-.64-.53v-3.37a.93.93,0,0,1,.79-1.08A82.46,82.46,0,0,0,158,100.22a27.76,27.76,0,0,0,2.94-1.83,52.33,52.33,0,0,1-14.83-15.82c.1-.26.27-.17.4-.17h8.33a1,1,0,0,1,.89.52,49,49,0,0,0,10.81,10.94c.38.3.53,0,.74-.16a43.16,43.16,0,0,0,7.27-8,27.81,27.81,0,0,0,3.66-6.92.63.63,0,0,1,.09-.35h-34c-.68,0-.9-.17-.84-.85a19.22,19.22,0,0,0,0-2.4c-.05-.63.09-.84.79-.83h15.83c.8,0,.95-.24.92-1-.06-1.52-.06-3,0-4.57,0-.72-.11-1-.91-1H141c-.72,0-.88-.21-.84-.87a17,17,0,0,0,0-2.47c0-.61.17-.74.75-.74h19.13c.76,0,1-.18.93-.94-.06-1.7,0-3.4,0-5.1a1.9,1.9,0,0,1,1.59-2.17,1.82,1.82,0,0,1,.57,0h8.41c.51,0,.61.16.61.64v6.6c0,1,0,1,1,1h19.13c.67,0,.87.15.82.82a21.69,21.69,0,0,0,0,2.55c0,.55-.12.71-.7.71H172.88c-.65,0-.77.18-.76.78v5c0,.53.15.66.67.66h16.58Z" transform="translate(-20.53 -48.91)"/><path class="cls-1" d="M299.39,106.5c-.76-2.57-1.5-5.16-2.3-7.72-.19-.62-.09-.77.55-.76h7.58a1.85,1.85,0,0,1,2.15,1.51.36.36,0,0,1,0,.1l3,10.18c.18.57.15.76-.53.76H259.58c-.52,0-.7-.13-.67-.66,0-.83,0-1.65,0-2.48-.05-.66.12-.88.84-.88h18.39c1,0,1,0,1-1V90.77c0-.62-.14-.79-.77-.78H259.69c-.64,0-.82-.17-.78-.79a20.52,20.52,0,0,0,0-2.48c0-.55.12-.72.69-.71h18.81c.58,0,.7-.16.69-.71V78.85c0-.54-.15-.65-.66-.65H259.68c-.7,0-.84-.2-.81-.84a22.9,22.9,0,0,0,0-2.62c0-.44.14-.6.56-.55a2.41,2.41,0,0,0,.38,0h48.55c.74,0,1,.15.94.93a16,16,0,0,0,0,2.4c.05.6-.18.68-.71.68h-19c-.4,0-.5.12-.5.51v6.75c0,.62.33.53.71.53h18.68c.67,0,.86.15.81.81a20.52,20.52,0,0,0,0,2.48c0,.59-.17.69-.71.69H289.75c-.44,0-.65.06-.65.6V106c0,.3-.06.58.43.58h9.6C299.26,106.58,299.3,106.54,299.39,106.5Z" transform="translate(-20.53 -48.91)"/><path class="cls-1" d="M248.76,89.21V107a3.94,3.94,0,0,1-1.53,3.41,3.6,3.6,0,0,1-2.24.71H233.66c-.42,0-.63,0-.61-.55v-3.08c0-.4.12-.5.51-.49h4a1.63,1.63,0,0,0,1.81-1.43,2.41,2.41,0,0,0,0-.38V70.9c0-.66-.34-.57-.74-.57H217.1c-.74,0-.95-.2-.89-.91a16,16,0,0,0,0-2.4c-.05-.62.19-.73.75-.73h21.46c.79,0,1-.21,1-1V57.11c0-.52.14-.66.66-.65h8.1c.52,0,.68.13.67.66V65.6c0,.51.12.69.65.66h2.7c.35,0,.49.09.48.46V69.8c0,.43-.19.48-.54.47h-2.55c-.6,0-.75.15-.74.74C248.77,77.1,248.76,83.16,248.76,89.21Z" transform="translate(-20.53 -48.91)"/><path class="cls-1" d="M195.06,81.56c.88-2.09,1.73-4.08,2.57-6.07q4-9.36,7.91-18.73a.93.93,0,0,1,1-.69h8.55c.68,0,.79.1.51.75q-3.1,7-6.15,14c-.1.23-.19.45-.32.77h2.53c.58,0,.7.16.7.71V111c0,.68-.19.81-.83.8h-7.42c-.65,0-.83-.13-.82-.8V82.35c0-.63-.11-.85-.8-.83C200.11,81.59,197.66,81.56,195.06,81.56Z" transform="translate(-20.53 -48.91)"/><path class="cls-1" d="M284.17,65h-14c-.59,0-.74.15-.73.73v4.43c0,.49-.08.7-.65.7h-9.3c-.52,0-.62-.18-.62-.65V61.74c0-.59.19-.7.73-.7h18.16c.7,0,.88-.19.86-.87-.06-1.32,0-2.65,0-4,0-.42.05-.62.56-.62h9.91c.42,0,.55.12.55.55v4.13c0,.61.13.79.77.79H306c2.32,0,3.36,1,3.37,3.32v5.85c0,.47-.1.64-.62.64h-9.3c-.56,0-.67-.19-.65-.69V65.79c0-.63-.11-.83-.8-.83C293.43,65,288.8,65,284.17,65Z" transform="translate(-20.53 -48.91)"/><path class="cls-1" d="M219.33,75.77h8c1,0,1.51.75,1.8,1.67q2.33,7.45,4.68,14.9c.22.69.41,1.39.66,2.07.13.37.13.54-.34.54H225.8a.5.5,0,0,1-.58-.41h0q-3-9.35-5.92-18.67C221.66,80.89,219.32,75.83,219.33,75.77Z" transform="translate(-20.53 -48.91)"/><path class="cls-1" d="M180.27,131.76v-11c0-.64.18-.8.79-.76a18.09,18.09,0,0,0,2.55,0c.72,0,1,.12.95.92V139.3c0,.71.16.91.9.9h8.32c.65,0,.82.2.77.81a15.7,15.7,0,0,0,0,1.94c0,.41-.13.51-.52.51h-13.2c-.57,0-.5-.31-.5-.67Z" transform="translate(-20.53 -48.91)"/><path class="cls-1" d="M209.84,131.72V120.78c0-.59.15-.78.74-.74h2.92c.51,0,.63.15.62.63v22c0,.58-.14.78-.74.75a22.58,22.58,0,0,0-2.85,0c-.58,0-.7-.17-.7-.72C209.86,139.07,209.84,135.39,209.84,131.72Z" transform="translate(-20.53 -48.91)"/><path class="cls-1" d="M278.31,142.88q-4.11-11.15-8.21-22.32a.69.69,0,0,0-.81-.53,13.35,13.35,0,0,1-2,0c-.58,0-.81.19-1,.71l-6.5,17.76L258,143.44h3.92c.42,0,.56-.18.67-.52.4-1.21.85-2.4,1.24-3.61a.68.68,0,0,1,.77-.59H272a.69.69,0,0,1,.78.58c.37,1.22.78,2.42,1.19,3.62.08.25.1.52.51.52h4A5.22,5.22,0,0,0,278.31,142.88Zm-7.18-7.1h-6.08l3.25-9.4h.13c1,3,2,5.94,3,8.91C271.55,135.62,271.56,135.78,271.13,135.78Z" transform="translate(-20.53 -48.91)"/><path class="cls-1" d="M166.36,142.86q-4.16-11.18-8.24-22.36a.58.58,0,0,0-.64-.46,19.64,19.64,0,0,1-2.17,0c-.59-.05-.81.2-1,.71-1.71,4.73-3.45,9.45-5.18,14.17L146,143.44c1.33,0,2.57,0,3.86,0,.44,0,.6-.14.73-.54.39-1.2.84-2.39,1.23-3.6a.7.7,0,0,1,.79-.58h7.44a.68.68,0,0,1,.76.59c.36,1.19.79,2.36,1.16,3.55a.69.69,0,0,0,.77.59H166C166.48,143.47,166.53,143.33,166.36,142.86ZM153,135.75l3.35-9.61c1.11,3.31,2.15,6.43,3.21,9.61Z" transform="translate(-20.53 -48.91)"/><path class="cls-1" d="M240.61,120.06h-8.85c-.52,0-.65.13-.65.65v11c0,3.68,0,7.35,0,11,0,.62.19.73.75.73a23.08,23.08,0,0,1,2.63,0c.65,0,.87-.11.87-.83v-7.58c0-.49.13-.61.61-.61h4.8a7.19,7.19,0,0,0-.12-14.38Zm.34,11a4.65,4.65,0,0,1-1.34.11h-3.75c-.43,0-.55-.11-.54-.54,0-1.12,0-2.27,0-3.42v-3.37c0-.44.08-.62.57-.61h4.05a3.73,3.73,0,0,1,3.71,3.6A3.9,3.9,0,0,1,241,131.06Z" transform="translate(-20.53 -48.91)"/><path class="cls-2" d="M108.79,48.91c.79.18,1.59.32,2.36.56,6.61,2,10.62,6.43,11.92,13.26a17.2,17.2,0,0,1,.26,3.2v52.29a.36.36,0,0,1-.25.29,6.76,6.76,0,0,1-2.14-.35c-6.87-1.72-13.6-3.91-20.26-6.29-3.47-1.24-6.91-2.52-10.37-3.78-1.11-.41-1.21-.58-.63-1.62A83.34,83.34,0,0,0,97.05,88.3c.15-.5.28-1,.4-1.52s-.06-.58-.46-.58H78.23a.67.67,0,0,1-.7-.64V79.18a.69.69,0,0,1,.63-.74H101.1c1.17,0,1.17,0,1.17-1.16V75.71c0-.82-.07-.88-.91-.89H78.85c-1.25,0-1.34-.1-1.34-1.32V63.79c0-1.13,0-1.16-1.19-1.16H68.59c-2.15,0-2.65.52-2.65,2.67v7.8c0,1.69,0,1.69-1.65,1.69H41.7c-.62,0-.86.24-.83.84s0,1.4,0,2.1c0,.48.21.7.68.68H64.44c1.46,0,1.49,0,1.5,1.52v4.95c0,1.21-.1,1.31-1.34,1.31H46.15c-.84,0-.9.08-.91.9s0,1.35,0,2a.62.62,0,0,0,.54.69.38.38,0,0,0,.15,0h37.9c1.69,0,1.7,0,1.2,1.62a71.6,71.6,0,0,1-4.83,11.71c-.56,1.08-.74,1.17-1.87.8A155.13,155.13,0,0,0,62.2,99.48a52.46,52.46,0,0,0-14.07-1.43c-5.58.36-10.78,2-14.76,6.13a16.91,16.91,0,0,0-1.53,22.24,19,19,0,0,0,9.6,6.5,29,29,0,0,0,10.22,1.27,35.41,35.41,0,0,0,12.76-3.1A48.83,48.83,0,0,0,81,118.7c.45-.5.9-1,1.34-1.52.65-.75.71-.76,1.59-.37,2.26,1,4.49,2.08,6.75,3.09,4,1.81,8,3.57,12.08,5.33,6.58,2.86,13.2,5.64,19.82,8.43a2.25,2.25,0,0,1,.59.32,1.14,1.14,0,0,1,.19.34A16.43,16.43,0,0,1,118,146.91a15.63,15.63,0,0,1-10.86,4.35H36.53a16.44,16.44,0,0,1-15.71-13.17,19,19,0,0,1-.29-3.28V65A16.42,16.42,0,0,1,33.75,49.19a2.49,2.49,0,0,0,1.2-.28Z" transform="translate(-20.53 -48.91)"/><path class="cls-3" d="M123.33,134.32l-.13-.18a1.78,1.78,0,0,1-.24-1.08v-13.6a1.5,1.5,0,0,1,.24-1.07l.13-.17Z" transform="translate(-20.53 -48.91)"/><path class="cls-1" d="M123.2,118.39v15.75c-4.37-1.84-8.75-3.66-13.11-5.52-8.89-3.78-17.77-7.62-26.5-11.74a.62.62,0,0,0-.87.12l0,.08a52.33,52.33,0,0,1-15,12.7,35.72,35.72,0,0,1-18.21,4.67c-5.12-.13-10-1.25-14.16-4.37-5.09-3.8-7.66-8.93-7-15.28A17.21,17.21,0,0,1,39.2,100a27.55,27.55,0,0,1,13.6-2.07c8.85.69,17.3,3.17,25.69,5.87.8.26,1.11.08,1.47-.63a76.17,76.17,0,0,0,5-12.33c.25-.84.26-.84-.6-.84H46c-1,0-1,0-1-1V86.66c0-.58.14-.77.75-.76H64.88c.72,0,.88-.22.86-.89V79.39c0-.66-.15-.84-.82-.84H41.58c-.74,0-1-.14-1-.93a17.11,17.11,0,0,0,0-2.48c0-.53.15-.67.67-.67H64.89c.62,0,.8-.16.79-.79v-9c0-1.77.57-2.34,2.33-2.35h8.86c.62,0,.74.22.74.78V73.69c0,.63.18.79.8.79H101.6c.71,0,.9.2.85.87s0,1.5,0,2.25c0,1.07.13.94-1,.94H78.33c-.54,0-.74.13-.73.71q.06,2.93,0,5.85c0,.64.21.79.81.78H96.8c1.26,0,1,0,.79,1a82.41,82.41,0,0,1-8,20c-.26.46-.27.65.27.85,7.35,2.64,14.65,5.43,22.13,7.7A101,101,0,0,0,123.2,118.39Z" transform="translate(-20.53 -48.91)"/><path class="cls-2" d="M48.08,127.62A22.23,22.23,0,0,1,39.52,126a13.25,13.25,0,0,1-5.86-4.4,9.62,9.62,0,0,1,.8-12.44c2.17-2.35,5-3.42,8-4.15a30,30,0,0,1,14.23.31c6,1.42,11.58,4,17.12,6.68.35.17.29.29.1.54-5.24,6.57-11.36,11.93-19.68,14.26A23.61,23.61,0,0,1,48.08,127.62Z" transform="translate(-20.53 -48.91)"/><path class="cls-1" d="M219.33,75.77h8c1,0,1.51.75,1.8,1.67q2.33,7.45,4.68,14.9c.22.69.41,1.39.66,2.07.13.37.13.54-.34.54H225.8a.5.5,0,0,1-.58-.41h0q-3-9.35-5.92-18.67C219.33,75.77,219.32,75.83,219.33,75.77Z" transform="translate(-20.53 -48.91)"/></svg>