<svg xmlns="http://www.w3.org/2000/svg" viewBox="0 0 335 200"><defs><style>.a{fill:#3f3a39;}.b{fill:#3e3a39;}.c{fill:#fff;}.d{fill:#2096d5;}.e{fill:#c3e5f4;}</style></defs><title>信用卡支付</title><path class="a" d="M314.86,120.2c-1.58,3-3.17,6.09-4.76,9.15a21.58,21.58,0,0,0-2.19,4.48,22,22,0,0,0-.11,5c0,1.32,0,2.65,0,4,0,.47-.08.67-.6.65q-1.5-.08-3,0c-.51,0-.62-.16-.61-.63,0-2.71,0-5.41,0-8.11a3.41,3.41,0,0,0-.39-1.63c-2.13-4.1-4.23-8.21-6.34-12.31-.11-.21-.21-.44-.35-.73,1.45,0,2.82,0,4.18,0,.46,0,.51.31.64.59q2,4.28,4,8.53c.1.22.21.44.38.78l2-4.4c.76-1.65,1.53-3.3,2.26-5a.77.77,0,0,1,.84-.53c1.32,0,2.65,0,4,0Z"/><path class="b" d="M190.2,74.41c-2.74,10.13-8.95,17.66-17.11,23.8.1.3.4.36.62.5a111.34,111.34,0,0,0,19.3,9.15c.5.19.71.4.68,1-.05,1.07,0,2.15,0,3.23,0,.52-.06.67-.65.53a99.27,99.27,0,0,1-18.9-6.56,73.37,73.37,0,0,1-6.65-3.44,1,1,0,0,0-1.14,0,94.18,94.18,0,0,1-25.87,10c-.57.13-.66,0-.64-.53,0-1.12,0-2.25,0-3.37,0-.63.17-.89.79-1.08A82.07,82.07,0,0,0,158,100.22a28.58,28.58,0,0,0,2.94-1.83,52.27,52.27,0,0,1-14.83-15.82c.1-.26.27-.17.4-.17,2.78,0,5.56,0,8.33,0a1,1,0,0,1,.89.52,49,49,0,0,0,10.81,10.94c.38.3.53,0,.74-.16a43.57,43.57,0,0,0,7.27-8,27.64,27.64,0,0,0,3.66-6.92c0-.09,0-.18.09-.35h-.85q-16.57,0-33.17,0c-.68,0-.9-.17-.84-.85a17.48,17.48,0,0,0,0-2.4c-.05-.63.09-.84.79-.83,5.28,0,10.55,0,15.83,0,.8,0,.95-.24.92-1-.06-1.52-.06-3,0-4.57,0-.72-.11-1-.91-1-6.36,0-12.71,0-19.06,0-.72,0-.88-.21-.84-.87a17,17,0,0,0,0-2.47c0-.61.17-.74.75-.74,6.38,0,12.75,0,19.13,0,.76,0,1-.18.93-.94-.06-1.7,0-3.4,0-5.1a1.9,1.9,0,0,1,2.16-2.17c2.8,0,5.61,0,8.41,0,.51,0,.61.16.61.64,0,2.2,0,4.4,0,6.6,0,1,0,1,1,1,6.38,0,12.76,0,19.13,0,.67,0,.87.15.82.82a19.73,19.73,0,0,0,0,2.55c0,.55-.12.71-.7.71-3.17,0-6.35,0-9.53,0s-6.65,0-10,0c-.65,0-.77.18-.76.78,0,1.68,0,3.36,0,5,0,.53.15.66.67.66,5.53,0,11.06,0,16.58,0Z"/><path class="a" d="M299.39,106.5c-.76-2.57-1.5-5.16-2.3-7.72-.19-.62-.09-.77.55-.76,2.53,0,5.06,0,7.58,0a1.86,1.86,0,0,1,2.17,1.61c1,3.39,2,6.79,3,10.18.18.57.15.76-.53.76q-25.14,0-50.28,0c-.52,0-.7-.13-.67-.66a22.8,22.8,0,0,0,0-2.48c-.05-.66.12-.88.84-.88,6.13,0,12.26,0,18.39,0,1,0,1,0,1-1,0-4.92,0-9.85,0-14.78,0-.62-.14-.79-.77-.78-6.23,0-12.46,0-18.68,0-.64,0-.82-.17-.78-.79a20.53,20.53,0,0,0,0-2.48c0-.55.12-.72.69-.71,2.6,0,5.21,0,7.81,0,3.67,0,7.35,0,11,0,.58,0,.7-.16.69-.71q0-3.22,0-6.45c0-.54-.15-.65-.66-.65-6.26,0-12.51,0-18.76,0-.7,0-.84-.2-.81-.84a25.44,25.44,0,0,0,0-2.62c0-.44.14-.6.56-.55a2.41,2.41,0,0,0,.38,0q24.27,0,48.55,0c.74,0,1,.15.94.93a14.79,14.79,0,0,0,0,2.4c.05.6-.18.68-.71.68-5.73,0-11.46,0-17.19,0-.6,0-1.2,0-1.8,0-.4,0-.5.12-.5.51,0,2.25,0,4.5,0,6.75,0,.62.33.53.71.53,6.22,0,12.45,0,18.68,0,.67,0,.86.15.81.81a18.66,18.66,0,0,0,0,2.48c0,.59-.17.69-.71.69-4.83,0-9.66,0-14.48,0-1.45,0-2.9,0-4.36,0-.44,0-.65.06-.65.6,0,5.12,0,10.25,0,15.38,0,.3-.06.58.43.58,3.2,0,6.4,0,9.6,0C299.26,106.58,299.3,106.54,299.39,106.5Z"/><path class="a" d="M248.76,89.21c0,5.92,0,11.85,0,17.78a3.93,3.93,0,0,1-1.53,3.41,3.58,3.58,0,0,1-2.24.71c-3.78,0-7.55,0-11.33,0-.42,0-.63,0-.61-.55,0-1,0-2,0-3.08,0-.4.12-.5.51-.49,1.32,0,2.65,0,4,0a1.63,1.63,0,0,0,1.81-1.81q0-17.13,0-34.28c0-.66-.34-.57-.74-.57-7.18,0-14.36,0-21.53,0-.74,0-.95-.2-.89-.91a16,16,0,0,0,0-2.4c-.05-.62.19-.73.75-.73,7.15,0,14.3,0,21.46,0,.79,0,1-.21,1-1,0-2.72,0-5.45,0-8.18,0-.52.14-.66.66-.65q4,0,8.1,0c.52,0,.68.13.67.66,0,2.82,0,5.65,0,8.48,0,.51.12.69.65.66.9,0,1.8,0,2.7,0,.35,0,.49.09.48.46,0,1,0,2,0,3.08,0,.43-.19.48-.54.47-.85,0-1.71,0-2.55,0-.6,0-.75.15-.74.74C248.77,77.1,248.76,83.16,248.76,89.21Z"/><path class="b" d="M195.06,81.56c.88-2.09,1.73-4.08,2.57-6.07q4-9.36,7.91-18.73a.93.93,0,0,1,1-.69c2.85,0,5.7,0,8.55,0,.68,0,.79.1.51.75q-3.1,7-6.15,14c-.1.23-.19.45-.32.77.9,0,1.72,0,2.53,0,.58,0,.7.16.7.71,0,4.5,0,9,0,13.5,0,8.41,0,16.81,0,25.21,0,.68-.19.81-.83.8-2.47,0-4.95,0-7.42,0-.65,0-.83-.13-.82-.8,0-9.55,0-19.11,0-28.66,0-.63-.11-.85-.8-.83C200.11,81.59,197.66,81.56,195.06,81.56Z"/><path class="a" d="M284.17,65c-4.65,0-9.3,0-14,0-.59,0-.74.15-.73.73,0,1.48,0,3,0,4.43,0,.49-.08.7-.65.7q-4.65,0-9.3,0c-.52,0-.62-.18-.62-.65,0-2.82,0-5.65,0-8.47,0-.59.19-.7.73-.7,6,0,12.11,0,18.16,0,.7,0,.88-.19.86-.87-.06-1.32,0-2.65,0-4,0-.42.05-.62.56-.62q4.95,0,9.91,0c.42,0,.55.12.55.55,0,1.37,0,2.75,0,4.13,0,.61.13.79.77.79,5.2,0,10.41,0,15.61,0,2.32,0,3.36,1,3.37,3.32,0,2,0,3.9,0,5.85,0,.47-.1.64-.62.64q-4.65,0-9.3,0c-.56,0-.67-.19-.65-.69,0-1.45,0-2.9,0-4.35,0-.63-.11-.83-.8-.83C293.43,65,288.8,65,284.17,65Z"/><path class="a" d="M278.49,143.44c-1.37,0-2.69,0-4,0-.41,0-.43-.27-.51-.52-.41-1.2-.82-2.4-1.19-3.62a.69.69,0,0,0-.79-.58q-3.71,0-7.43,0c-.47,0-.64.17-.77.59-.39,1.21-.84,2.4-1.24,3.61-.11.34-.25.53-.67.52-1.27,0-2.55,0-3.92,0l1.82-4.94q3.25-8.88,6.5-17.76c.19-.52.42-.76,1-.71a13.61,13.61,0,0,0,2,0,.69.69,0,0,1,.81.53q4.1,11.18,8.21,22.32A5.55,5.55,0,0,1,278.49,143.44Z"/><path class="a" d="M146,143.44l3.13-8.52c1.73-4.72,3.47-9.44,5.18-14.17.19-.51.41-.76,1-.71a17.46,17.46,0,0,0,2.17,0c.37,0,.51.12.64.46q4.09,11.19,8.24,22.36c.17.47.12.61-.4.59-1.07,0-2.15,0-3.22,0-.48,0-.64-.19-.77-.59-.37-1.19-.8-2.36-1.16-3.55a.68.68,0,0,0-.78-.59q-3.7,0-7.42,0a.7.7,0,0,0-.79.58c-.39,1.21-.84,2.4-1.23,3.6-.13.4-.29.56-.73.54C148.57,143.42,147.33,143.44,146,143.44Z"/><path class="b" d="M231.11,131.71c0-3.67,0-7.34,0-11,0-.52.13-.66.65-.65,2.95,0,5.9,0,8.85,0a7.19,7.19,0,1,1,.12,14.38c-1.6,0-3.2,0-4.8,0-.48,0-.62.12-.61.61,0,2.53,0,5,0,7.58,0,.72-.22.87-.87.83a21,21,0,0,0-2.63,0c-.56,0-.75-.11-.75-.73C231.13,139.06,231.11,135.39,231.11,131.71Z"/><path class="a" d="M219.33,75.77c2.67,0,5.34,0,8,0,1,0,1.51.75,1.8,1.67q2.33,7.46,4.68,14.9c.22.69.41,1.39.66,2.07.13.37.13.54-.34.54-2.78,0-5.55,0-8.33,0a.5.5,0,0,1-.58-.41q-3-9.35-5.92-18.67S219.32,75.83,219.33,75.77Z"/><path class="a" d="M180.27,131.76c0-3.66,0-7.31,0-11,0-.64.18-.8.79-.76a18.09,18.09,0,0,0,2.55,0c.72,0,1,.12.95.92,0,6.12,0,12.25,0,18.38,0,.71.16.91.9.9,2.77,0,5.55,0,8.32,0,.65,0,.82.2.77.81a15.7,15.7,0,0,0,0,1.94c0,.41-.13.51-.52.51-4.4,0-8.8,0-13.2,0-.57,0-.5-.31-.5-.67Z"/><path class="a" d="M209.84,131.72c0-3.65,0-7.3,0-10.94,0-.59.15-.78.74-.74,1,0,2,0,2.92,0,.51,0,.63.15.62.63,0,2.3,0,4.59,0,6.89,0,5.05,0,10.1,0,15.15,0,.58-.14.78-.74.75a24.63,24.63,0,0,0-2.85,0c-.58,0-.7-.17-.7-.72C209.86,139.07,209.84,135.39,209.84,131.72Z"/><path class="c" d="M268.43,126.37c1,3,2,5.94,3,8.91.12.34.13.5-.3.5-2,0-4,0-6.08,0l3.25-9.4Z"/><path class="c" d="M156.35,126.14c1.11,3.31,2.15,6.43,3.21,9.61H153Z"/><path class="c" d="M235.32,127.21c0-1.12,0-2.25,0-3.37,0-.44.08-.62.57-.61,1.35,0,2.7,0,4.05,0a3.74,3.74,0,0,1,3.71,3.6,3.9,3.9,0,0,1-2.7,4.23,4.65,4.65,0,0,1-1.34.11c-1.25,0-2.5,0-3.75,0-.43,0-.55-.11-.54-.54C235.34,129.51,235.32,128.36,235.32,127.21Z"/><path class="d" d="M108.79,48.91c.79.18,1.59.32,2.36.56,6.61,2,10.62,6.43,11.92,13.26a17.07,17.07,0,0,1,.26,3.2v52.29a.37.37,0,0,1-.25.29,6.76,6.76,0,0,1-2.14-.35c-6.87-1.72-13.6-3.91-20.26-6.29-3.47-1.24-6.91-2.52-10.37-3.78-1.11-.41-1.21-.58-.63-1.62A83.34,83.34,0,0,0,97.05,88.3c.15-.5.28-1,.4-1.52s-.06-.58-.46-.58H78.23a.67.67,0,0,1-.7-.72c0-2.1,0-4.2,0-6.3a.69.69,0,0,1,.76-.74H101.1c1.17,0,1.17,0,1.17-1.16,0-.52,0-1,0-1.57,0-.82-.07-.88-.91-.89-.23,0-.45,0-.68,0H78.85c-1.25,0-1.34-.1-1.34-1.32V63.79c0-1.13,0-1.16-1.19-1.16-2.58,0-5.15,0-7.73,0-2.15,0-2.65.52-2.65,2.67,0,2.6,0,5.2,0,7.8,0,1.69,0,1.69-1.65,1.69H42.38c-.23,0-.46,0-.68,0-.62,0-.86.24-.83.84s0,1.4,0,2.1c0,.48.21.7.68.68H64.44c1.46,0,1.49,0,1.5,1.52,0,1.65,0,3.3,0,4.95,0,1.21-.1,1.31-1.34,1.31-5.92,0-11.85,0-17.78,0h-.67c-.84,0-.9.08-.91.9s0,1.35,0,2a.62.62,0,0,0,.69.69h37.9c1.69,0,1.7,0,1.2,1.62a72.33,72.33,0,0,1-4.83,11.71c-.56,1.08-.74,1.17-1.87.8a155.13,155.13,0,0,0-16.13-4.43,52.14,52.14,0,0,0-14.07-1.43c-5.58.36-10.78,2-14.76,6.13a16.9,16.9,0,0,0-1.53,22.24,19,19,0,0,0,9.6,6.5,29,29,0,0,0,10.22,1.27,35.46,35.46,0,0,0,12.76-3.1A48.87,48.87,0,0,0,81,118.7c.45-.5.9-1,1.34-1.52.65-.75.71-.76,1.59-.37,2.26,1,4.49,2.08,6.75,3.09,4,1.81,8,3.57,12.08,5.33,6.58,2.86,13.2,5.64,19.82,8.43a2.25,2.25,0,0,1,.59.32,1.14,1.14,0,0,1,.19.34A16.43,16.43,0,0,1,118,146.91a15.63,15.63,0,0,1-10.86,4.35q-35.29,0-70.61,0a16.45,16.45,0,0,1-15.71-13.17,19,19,0,0,1-.29-3.28q0-34.92,0-69.86A16.42,16.42,0,0,1,33.75,49.19a2.52,2.52,0,0,0,1.2-.28Z"/><path class="e" d="M123.33,134.32l-.13-.18a1.78,1.78,0,0,1-.24-1.08v-13.6a1.51,1.51,0,0,1,.24-1.07l.13-.17Z"/><path class="c" d="M123.2,118.39v15.75c-4.37-1.84-8.75-3.66-13.11-5.52-8.89-3.78-17.77-7.62-26.5-11.74a.62.62,0,0,0-.92.2,52.31,52.31,0,0,1-15,12.7,35.75,35.75,0,0,1-18.21,4.67c-5.12-.13-10-1.25-14.16-4.37-5.09-3.8-7.66-8.93-7-15.28.72-7,4.45-12,10.9-14.81A27.63,27.63,0,0,1,52.8,97.92c8.85.69,17.3,3.17,25.69,5.87.8.26,1.11.08,1.47-.63a76.26,76.26,0,0,0,5-12.33c.25-.84.26-.84-.6-.84H46c-1,0-1,0-1-1,0-.78,0-1.56,0-2.33,0-.58.14-.77.75-.76,2.5,0,5,0,7.5,0,3.88,0,7.76,0,11.63,0,.72,0,.88-.22.86-.89,0-1.87,0-3.75,0-5.62,0-.66-.15-.84-.82-.84-7.78,0-15.56,0-23.34,0-.74,0-1-.14-1-.93a17.1,17.1,0,0,0,0-2.48c0-.53.15-.67.67-.67,2.73,0,5.46,0,8.18,0,5.15,0,10.31,0,15.46,0,.62,0,.8-.16.79-.79,0-3,0-6,0-9,0-1.77.57-2.34,2.33-2.35,3,0,5.91,0,8.86,0,.62,0,.74.22.74.78,0,3.53,0,7.05,0,10.58,0,.63.18.79.8.79,7.73,0,15.46,0,23.19,0,.71,0,.9.2.85.87s0,1.5,0,2.25c0,1.07.13.94-1,.94-4.63,0-9.26,0-13.89,0-3.07,0-6.15,0-9.23,0-.54,0-.74.13-.73.71q.06,2.92,0,5.85c0,.64.21.79.81.78,6.13,0,12.26,0,18.39,0,1.26,0,1,0,.79,1a82,82,0,0,1-8,20c-.26.46-.27.65.27.85,7.35,2.64,14.65,5.43,22.13,7.7A101.87,101.87,0,0,0,123.2,118.39Z"/><path class="d" d="M48.08,127.62A22.19,22.19,0,0,1,39.52,126a13.3,13.3,0,0,1-5.86-4.4,9.63,9.63,0,0,1,.8-12.44c2.17-2.35,5-3.42,8-4.15a30,30,0,0,1,14.23.31c6,1.42,11.58,4,17.12,6.68.35.17.29.29.1.54-5.24,6.57-11.36,11.93-19.68,14.26A23.48,23.48,0,0,1,48.08,127.62Z"/></svg>