<svg xmlns="http://www.w3.org/2000/svg" xmlns:xlink="http://www.w3.org/1999/xlink" viewBox="0 0 20 20"><defs><style>.cls-1,.cls-5{fill:none;}.cls-2{isolation:isolate;}.cls-3{clip-path:url(#clip-path);}.cls-4{opacity:0.16;mix-blend-mode:soft-light;}.cls-5{stroke:#fff;stroke-miterlimit:10;stroke-dasharray:5;}.cls-6{fill:#fff;}</style><clipPath id="clip-path"><rect class="cls-1" x="-605.56" y="-959.56" width="375.72" height="672.05"/></clipPath></defs><title>新二元</title><g class="cls-2"><g id="圖層_3" data-name="圖層 3"><g class="cls-3"><g class="cls-4"><line class="cls-5" x1="180.4" y1="-669.66" x2="-645.42" y2="162.41"/><line class="cls-5" x1="134.65" y1="-724.92" x2="-679.12" y2="95.01"/><line class="cls-5" x1="75.19" y1="-766.36" x2="-727.4" y2="42.29"/><line class="cls-5" x1="230.7" y1="-618.98" x2="-544.43" y2="162.02"/></g></g></g><g id="圖層_5" data-name="圖層 5"><path class="cls-6" d="M15.94,7.72A1,1,0,0,0,15,7H5a1,1,0,0,0-.62,1.79l5,3.91A1,1,0,0,0,10,13a1,1,0,0,0,.61-.22l5-3.91A1,1,0,0,0,15.94,7.72Z"/></g></g></svg>