<svg xmlns="http://www.w3.org/2000/svg" class="bounceOut" width="450px" height='200px'  x="0" y="0" viewBox="0 0 350 200">
  <style>
  .bounceOut {
      animation: bounceOut 0.75s  forwards;
    }
    @keyframes bounceOut {
  20% {
    transform: scale3d(0.9, 0.9, 0.9);
  }
  50%,55% {
    opacity: 1;
    transform: scale3d(1.1, 1.1, 1.1);
  }
  to {
    opacity: 0;
    transform: scale3d(0.3, 0.3, 0.3);
  }
}
</style>
  <g id="box" fill="#122e8a">
    <path d="M7.54,110.06A1.11,1.11,0,0,1,6.43,109V13.36a1.11,1.11,0,0,1,1.11-1.11l34.71,0c11.48,0,28.38,6.06,28.38,23.9,0,12.85-5,17.51-10.56,21.68,10.56,3.34,18.62,7.78,18.62,25.57,0,14.74-11.39,26.69-29.74,26.69ZM29.77,67.53a1.11,1.11,0,0,0-1.11,1.11V91.16a1.11,1.11,0,0,0,1.11,1.11c22.52,0,26.69-2.22,26.69-12.23S52.29,67.53,29.77,67.53ZM28.66,31.12V48.63a1.11,1.11,0,0,0,1.11,1.11c17.79,0,20.85-3.61,20.85-10S49.23,30,30.05,30h-.28A1.11,1.11,0,0,0,28.66,31.12Zm82,78.94h-20A1.11,1.11,0,0,1,89.53,109V41.68a1.11,1.11,0,0,1,1.11-1.11h20a1.12,1.12,0,0,1,1.12,1.11V109A1.12,1.12,0,0,1,110.65,110.06Zm-10-76.16h-.28C93.3,33.9,88.7,28.55,88.7,22c0-6.76,4.75-11.95,12-11.95s11.8,5.19,11.95,12C112.6,28.55,108,33.9,100.65,33.9Zm46.41,10.3a28.16,28.16,0,0,1,15.85-5c24.12,0,34.18,16.18,34.18,36.13S187,111.45,162.91,111.45a28.24,28.24,0,0,1-15.85-5h0l-5.85,3.46a1.13,1.13,0,0,1-.56.16H125.94a1.11,1.11,0,0,1-1.11-1.11V12.78a1.11,1.11,0,0,1,1.11-1.11h20a1.1,1.1,0,0,1,1.11,1.11Zm0,26.67v9.45a9.65,9.65,0,0,0,.56,3.61c1.46,5.44,6.89,9.73,13.62,9.73,10.19,0,16.4-6.7,16.4-18.35C177.64,65,172.36,57,161.24,57c-6.26,0-12.16,4.15-13.62,10A12.16,12.16,0,0,0,147.06,70.87ZM311.33,58.14l12.23-17.57h23.9L323.28,75.31l24.18,34.75h-23.9L311.33,92.49,299.1,110.06H275.19l24.19-34.75L275.19,40.57H299.1Z"/>
 <g id="b" fill="#ee7730">
    <path d="M241.83,64.24l-2,7.94c2.24.56,9.16,2.85,10.28-1.65C251.3,65.85,244.07,64.8,241.83,64.24Z"/>
    <path d="M238.85,76.19,236.66,85c2.7.67,11,3.34,12.24-1.6C250.19,78.2,241.54,76.86,238.85,76.19Z"/>
    <path d="M241,39.18a36.14,36.14,0,1,0,36.13,36.13A36.13,36.13,0,0,0,241,39.18Zm17,31.43c-.52,3.53-2.48,5.23-5.08,5.83,3.57,1.86,5.39,4.71,3.66,9.65-2.15,6.13-7.25,6.65-14,5.37l-1.65,6.59-4-1,1.62-6.51c-1-.25-2.08-.52-3.17-.82l-1.63,6.54-4-1,1.65-6.61-2.84-.73-5.17-1.29,2-4.55s2.93.78,2.89.72a1.44,1.44,0,0,0,1.82-.95l2.6-10.42.42.1-.41-.13L234.56,64a2.13,2.13,0,0,0-1.86-2.32c.06,0-2.89-.72-2.89-.72l1.06-4.24,5.49,1.37v0l2.54.59,1.63-6.53,4,1-1.6,6.41c1.07.24,2.14.49,3.19.75l1.58-6.36,4,1L250,61.46C255,63.19,258.71,65.78,258,70.61Z"/>
  </g>
  </g>
  </svg>
