<svg xmlns="http://www.w3.org/2000/svg" width="300px" height="300px" x="0" y="0" class="aa" viewBox="0 0 300 289" style="fill:#122e8a">
<g>
<path d="M203.75,70.37,144.7,36.24a20.59,20.59,0,0,1-9.55,5.51V110a20.64,20.64,0,0,1,14.71,25.49l59,34.13a20.6,20.6,0,0,1,9.55-5.52V95.86a20.64,20.64,0,0,1-14.71-25.49Zm25,25.49v68.28a20.62,20.62,0,1,1-19.85,34.41l-59,34.13a20.61,20.61,0,1,1-39.72,0l-59-34.13a20.61,20.61,0,1,1-19.85-34.41V95.86A20.62,20.62,0,1,1,51.09,61.45l59.05-34.13a20.61,20.61,0,1,1,39.72,0l59,34.13a20.61,20.61,0,1,1,19.85,34.41Zm-25,93.77a20.73,20.73,0,0,1,0-11L144.7,144.45a20.62,20.62,0,0,1-29.4,0l-59,34.13a20.73,20.73,0,0,1,0,11l59.05,34.13a20.62,20.62,0,0,1,29.4,0Zm-93.61-54.1A20.64,20.64,0,0,1,124.85,110V41.75a20.59,20.59,0,0,1-9.55-5.51l-59,34.13A20.64,20.64,0,0,1,41.54,95.86v68.28a20.6,20.6,0,0,1,9.55,5.52Z"/>
<animateTransform begin=".75s" dur="1.5s" attributeName="transform" repeatCount="2" type="rotate" values="120,130,130;120,130,130;180,130,130;180,130,130;240,130,130;240,130,130;360,130,130"/>
</g>
</svg>
