<svg xmlns="http://www.w3.org/2000/svg" viewBox="0 0 25 25"><defs><style>.cls-1{fill:#fff;}.cls-2{fill:#ed8f23;}</style></defs><title>新二元</title><g id="圖層_2" data-name="圖層 2"><rect class="cls-1" x="1.19" y="1.19" width="22.63" height="22.63" rx="11.31"/><circle class="cls-2" cx="12.5" cy="12.51" r="9.66"/><path class="cls-1" d="M16.72,10.64A1.7,1.7,0,0,0,16,9.58,4.2,4.2,0,0,0,14.74,9c-.07,0-.09-.06-.07-.13l.39-1.52c0-.08,0-.11-.08-.13L14.11,7C14,6.93,14,7,14,7s-.11.46-.17.69-.14.58-.22.88L13,8.46c-.22-.05-.22-.05-.16-.27.11-.46.22-.91.34-1.37,0-.06,0-.1-.06-.12l-.91-.22c-.06,0-.08,0-.09,0a.24.24,0,0,0,0,.08c-.13.49-.25,1-.37,1.47,0,.07,0,.1-.12.08a1.55,1.55,0,0,0-.23-.06L9.73,7.69c-.13,0-.13,0-.16.09-.08.3-.15.59-.22.89,0,.12,0,.12.09.15s.5.12.75.2a.52.52,0,0,1,.35.66c-.21.85-.42,1.7-.64,2.55-.16.67-.33,1.34-.5,2a.36.36,0,0,1-.45.28l-.69-.17c-.07,0-.11,0-.14.06l-.21.49-.28.64,2.1.53c0,.05,0,.08,0,.12-.13.5-.26,1-.38,1.52,0,.07,0,.11.07.12l.25.07.72.17c.14-.57.29-1.13.43-1.71l.8.21v.05c-.13.52-.26,1.05-.4,1.57,0,.07,0,.1.07.11l.87.22c.08,0,.12,0,.14-.08.08-.36.18-.72.26-1.08.05-.18.1-.36.14-.55l.37.06a4.76,4.76,0,0,0,1.64,0A2.07,2.07,0,0,0,16,16.18a3,3,0,0,0,.58-1.43,1.64,1.64,0,0,0-.32-1.27,2.36,2.36,0,0,0-.69-.57l-.07-.05a1.69,1.69,0,0,0,.77-.42A2,2,0,0,0,16.72,10.64Zm-2.4,4.06a.92.92,0,0,1-.72.66c-.18,0-.37.05-.56.08a6.84,6.84,0,0,1-1.49-.26l-.33-.08c-.06,0-.07,0-.06-.09l.54-2.13s.05-.06.07-.06a8.08,8.08,0,0,1,1.64.48,2.34,2.34,0,0,1,.65.42A.93.93,0,0,1,14.32,14.7Zm.34-3.41A.85.85,0,0,1,14,12,2.19,2.19,0,0,1,13,12c-.35-.06-.69-.14-1-.22,0-.2.09-.38.14-.55.11-.47.23-.94.35-1.41,0-.09,0-.11.14-.09a6.56,6.56,0,0,1,1.17.34,3,3,0,0,1,.57.34A.86.86,0,0,1,14.66,11.29Z"/></g></svg>