<svg xmlns="http://www.w3.org/2000/svg" viewBox="0 0 595 578"><defs><style>.cls-1{fill:#4484bd;}.cls-2{fill:#e47b49;}.cls-3{fill:#fff;}</style></defs><title>二元的會員中心</title><g id="圖層_4" data-name="圖層 4"><rect class="cls-1" x="168.11" width="80.75" height="80.75"/><rect class="cls-1" x="168.11" y="87.37" width="80.75" height="80.75"/><rect class="cls-1" x="168.11" y="174.74" width="80.75" height="80.75"/><rect class="cls-1" x="257.81" width="80.75" height="80.75"/><rect class="cls-2" x="257.81" y="87.37" width="80.75" height="80.75" rx="40.37"/><rect class="cls-1" x="346.14" width="80.75" height="80.75"/><rect class="cls-3" x="301.4" y="385.81" width="14.75" height="99.79"/><polygon class="cls-3" points="387.48 420.05 363.83 470.86 356.9 485.76 341.62 518.59 326.86 518.59 349.07 470.86 324.92 420.05 339.67 420.05 356.38 455.18 372.73 420.05 387.48 420.05"/><polygon class="cls-3" points="289.08 400.56 289.08 385.81 250.45 385.81 244.33 385.81 235.7 385.81 235.7 485.6 250.45 485.6 250.45 440.93 289.08 440.93 289.08 426.17 250.45 426.17 250.45 400.56 289.08 400.56"/><path class="cls-3" d="M225.09,469.39v12.53s-6.6,4.77-18,3.68c-15.59,0-20.59-9.2-20.6-20.59v-33H174.56l11.91-11.75,0,0,14.27-14.09v12.62h20.58v13.26H201.22v29.08l.44,4.53a9.42,9.42,0,0,0,2.37,5.55C206.73,474.1,213.36,476.21,225.09,469.39Z"/><path class="cls-3" d="M117.94,418.64c-7.54-.35-15.32.48-22.25,5.3V385.8H80.93v99.8h35a17.64,17.64,0,0,0,10.86-3.71.05.05,0,0,1,0,0c8.15-4.56,14-16.49,14-30.5C140.75,433.43,128.09,419.12,117.94,418.64Zm9.1,35.57c-.53,10.9-7.86,19.49-15,19.49H95.69V436.33c.89-.61,1.77-1.15,2.62-1.62A28.09,28.09,0,0,1,102,433a20.58,20.58,0,0,1,12-1.39,10.91,10.91,0,0,1,1.61.21c6,1.42,10.8,9,11.45,18.56.06.75.09,1.52.09,2.3C127.08,453.16,127.07,453.68,127,454.21Z"/><rect class="cls-3" x="153.8" y="420.26" width="14.75" height="65.35"/><path class="cls-3" d="M161.64,408.88A7.85,7.85,0,1,0,153.8,401,7.84,7.84,0,0,0,161.64,408.88Z"/><path class="cls-3" d="M423.09,418.66c-16.81,0-30.45,15-30.45,33.48s13.64,33.26,30.45,33.46c3.2,0,8,0,8,0s10.91.89,19.89-6.1l-.15-14a29.17,29.17,0,0,1-3.45,3c-5.24,3.37-13.32,5-17.5,5-3.24,0-7.34.34-13.4-2.24-4.21-1.79-8.95-10.06-8.95-14a16.08,16.08,0,0,1,.34-3.28H453.5c0-.6.05-1.19.05-1.8C453.55,433.64,439.92,418.66,423.09,418.66ZM407.5,446.24a16.1,16.1,0,0,1,32.19,0Z"/><path class="cls-3" d="M500.15,418.66c-9.17,0-16.43,8.79-19.55,13.31V420.05H465.84V485.6H480.6v-42a45.54,45.54,0,0,1,7.44-8.95c9.53-9.18,19.62,3.77,19.62,3.77l6.41-10.8S508.36,418.66,500.15,418.66Z"/></g></svg>