<?xml version="1.0" encoding="utf-8"?>
<!-- Generator: Adobe Illustrator 23.0.3, SVG Export Plug-In . SVG Version: 6.00 Build 0)  -->
<svg version="1.1" id="圖層_1" xmlns="http://www.w3.org/2000/svg" xmlns:xlink="http://www.w3.org/1999/xlink" x="0px" y="0px"
	 viewBox="0 0 3162.6 423" style="enable-background:new 0 0 3162.6 423;" xml:space="preserve">
<style type="text/css">
	.st0{fill:#231815;enable-background:new    ;}
	.st1{opacity:0.95;fill:#291E1B;enable-background:new    ;}
	.st2{opacity:0.95;fill:#5A5B5B;enable-background:new    ;}
	.st3{fill:#494A4A;enable-background:new    ;}
	.st4{opacity:0.95;fill:#2A2B2B;enable-background:new    ;}
	.st5{fill:#323334;enable-background:new    ;}
	.st6{opacity:0.95;fill:#2C2D2D;enable-background:new    ;}
	.st7{fill:#19191A;enable-background:new    ;}
</style>
<title>rgrg</title>
<polygon class="st0" points="1093.8,268.8 1058.8,268.8 1080.5,131.8 1115.5,131.8 "/>
<path class="st0" d="M1305,268.8h35l-29.8-133H1270l-56.5,133h35l6.7-18.4h46L1305,268.8z M1265.8,221.3l18.6-51.1l10.7,51.1
	L1265.8,221.3L1265.8,221.3z"/>
<path class="st0" d="M1029.4,134.5h35.2l-52.8,132.6H976l-30.6-116.5c0,0,19.4,9.1,31.2,26.7c9.8,14.7,16.3,31.4,19.1,48.8
	L1029.4,134.5z"/>
<path class="st0" d="M909,131.8c0,0,56.2,0,56.5,0.1c5.8,0.4,14.6,2.9,17,17.9c2.7,17,5.7,41.5,5.7,41.5S980,152.7,909,131.8z"/>
<path class="st0" d="M1115.5,263.3l4.8-29.1c14.3,7.1,59.2,16.5,58.5-5c-0.5-13.2-22.2-15.9-35.5-27.9c-11.3-10.2-14.1-23.6-13-31.1
	c3.4-22.2,41.4-51.6,87.8-32.9l-1.9,25.9c-13.2-6.3-47.9-9.4-50.1,6.2c-1.7,11.8,21.3,20.8,21.3,20.8c16.3,6.6,29.2,21.1,28,37.2
	C1211.3,278.9,1141.3,274.4,1115.5,263.3z"/>
<rect x="894" y="96.5" class="st0" width="485.1" height="12.1"/>
<rect x="894" y="285.7" class="st0" width="485.1" height="12.1"/>
<path class="st0" d="M951.2,324.9h11.6l1,3.7h0.3c3.7-2.9,8.2-4.5,12.8-4.6c10.9,0,17.8,7.6,17.8,19.3c0,13.1-9.4,20.6-19.2,20.6
	c-3.9,0-7.6-1.4-10.6-3.9l0.4,5.9v10.9h-14.2v-51.9H951.2z M980,343.4c0-6.7-2.3-9.8-7.4-9.8c-2.7,0-4.8,1-7.3,3.2v15
	c2,1.5,4.4,2.2,6.8,2.2C976.5,354,980,351,980,343.4z"/>
<path class="st0" d="M1000.9,352.2c0-8,7.5-12.4,25.4-14c-0.3-3.1-2.2-4.9-6.9-4.9c-3.6,0-7.4,1.2-12,3.3l-5-7.8
	c6.1-3.2,12.8-4.9,19.7-5c11.8,0,18.5,5.5,18.5,17.4v21.6H1029l-1-3.8h-0.3c-3.7,3-8.3,4.6-13.1,4.7
	C1006,363.8,1000.9,358.6,1000.9,352.2z M1026.3,351.5v-6.1c-8.9,1-11.8,3.1-11.8,5.8c0,2.2,1.9,3.3,4.9,3.3
	S1024.2,353.4,1026.3,351.5z"/>
<path class="st0" d="M1050.5,376.7l2.6-9c1,0.2,2,0.4,3,0.5c4.3,0,6.6-1.9,7.6-4.5l0.6-1.9l-17.5-36.9h14.4l6.1,15.8
	c1.4,3.5,2.3,7,3.5,10.7h0.4c0.9-3.6,1.9-7.1,3-10.7l5.3-15.8h13.6l-15.7,38c-4.5,9.7-9.4,14.5-20.2,14.5
	C1055,377.5,1052.7,377.2,1050.5,376.7z"/>
<path class="st0" d="M1095.4,313.2h14.7l3.8,22.6l2.4,15.8h0.3c1.1-5.3,2.3-10.6,3.5-15.8l6.1-22.6h12l6.3,22.6
	c1.2,5.1,2.2,10.4,3.4,15.8h0.4c0.7-5.3,1.5-10.6,2.2-15.8l3.9-22.6h13.6l-10.3,49.7h-18.1l-5.4-21.6c-1-3.8-1.8-7.8-2.3-11.5h-0.4
	c-0.7,3.7-1.4,7.7-2.3,11.5l-5.2,21.6h-17.7L1095.4,313.2z"/>
<path class="st0" d="M1172,352.2c0-8,7.5-12.4,25.4-14c-0.3-3.1-2.2-4.9-6.9-4.9c-3.6,0-7.4,1.2-12,3.3l-5-7.8
	c6.1-3.2,12.8-4.9,19.7-5c11.8,0,18.4,5.5,18.4,17.4v21.6H1200l-1-3.8h-0.3c-3.7,3-8.3,4.6-13.1,4.7
	C1177.1,363.8,1172,358.6,1172,352.2z M1197.4,351.5v-6.1c-8.9,1-11.8,3.1-11.8,5.8c0,2.2,1.9,3.3,4.9,3.3
	S1195.3,353.4,1197.4,351.5z"/>
<path class="st0" d="M1218,324.9h14.4l5.5,17.5c1.1,3.7,2.2,7.7,3.4,11.7h0.4c1-4,2.2-7.9,3.4-11.7l5.6-17.5h13.7l-14.8,38h-16.5
	L1218,324.9z"/>
<path class="st0" d="M1267.9,343.9c0-12.4,10.6-20,21.7-20c13.2,0,19.6,7.9,19.6,18.4c0,1.7-0.2,3.4-0.6,5.1h-26.8
	c1.3,5.2,5.6,7.3,11.4,7.3c3.4,0,6.7-0.9,9.6-2.4l4.7,7.1c-5,2.8-10.6,4.3-16.4,4.3C1278,363.8,1267.9,356.4,1267.9,343.9z
	 M1297,339.6c0-3.8-2-6.6-7.2-6.6c-3.9,0-7.4,2.1-8.3,6.6H1297z"/>
<path class="st0" d="M1832.2,168c0-27.4,12.7-53.3,34.4-70c-38.7-29.9-94.2-22.8-124.1,15.9s-22.8,94.2,15.9,124.1
	c31.9,24.7,76.4,24.7,108.3,0C1844.9,221.3,1832.2,195.4,1832.2,168z"/>
<path class="st0" d="M1920.7,79.5c-19.6,0-38.6,6.5-54.1,18.5c38.7,29.8,45.8,85.4,16,124c-4.6,6-10,11.3-16,16
	c38.7,29.9,94.2,22.8,124.1-15.9s22.8-94.2-15.9-124.1C1959.3,86,1940.3,79.5,1920.7,79.5L1920.7,79.5z"/>
<path class="st0" d="M1623.3,301.6c-8.9-0.2-17.2,4.1-22.2,11.4c-1.4-3.1-3.7-5.8-6.5-7.6c-3.8-2.5-8.2-3.7-12.7-3.7
	c-7.2-0.1-14.2,2.9-19,8.3v-6.9h-10.5v57.2h10.5v-24.5c0-7.2,0.8-12.4,2.4-15.4c1.5-2.8,3.7-5.2,6.5-6.9c2.6-1.6,5.6-2.5,8.7-2.5
	c2.7-0.1,5.4,0.7,7.6,2.2c1.9,1.3,3.4,3.3,4,5.5c0.6,2.4,1,6.5,1,12.2v29.2h10.4v-22.7c0-6.9,0.6-12.1,1.7-15.4s3.3-6.1,6.1-8
	c2.8-2,6.1-3.1,9.5-3.1c2.8-0.1,5.6,0.6,8,2.1c1.9,1.2,3.2,3.1,3.9,5.3c0.8,3.5,1.1,7.1,1,10.7v31.1h10.7V329
	c0-10.9-2.1-18-6.5-21.9C1633.9,303.6,1628.7,301.6,1623.3,301.6z"/>
<path class="st0" d="M1706.8,309.2c-5.2-5.9-12.7-9.3-20.5-9.1c-8-0.1-15.6,3.2-21,9c-5.7,5.7-8.9,13.5-8.8,21.5
	c-0.1,8.1,3,15.9,8.7,21.6c5.5,5.9,13.3,9.2,21.4,9.1c7.4,0,14.2-3.1,20.2-9.2v7.4h9.6v-57.9h-9.6L1706.8,309.2z M1686.8,352.1
	c-5.5,0.1-10.7-2.2-14.4-6.3c-8-8.3-8.1-21.5-0.1-29.9c3.7-4.1,9-6.4,14.5-6.3c5.5-0.1,10.8,2.1,14.5,6.1c3.9,4,6.1,9.4,5.9,15
	c0.2,5.7-2,11.2-6,15.3C1697.5,350,1692.2,352.2,1686.8,352.1L1686.8,352.1z"/>
<path class="st0" d="M1755.1,309.4c5.1,0,10.6,1.7,16.2,5.1l1.5,0.9l10.2-6.6l-1.5-0.9c-8.4-5.2-16.8-7.9-24.9-7.9
	s-14.7,1.5-19.7,4.5s-7.5,6.7-7.5,11c0,4.1,2,8,5.4,10.4c3.4,2.6,8.6,5,15.4,7.1c6.4,2,10.9,3.8,13.6,5.4c2.4,1.4,3.5,3.1,3.5,5.3
	s-1.3,4-4.1,5.6c-3.1,1.7-6.6,2.6-10.2,2.5c-6.1-0.1-11.9-2.1-16.8-5.7l-1.6-1.1l-9.9,6.9l1.1,0.9c3.7,2.8,7.9,4.9,12.4,6.2
	c4.9,1.5,10.1,2.2,15.2,2.2c8,0,14.9-1.7,20.4-5.2s8.3-7.7,8.3-12.7c0-4-1.9-7.4-5.7-10.2c-3.6-2.6-8.9-5.1-15.8-7.4
	c-6.4-2.1-11-4-13.6-5.4c-2.3-1.3-3.4-2.8-3.4-4.6s1-3.3,3.1-4.5C1749.5,309.9,1752.3,309.2,1755.1,309.4z"/>
<path class="st0" d="M1816.3,279.6h-13.7v22.5H1789v9.1h13.6v37c-0.2,8.1,4.7,12.1,7.6,13.1c16.7,5.7,25.4-4.7,25.4-4.7l-1.6-11.4
	c0,0-6.7,4.1-10,4.9c-2.7,0.6-7.7-0.6-7.6-3.5v-35.4h15.6v-9.1h-15.6L1816.3,279.6z"/>
<path class="st0" d="M1903.1,331.5c-0.2-9.9-3-17.9-8.4-23.6c-5.1-5.7-12.4-8.8-20-8.7c-7.8-0.1-15.2,3.4-20.1,9.4
	c-10.8,13-10.8,31.8,0,44.9c5.4,6.2,14.1,7,22.3,7c11.5,0,22.6-8.1,22.6-8.1l-5.5-7.3c-7.4,9.1-28.9,5.9-32.5,1.9
	c-3.3-3.6-5.1-8.1-5.5-14h47.2L1903.1,331.5z M1857.1,323.8c3-9.9,8.8-14.8,17.7-14.8c4.4,0,8.7,1.5,12,4.4
	c3.1,2.7,5.3,6.3,6.1,10.4H1857.1z"/>
<path class="st0" d="M1941.4,299.1c-3.1,0-6.2,0.9-8.8,2.6c-1.6,1.1-3.1,2.4-4.4,3.8v-4.9h-12.5v57.8h12.5v-20
	c0-9.1,0.6-15.4,1.7-18.7c0.9-3,2.6-5.8,4.9-8c1.7-1.8,4-2.8,6.4-2.9c1.1,0,2.2,0.3,3.2,0.8l1.4,0.7l6.5-8.3l-1.6-0.7
	C1947.9,299.9,1944.7,299.2,1941.4,299.1z"/>
<path class="st0" d="M2116.1,299.1c-3.1,0-6.2,0.9-8.8,2.6c-1.6,1.1-3.1,2.4-4.4,3.8v-4.9h-12.5v57.8h12.5v-20
	c0-9.1,0.6-15.4,1.6-18.7c0.9-3,2.6-5.8,4.9-8c1.7-1.8,4-2.8,6.4-2.9c1.1,0,2.2,0.3,3.2,0.8l1.4,0.7l6.5-8.3l-1.6-0.7
	C2122.5,299.9,2119.3,299.2,2116.1,299.1z"/>
<path class="st0" d="M2002.6,341.3c-4.6,6.3-10.2,9.4-17.3,9.4c-5.6,0.1-10.9-2.3-14.5-6.5c-3.8-4.3-5.9-9.9-5.7-15.7
	c-0.2-5.7,1.9-11.2,5.8-15.3c3.7-4,9-6.3,14.4-6.2c7.4,0,13,3.1,17.2,9.4l0.7,1l7.1-5l-0.6-1.1c-2.3-4.3-5.8-7.8-10-10.2
	c-4.3-2.4-9.1-3.7-14.1-3.7c-8.1-0.2-15.9,3.2-21.2,9.3c-5.5,6.1-8.4,14.1-8.3,22.3c-0.2,8.1,2.7,16,8.2,22.1
	c5.1,5.8,12.6,9.1,20.3,9c5,0,9.9-1.2,14.3-3.4c4.4-2.3,8.1-5.7,10.7-10l0.7-1.1l-7.1-5.3L2002.6,341.3z"/>
<path class="st0" d="M2064.5,309.4c-5.2-5.9-12.7-9.2-20.5-9.1c-7.9-0.1-15.5,3.2-21,9c-5.7,5.7-8.9,13.4-8.8,21.4
	c-0.1,8.1,3,15.8,8.7,21.5c5.6,5.9,13.3,9.2,21.4,9c7.5,0,14.2-3.1,20.2-9.2v7.3h9.6v-57.6h-9.6V309.4z M2044.5,352.1
	c-5.5,0.1-10.7-2.2-14.4-6.3c-8-8.3-8.1-21.4-0.1-29.8c3.7-4.1,9-6.4,14.5-6.3c5.5-0.1,10.8,2.1,14.5,6.1c8,8.5,7.9,21.8-0.1,30.2
	C2055.1,350,2049.9,352.2,2044.5,352.1L2044.5,352.1z"/>
<path class="st0" d="M2181.9,308.5c-5.1-6-12.6-9.4-20.4-9.3c-7.9-0.1-15.5,3.2-20.9,9.1c-5.7,5.8-8.8,13.7-8.7,21.9
	c-0.1,8.2,3,16,8.6,21.9c5.4,6,13.2,9.3,21.3,9.2c7.4,0,14.2-3.1,20.1-9.4v7.5h9.5V279h-9.5L2181.9,308.5z M2161.8,352
	c-5.5,0-10.1-2.1-14.1-6.5c-3.9-4.1-6.1-9.5-6-15.2c-0.1-5.6,2-11,5.9-15.1c7.4-8,20-8.6,28-1.1c0.3,0.3,0.7,0.6,1,1
	c3.9,4.2,5.9,9.7,5.8,15.3c0.2,5.8-2,11.4-6.2,15.4C2172.4,349.8,2167.2,352,2161.8,352z"/>
<circle class="st1" cx="2208" cy="356.7" r="4.6"/>
<path class="st0" d="M137.5,245.7c-5.8,9.3-9.4,19.7-10.7,30.6L83,329.9l43.7-38.1c0.4,4.5,1.1,8.9,2.3,13.2l-24.5,34.8l28.1-24.5
	c2.5,5.5,5.6,10.7,9.3,15.5l-20.3,24.6l23.6-20.6c3,3.4,6.4,6.5,9.9,9.3l-10,16.8l13.7-14.1c6.3,4.3,13.1,7.6,20.4,9.8L137.5,245.7z
	"/>
<path class="st0" d="M216.4,242.1l-7.1,23.2h-24l-1.1,7.9h22.6l-7.4,24h-6l7.4,22.4l29.3-77.5h32.5c-23.7-33.9-70.4-42.1-104.3-18.4
	c-7.2,5-13.4,11.2-18.4,18.4H216.4z"/>
<path class="st0" d="M266.1,247.5l-44.6,109.7c39.8-11.2,63.1-52.6,51.9-92.4C271.7,258.7,269.2,252.9,266.1,247.5L266.1,247.5z"/>
<polygon class="st0" points="382,237.7 354.2,313.6 322.2,237.7 300.7,237.7 342.4,353.2 351.8,353.2 364.7,353.2 401.5,237.7 "/>
<polygon class="st0" points="478.5,254.6 478.5,236.1 446.4,236.1 435.2,236.1 424.1,236.1 424.1,350.4 446.4,350.4 446.4,298.5 
	478.5,298.5 478.5,280.3 446.4,280.3 446.4,254.6 "/>
<path class="st0" d="M486.5,330.3l14.3-10.5c7.8,7.6,10.6,11.1,19.5,11.1c9.6,0,14.1-5.6,14.1-13.1c0-9.2-9.5-13.3-18.8-17.8
	c-11.5-5.4-24.6-13.7-24.6-32c0-19.1,12.3-32.8,31.9-32.8c16.2,0,23.8,10.7,31,17.6L538.5,263c-6.1-5.6-8.4-8.5-15.2-8.5
	c-8.8,0-12.8,3.1-12.8,10c0,8.7,8.7,14.2,18.2,18.6c11.8,5.5,25.1,12.7,25.1,33.2c0,18.9-8.8,31.3-30.7,34.2
	C507.9,352.5,495.3,342.7,486.5,330.3z"/>
<path class="st0" d="M669.6,314.4c-11.8,20-37.6,26.5-57.5,14.7c-20-11.8-26.5-37.6-14.7-57.5s37.6-26.5,57.5-14.7
	c5.8,3.5,10.8,8.3,14.3,14.1c5.5-4.3,11-8.7,14.9-11.7c-10.9-16.8-29.5-27-49.5-27c-32.9,0-59.5,27.2-59.5,60.7s26.7,60.7,59.5,60.7
	c19.7,0,38-9.8,49-26.1L669.6,314.4z"/>
<path class="st0" d="M164.1,157.9h-23.8l0.7-2.9c6.6-0.6,7.4-1.1,9-7.9l5-21.5c1.6-6.8,1.2-7.1-4.6-7.9l0.6-2.6
	c5.3-0.8,10.5-2.2,15.4-4.2l-2.6,11.4c4.9-5.4,10.5-11.1,15.7-11.1c3.8,0,5.4,2.4,4.9,5c-0.8,2.5-2.5,4.5-4.8,5.7
	c-1.2,0.6-2,0.5-2.6-0.2c-1.2-1.6-2.2-2.6-4.1-2.6c-2.2,0-6.7,3.2-10.2,8.5l-4.5,19.4c-1.6,6.8-1.2,7.3,6.6,8L164.1,157.9z"/>
<path class="st0" d="M217.8,149.1c-8.5,8.3-16.2,10-19.5,10c-12.6,0-17.9-10.3-15.1-22.2c1.6-7,5.5-13.4,10.9-18.1
	c5.5-4.9,11.8-7.6,17.1-7.6c9,0,14,7.8,12.1,16c-0.6,2.1-1.1,3-2.9,3.4c-2.2,0.4-15.6,1.4-28,1.8c-3.5,13.9,3.6,19.5,11,19.5
	c4.2,0,8.6-1.8,13.2-5.3L217.8,149.1z M207.8,115.2c-4.8,0-10.4,4.4-13.8,12.8c5.8,0,11.6,0,17.8-0.3c1.9,0,2.6-0.5,3-2.1
	C216.1,120.2,213.6,115.2,207.8,115.2L207.8,115.2z"/>
<path class="st0" d="M241,142.8c-2.9,2-4.3,3.9-4.6,5.2c-0.4,1.9,0.9,3.9,5.5,3.9c3.8,0,8.2-0.1,11.6-0.1c6.6,0,14.6,2.2,12.2,12.4
	c-2.5,10.8-17.6,20.9-31.3,20.9c-11.7,0-16.4-6.8-15.2-12.9c0.6-2.4,2-4.4,3.9-5.9c2.6-2.2,7.4-5.6,10.2-7.4
	c-2.9-0.8-5.3-2.8-6.5-5.6c-0.5-1.4-0.5-3-0.2-4.4c4.2-1.5,8-4,11.2-7.1L241,142.8z M244.6,159.1c-5.1,0-7.5,0.6-9.7,2.2
	c-3.4,2.4-6.2,5.5-6.9,8.5c-1.3,5.7,3.6,9.9,11.6,9.9c9.8,0,16.6-5.1,18.1-11.7c0.8-3.5-0.2-6.3-2.8-7.6
	C252.4,159.4,248.9,159.1,244.6,159.1L244.6,159.1z M245.7,143.8c-9.6,0-16.2-5.9-14-15.6c2.7-11.8,14.5-17.3,22.6-17.3
	c3.3,0,6.5,0.9,9.3,2.6c4.8-0.1,9.5-0.6,14.2-1.5l0.4,0.9c-1,1.7-3.3,4.5-5.1,5.5c-1.5,0-4.9-0.4-6.3-0.5c1.4,2.9,1.7,6.3,0.8,9.4
	C265.1,138.6,254.6,143.8,245.7,143.8L245.7,143.8z M252.6,114.3c-4.6,0-9.8,4.2-11.6,12.4s0.9,13.9,6.6,13.9
	c4.6-0.2,9.5-4,11.4-12.4C260.8,120.1,258.3,114.3,252.6,114.3L252.6,114.3z"/>
<path class="st0" d="M321.6,155.5c-5.6,0.9-11.2,2.1-16.7,3.6c0.4-1.7,1.2-5.4,1.8-8c-6.7,4.7-12,8-17.7,8c-6.9,0-12-4.2-9.3-15.5
	l4.6-20.1c1.3-5.6,0.6-6.2-1.9-6.7l-2.8-0.5l0.6-2.7c4.5-0.2,11.6-1.2,15.2-1.9c-1.1,3.3-2.2,8.3-3.8,15.1l-3.2,14.1
	c-2.1,9.1,2,11.7,6.7,11.7c3.8,0,8-1.6,12.3-5l5.6-24.1c1.3-5.6,0.2-6.3-3.2-6.8l-3.2-0.4l0.6-2.7c5.6-0.3,11.1-1,16.6-1.9l-8,34.6
	c-1.2,5.2-0.5,5.9,3.3,6.1l2.9,0.1L321.6,155.5z"/>
<path class="st0" d="M324.6,157.9l0.7-2.9c6.8-0.6,7.7-1.1,9.3-8L346,97.5c1.5-6.3,1.1-6.9-5.4-7.8l0.6-2.7
	c5.5-0.6,10.9-1.8,16.1-3.5L354,98.2L342.7,147c-1.6,6.8-1.1,7.3,5.5,8l-0.7,2.9H324.6z"/>
<path class="st0" d="M385.5,159.1c-1.7,0-3.3-0.7-4.4-2c-1-1.4-1.5-3-1.4-4.6c-4.8,2.8-10.7,6.6-13.9,6.6c-7.3,0-11.2-6.1-9.7-12.7
	c1.2-5.1,4.7-8.4,10.9-10.3c6.8-2.2,15.2-4.9,17.9-6.7l0.5-2.1c1.7-7.3-1-11.6-6.4-11.6c-2,0-4,0.9-5.4,2.4
	c-1.5,1.4-2.7,3.7-4.4,6.7c-0.6,1.4-2,2.4-3.5,2.4c-2.1-0.1-3.7-1.9-3.6-3.9c0-0.2,0-0.4,0.1-0.6c0.3-1.4,2-2.7,4.4-4.1
	c3.5-2.2,10.4-6,16.6-7.2c2.9-0.1,5.8,0.9,8,2.8c2.9,3.1,3.8,6.6,2.5,12l-4.6,20c-1.1,4.8,0.3,6.2,2.2,6.2c1.4-0.1,2.8-0.5,4-1.1
	l0.4,2.9L385.5,159.1z M384,133c-2.5,1.1-8,3.3-10.6,4.3c-4.3,1.8-7.2,3.7-8,7.6c-1.3,5.5,2.3,8,5.6,8c2.7,0,6.8-1.7,9.3-3.7
	C381.4,144.3,382.8,137.9,384,133z"/>
<path class="st0" d="M418.1,157.8c-1.5,0.8-3.1,1.2-4.8,1.4c-6.6,0-9.2-4-7.3-12.3l6.9-30.1h-7.1l-0.1-1.2l3.5-3h4.8l2-8.7
	c2.4-2.1,6.1-4.8,8.5-6.8l1.5,0.2c-1.2,4.3-2.7,10.3-3.9,15.3H434c0.7,1-0.1,3.3-1.6,4.2h-11.2l-6.1,26.5c-1.9,8.4,1,9.9,3.7,9.9
	c2.3-0.1,4.6-0.7,6.7-1.7l0.3,2.7L418.1,157.8z"/>
<path class="st0" d="M467.5,149.1c-8.5,8.3-16.2,10-19.5,10c-12.6,0-17.9-10.3-15.1-22.2c1.7-7,5.5-13.4,10.9-18.1
	c5.5-4.9,11.8-7.6,17.1-7.6c9,0,14,7.8,12.1,16c-0.6,2.1-1.1,3-2.9,3.4c-2.2,0.4-15.6,1.4-28,1.8c-3.5,13.9,3.7,19.5,11,19.5
	c4.2,0,8.6-1.8,13.2-5.3L467.5,149.1z M457.5,115.2c-4.8,0-10.4,4.4-13.8,12.8c5.8,0,11.6,0,17.8-0.3c1.9,0,2.6-0.5,3-2.1
	C465.8,120.2,463.3,115.2,457.5,115.2L457.5,115.2z"/>
<path class="st0" d="M524.1,155.3c-5.7,0.9-11.4,2.2-16.9,3.8c0.5-2.2,1-4.6,1.5-6.7c-2.1,1.1-5.1,2.6-7.3,3.7c-4.7,2.4-7.6,3-8.9,3
	c-8.3,0-17.3-8.3-14-22.8s18.4-25.1,32.6-25.1c2.3,0,4.6,0.3,6.8,1.1l3.5-15.2c1.5-6.6,0.8-6.8-6.3-7.4l0.6-2.7
	c5.7-0.8,11.4-1.9,17-3.5c-0.9,3.8-1.9,8.4-2.9,12.6l-11.5,49.7c-1.2,5.4-0.7,6.1,3.1,6.3l3.3,0.2L524.1,155.3z M516.1,120.6
	c-1.5-3.6-5.6-5.3-9.6-5.3c-5,0-14.5,3.3-18,18.2c-2.9,12.5,3.3,19.1,9.9,19.2c3.7,0,8.2-1.9,11.1-3.7L516.1,120.6z"/>
<path class="st0" d="M584.5,112.3c1.5-0.6,3.1-1,4.8-1c11.1,0,18.2,9.6,15.3,21.9c-3.2,14-18,26.1-31.5,26c-5.2,0-10.4-1.3-15.1-3.7
	c0.6-2.7,1.3-5.5,1.9-8.3l11.5-49.8c1.5-6.4,1.3-7-5.2-7.6l0.6-2.7c5.4-0.7,10.7-1.9,15.9-3.5c-0.9,4-1.9,8.2-2.8,12.3l-4.6,20.1
	L584.5,112.3z M568.4,145.9c-0.4,1.2-0.5,2.4-0.3,3.6c0.6,2.6,4,5.6,8.9,5.6c8.9,0,15.1-7.6,17.8-19.3s-2.8-18.7-11.4-18.7
	c-3,0.1-6,0.8-8.8,2L568.4,145.9z"/>
<path class="st0" d="M662,115.3c-5.6,0.8-6.9,1.7-10.8,7.6c-3.9,5.9-8.3,12.8-19.6,30.8c-10.5,16.5-13.9,23-16.8,28.3
	c-1.1,2.2-2.4,2.7-3.7,2.7c-3.3,0-5.8-2.4-5.2-5c0.3-1.3,1.2-2.3,3.1-3.6c3.9-2.6,6.9-5.1,8.7-7.6c3.2-4.3,5.6-8,6.4-9.3
	c0.7-1.3,1-2.8,0.8-4.2c-1.3-11.8-4-24.5-5.3-32c-1-5.7-1.6-6.9-7.1-7.7l0.6-2.8H634l-0.6,2.8c-4.9,0.7-5.7,1.8-5.2,5.6l4.2,25.4
	c4.5-7.1,11.3-18.6,15-25.1c2.2-3.9,1.7-5.1-4.1-5.9l0.7-2.8h18.9L662,115.3z"/>
<path class="st2" d="M2718.3,250c0,0,5.1-3.5,9.5-4.2c4.5-0.5,9-0.7,13.6-0.7l1.2-4.8H2721L2718.3,250z"/>
<polygon class="st2" points="2715.7,258.8 2737.2,258.8 2738,254.5 2716.4,254.8 "/>
<polygon class="st2" points="2771.7,288 2783.1,288 2786.4,277.2 2775.2,277.3 "/>
<path class="st2" d="M2819.5,203.7c7.5,0,9.4-13.6,9.2-17.9c-0.1-3.2-1.6-6-3.7-6c-3.2,0-5.5,2.2-6.7,5.2
	C2815.4,192.1,2813.2,203.7,2819.5,203.7z"/>
<path class="st2" d="M2792.2,160.9c2.5-12.5-16.7-10.8-16.7-10.8l-4.9,24.3l10.9-0.7C2786.3,173.8,2790.9,167.1,2792.2,160.9z"/>
<path class="st2" d="M2668,202.9c5.7,0,6.5-4.3,8.5-11.7s1.2-11.8-2.1-11.8c-5.8,0-6.6,4.5-8.5,11.8S2665.2,202.9,2668,202.9z"/>
<path class="st3" d="M2912,64.7h-359c-24,0-37.5,15.8-42.5,38.1l-57,232.6c-2.9,12.8,5.2,25.5,18,28.4c1.7,0.4,3.5,0.6,5.2,0.6h359
	c22.8,0,38.9-15.8,43.8-38.1l55.7-232.6c2.9-12.8-5.2-25.5-18-28.4C2915.5,64.9,2913.8,64.7,2912,64.7z M2831,174.9l0.4-1.5
	c0.1-0.4,0.5-0.8,0.9-0.8l14.9-2.2c0.6-0.1,1.2,0.3,1.3,1c0,0.1,0,0.3,0,0.4l-8.3,39.7c-0.1,0.5-0.6,0.9-1.1,0.9l-15,0.2
	c-0.6,0-1.1-0.5-1.1-1.1c0-0.1,0-0.2,0-0.2l0.3-1.6c-3.3,2.6-4.1,3.5-8.4,3.5s-8.8-0.5-11.7-3.6s-3.6-6.5-3.6-10.7
	s2.2-12.8,5.2-17.1s7.3-9.6,14.1-10.9C2825.4,169.5,2828.1,170.8,2831,174.9z M2760,139.9c3.2,0.2,29.2-0.8,29.2-0.8
	c13.9,0,25.5,6.7,21.3,21.9c-4.3,15.6-15.8,25-29.4,25l-12.9,0.2c0,0-5.9,21.9-6.6,25.6h-18.2C2744.9,208,2759.3,144,2760,139.9
	L2760,139.9z M2702.1,171.8l17.1-2.8c0,0-0.4,4.4-0.6,4.9c5.1-4,7.7-4.4,12.5-4.9c4.6-0.4,8,1.9,8.9,4.9c0.8,2.7,0.7,5.8-0.5,11.1
	c0,0-4.4,24-4.7,26.8h-16.4c1.1-3.2,5.8-26.3,5.7-27.5c-0.4-3.3-4.1-4-7.7-1.3c0,0-5.7,25.4-6.1,28.9h-15.8
	C2695.7,208.6,2701.9,174.4,2702.1,171.8L2702.1,171.8z M2703.4,235l-2.9,9.4l-21.7,0.4c0,0-4.9,3.7-7.6,4.3
	c-3.7,0.5-7.4,0.6-11.1,0.3c0,0,1.7-4.9,2.9-9c9.5,2.2,11.4-11.2,11.4-11.2h16l-3.2,5.7L2703.4,235z M2536,212.3
	c-9.7,0-19.6-2.4-23.2-7.7s-2.4-13.2-0.4-22.8c0,0,8.4-35.9,9.6-41.9h20.6c-1.1,3.1-11.1,41.8-11.1,41.8
	c-2.2,10.7-1.7,18.2,7.4,18.2c9.4,0,14.2-7,16.4-17.7c0,0,8.4-38.5,8.8-42.3h16.8c-0.6,5.4-10.1,42.4-10.1,42.4
	C2566.8,201.7,2554.8,212.3,2536,212.3z M2619.6,184.9c0,0-4.4,24-4.7,26.8h-16.4c1.1-3.2,5.8-26.3,5.7-27.5c-0.4-3.3-4.1-4-7.7-1.3
	c0,0-5.7,25.4-6.1,28.9h-15.7c1.1-3.1,7.4-37.3,7.6-39.9l17.1-2.8c0,0-0.4,4.4-0.6,4.9c5.1-4,7.7-4.4,12.5-4.9
	c4.6-0.4,7.9,1.9,8.9,4.9C2621,176.6,2620.9,179.6,2619.6,184.9L2619.6,184.9z M2638.7,211.7h-16.9c1.4-2.7,6.6-28.6,7-31.1
	l17.6-2.8C2645.2,180.1,2639.1,209.3,2638.7,211.7L2638.7,211.7z M2639.9,176.7c-5.2,1-9.9-0.6-10.5-3.6s3.2-6.2,8.4-7.2
	s9.9,0.6,10.5,3.6S2645.1,175.7,2639.9,176.7L2639.9,176.7z M2649.5,191.1c3.6-13.3,12.7-21.7,27.4-21.7c13.2,0,19.2,8.4,15.8,21.6
	c-4.1,15.7-14.6,22-27.6,22S2646,204.5,2649.5,191.1L2649.5,191.1z M2683.1,300.7c0,0-22.1,2.2-24.9-2.5c-1.8-3,0.4-6.4,1-9.8
	c0.8-3.6,1.9-7.1,3.4-10.5l-8.9-0.2l3.1-9.1l8.6-0.2l2.5-7.8h-8.6l2.8-9.3h38l-2.9,9.3h-15l-2.4,7.8l15.1-0.2l-2.6,9.3l-15.6,0.2
	c0,0-5,13.1-2.9,13.7c2.3,0.7,12.1-0.7,12.1-0.7L2683.1,300.7z M2744.7,280.4c-2.6,2.3-13.8,2.2-13.8,2.2s-1.2,8.2-0.1,8.6
	c2,0.5,4.1,0.6,6.2,0.3c2.6-0.2,4.6-0.3,4.6-0.3l-2.6,9.5h-16.3c-1.3-0.1-2.6-0.6-3.7-1.3c-0.7-0.8-1.1-1.8-1.1-2.8l0.4-26.8h12.8
	l0.2,5.4c0,0,4.6,0,5.4-0.7c1.4-1.2,1.9-5.2,1.9-5.2h10.2C2748.8,269.3,2747.7,277.7,2744.7,280.4L2744.7,280.4z M2739.1,267.2
	h-26.2l-6.7,23.8l11.4-0.4l-3.1,10.6l-19.8-0.5c-2.4,0-4.4-2-4.4-4.4c0-0.4,0.1-0.9,0.2-1.3l19.5-65h13.4l-1.6,6.2
	c0,0,5.3-4.2,10.8-5.2c8.5-1.6,27-0.9,27-0.9l-8.6,28.5C2749.3,263.8,2744.5,267.3,2739.1,267.2L2739.1,267.2z M2792.2,301.8h-13.4
	l0.6-4l-27.3-0.3l2.3-8.6l3.1,0.1l17-59.2h14.7l-1.3,5c0,0,4.4-3.3,8-3.9c7.9-1.3,36.6-1.1,36.6-1.1l0.1,5.6c0,0.7,0.5,1.2,1.1,1.3
	l4.6,0.4l-3,9.3c0,0-13,1.1-16.4-1.8c-2.4-2-1.4-9.9-1.4-9.9l-1.7,5.1h-4.6l-14.8,48.2l3.9-0.1l-3.1,9.8h-3.8L2792.2,301.8z
	 M2855.3,258.2h-14.8l-2.7,7.5h15l-2.8,8.6l-16.2-0.1l-2.6,3h6.5c0,0,0.9,10.3,1.9,12.8c0.5,1.2,5.8,0.5,5.8,0.5l-3.4,10.3
	c0,0-9.5,0.6-12.8-2.1c-3-2.4-3.9-13.1-3.9-13.1s-7.8,12.6-11.9,14.5s-16.9,1.2-16.9,1.2l3.1-9.3c0,0,5.6,0.4,7.6-1.4
	c3-2.8,11.9-16.3,11.9-16.3l-14.2-0.1l2.5-8.4h16.5l2.2-7.5h-16.5l3-9.3h45.2L2855.3,258.2z M2897.6,170.9
	c-6.1,12.2-39,69.6-39,69.6c-5.4,8.6-14.9,5.6-20,5.7l2.5-9.4c4.5,0.9,5.2,1.1,14.5-16.3l4.6-8c0,0-3.4-32.5-4.6-39.2
	c-0.1-0.6,0.3-1.2,0.9-1.3l14-2.8c0.6-0.1,1.2,0.3,1.3,0.9v0.1c0.3,5.2,0.5,20.8,0.5,20.8s8.4-14.1,9.6-18.4
	c0.1-0.4,0.5-0.7,0.9-0.8l13.5-2.5c0.6-0.1,1.2,0.3,1.3,0.9C2897.8,170.4,2897.8,170.7,2897.6,170.9L2897.6,170.9z"/>
<path class="st2" d="M2786.6,239.8l-3.8,12.1c0,0,4.7-1.9,6.2-2.3c1.9-0.3,3.9-0.6,5.8-0.7l2.8-9L2786.6,239.8z"/>
<path class="st2" d="M2777.3,270.7c0,0,5.2-2.2,7.3-2.8c0.8-0.3,4.5-0.9,4.5-0.9l3-8.7h-11.4L2777.3,270.7z"/>
<path class="st4" d="M2718.1,249.9c0,0,5.1-3.5,9.5-4.2c4.5-0.5,9-0.7,13.6-0.7l1.1-4.8h-21.6L2718.1,249.9z"/>
<path class="st4" d="M2819.3,203.6c7.5,0,9.4-13.6,9.2-17.9c-0.1-3.2-1.6-6-3.7-6c-3.2,0-5.5,2.2-6.7,5.2
	C2815.2,192,2813,203.6,2819.3,203.6z"/>
<polygon class="st4" points="2715.5,258.6 2737,258.6 2737.8,254.4 2716.2,254.7 "/>
<path class="st4" d="M2792,160.8c2.5-12.5-16.7-10.8-16.7-10.8l-4.9,24.3l10.9-0.7C2786.1,173.7,2790.7,167,2792,160.8z"/>
<path class="st4" d="M2667.8,202.8c5.7,0,6.5-4.3,8.5-11.7s1.2-11.8-2.1-11.8c-5.8,0-6.6,4.5-8.6,11.8S2665,202.8,2667.8,202.8z"/>
<path class="st4" d="M2786.4,239.7l-3.8,12.1c0,0,4.7-2,6.2-2.4c1.9-0.3,3.9-0.6,5.8-0.7l2.8-9L2786.4,239.7z"/>
<polygon class="st4" points="2771.5,287.9 2782.9,287.9 2786.2,277.1 2775,277.2 "/>
<path class="st4" d="M2777.1,270.6c0,0,5.2-2.2,7.3-2.8c0.8-0.3,4.5-0.9,4.5-0.9l3.1-8.7h-11.4L2777.1,270.6z"/>
<path class="st5" d="M2913.5,64.7h-249.8c-24,0-37.5,15.8-42.5,38.1l-16.5,67.3c2.1-0.7,4.2-1.1,6.4-1.2c4.6-0.4,8,1.9,8.9,4.9
	c0.8,2.7,0.7,5.8-0.5,11.1c0,0-4.4,24-4.7,26.8h-16.4c1.1-3.2,5.8-26.3,5.7-27.5s-0.9-2.3-2.1-2.7l-37.7,154
	c-2.9,12.8,5.2,25.5,18,28.4c1.7,0.4,3.5,0.6,5.2,0.6h249.8c22.8,0,38.9-15.8,43.8-38.1l55.7-232.6c2.9-12.8-5.2-25.5-18-28.4
	C2917,64.9,2915.3,64.7,2913.5,64.7z M2830.8,174.8l0.4-1.5c0.1-0.4,0.5-0.8,0.9-0.8l14.9-2.2c0.6-0.1,1.2,0.3,1.3,1
	c0,0.1,0,0.3,0,0.4l-8.3,39.7c-0.1,0.5-0.6,0.9-1.1,0.9l-15,0.2c-0.6,0-1.1-0.5-1.1-1.1c0-0.1,0-0.2,0-0.2l0.3-1.6
	c-3.3,2.6-4.1,3.4-8.4,3.4s-8.8-0.5-11.7-3.6s-3.6-6.5-3.6-10.7s2.3-12.8,5.2-17.1s7.3-9.6,14.1-10.9
	C2825.2,169.4,2827.9,170.7,2830.8,174.8z M2759.9,139.8c3.2,0.2,29.2-0.8,29.2-0.8c13.8,0,25.5,6.7,21.3,21.9
	c-4.3,15.6-15.8,25-29.4,25l-12.9,0.2c0,0-5.9,21.9-6.6,25.6h-18.3C2744.7,207.9,2759.1,143.9,2759.9,139.8L2759.9,139.8z
	 M2701.9,171.6l17.1-2.8c0,0-0.4,4.4-0.6,4.9c5.1-4,7.7-4.4,12.5-4.9c4.6-0.4,7.9,1.9,8.9,4.9c0.8,2.7,0.7,5.8-0.5,11.1
	c0,0-4.4,24-4.7,26.8h-16.4c1.1-3.2,5.8-26.3,5.7-27.5c-0.4-3.3-4.1-4-7.7-1.3c0,0-5.7,25.4-6.1,28.9h-15.7
	C2695.5,208.5,2701.7,174.3,2701.9,171.6L2701.9,171.6z M2703.2,234.9l-2.9,9.4l-21.7,0.4c0,0-4.9,3.7-7.6,4.2
	c-3.7,0.5-7.4,0.6-11.1,0.3c0,0,1.7-4.9,2.9-9c9.5,2.2,11.4-11.2,11.4-11.2h16l-3.2,5.7L2703.2,234.9z M2638.5,211.5h-16.9
	c1.4-2.7,6.6-28.6,7-31.1l17.6-2.8C2645,180,2638.9,209.2,2638.5,211.5L2638.5,211.5z M2639.7,176.5c-5.2,1-9.9-0.6-10.5-3.6
	s3.2-6.2,8.4-7.2s9.9,0.6,10.5,3.6S2645,175.6,2639.7,176.5L2639.7,176.5z M2649.4,191c3.6-13.3,12.7-21.7,27.4-21.7
	c13.2,0,19.1,8.4,15.7,21.6c-4.1,15.7-14.6,22-27.6,22S2645.8,204.4,2649.4,191L2649.4,191z M2683,300.6c0,0-22.1,2.2-24.9-2.5
	c-1.8-3,0.4-6.4,1-9.8c0.8-3.6,1.9-7.1,3.4-10.5l-8.9-0.2l3-9.1l8.6-0.2l2.5-7.8h-8.6l2.8-9.3h38l-2.9,9.3h-15l-2.4,7.8l15.1-0.2
	l-2.6,9.3l-15.6,0.2c0,0-5,13.1-2.9,13.7c2.3,0.7,12.1-0.7,12.1-0.7L2683,300.6z M2744.6,280.3c-2.6,2.3-13.8,2.2-13.8,2.2
	s-1.2,8.2-0.1,8.6c2,0.5,4.1,0.6,6.2,0.3c2.6-0.2,4.6-0.3,4.6-0.3l-2.6,9.5h-16.4c-1.3-0.1-2.6-0.6-3.7-1.3
	c-0.7-0.8-1.1-1.8-1.1-2.8l0.4-26.8h12.8l0.2,5.4c0,0,4.6,0,5.4-0.7c1.3-1.2,1.9-5.2,1.9-5.2h10.2
	C2748.6,269.2,2747.5,277.6,2744.6,280.3L2744.6,280.3z M2739,267.2h-26.2l-6.8,23.7l11.4-0.4l-3.1,10.6l-19.8-0.5
	c-2.4,0-4.4-2-4.4-4.4c0-0.4,0.1-0.8,0.2-1.3l19.6-65h13.4l-1.6,6.2c0,0,5.3-4.2,10.8-5.3c8.5-1.6,27-0.9,27-0.9l-8.6,28.5
	C2749.1,263.6,2744.3,267.2,2739,267.2L2739,267.2z M2792.1,301.7h-13.4l0.6-4l-27.3-0.3l2.3-8.6l3.1,0.1l17-59.2h14.7l-1.3,5
	c0,0,4.4-3.3,8-3.9c7.9-1.3,36.6-1.1,36.6-1.1l0.2,5.6c0,0.7,0.5,1.2,1.1,1.4l4.6,0.4l-3,9.3c0,0-13,1.1-16.4-1.8
	c-2.4-2-1.4-9.9-1.4-9.9l-1.7,5.1h-4.6l-14.8,48.3l3.9-0.1l-3.1,9.8h-3.8L2792.1,301.7z M2855.2,258.2h-14.8l-2.7,7.5h15l-2.7,8.6
	l-16.2-0.1l-2.7,3h6.5c0,0,0.9,10.3,1.9,12.8c0.5,1.1,5.8,0.5,5.8,0.5l-3.4,10.3c0,0-9.5,0.6-12.8-2.1c-3-2.5-3.9-13.2-3.9-13.2
	s-7.8,12.6-11.9,14.5s-16.9,1.2-16.9,1.2l3.1-9.3c0,0,5.6,0.4,7.6-1.4c3-2.8,11.9-16.3,11.9-16.3l-14.2-0.1l2.5-8.4h16.5l2.2-7.5
	h-16.5l3-9.3h45.3L2855.2,258.2z M2897.4,170.8c-6.1,12.2-39.1,69.6-39.1,69.6c-5.4,8.6-14.9,5.6-20,5.7l2.5-9.4
	c4.5,0.9,5.2,1.1,14.5-16.3l4.6-8c0,0-3.4-32.5-4.6-39.2c-0.1-0.6,0.3-1.2,0.9-1.3l14-2.9c0.6-0.1,1.2,0.3,1.3,0.9
	c0,0.1,0,0.1,0,0.2c0.3,5.2,0.5,20.8,0.5,20.8s8.4-14.1,9.6-18.4c0.1-0.4,0.5-0.7,0.9-0.8l13.5-2.5c0.6-0.1,1.2,0.4,1.2,1
	C2897.5,170.4,2897.5,170.6,2897.4,170.8L2897.4,170.8z"/>
<path class="st6" d="M2741.2,245.2l1.1-4.8h-1.5l-1.2,4.8H2741.2z"/>
<path class="st6" d="M2819.3,203.7c7.5,0,9.4-13.6,9.2-17.9c-0.1-3.2-1.6-6-3.7-6c-3.2,0-5.5,2.2-6.7,5.2
	C2815.2,192.1,2813,203.7,2819.3,203.7z"/>
<polygon class="st6" points="2771.5,288 2782.9,288 2786.2,277.2 2775,277.3 "/>
<polygon class="st6" points="2737,258.8 2737.8,254.5 2737.4,254.5 2736.3,258.8 "/>
<path class="st6" d="M2777.1,270.7c0,0,5.2-2.2,7.3-2.8c0.8-0.3,4.5-0.9,4.5-0.9l3.1-8.7h-11.4L2777.1,270.7z"/>
<path class="st7" d="M2935.9,64.7H2817c-24,0-37.5,15.8-42.5,38.1l-9.1,37.1c8.6-0.2,23.6-0.8,23.6-0.8c13.8,0,25.5,6.7,21.3,21.9
	c-4.3,15.6-15.8,25-29.4,25l-12.9,0.2c0,0-5.9,21.9-6.6,25.6h-13.6l-4.4,18.2c7.9-0.3,15.9,0.1,15.9,0.1l-8.6,28.5
	c-1.6,5.2-6.3,8.7-11.8,8.7h-4.7l-1.9,8c1.4,0,3.7-0.2,4.2-0.6c1.3-1.2,1.9-5.2,1.9-5.2h10.2c0,0-1.1,8.4-4.1,11.1
	c-2.6,2.3-13.8,2.2-13.8,2.2s-1.2,8.2-0.1,8.6c2,0.5,4.1,0.6,6.2,0.3c2.6-0.2,4.6-0.3,4.6-0.3l-2.6,9.5H2726l-8.5,34.6
	c-2.9,12.8,5.2,25.5,18,28.4c1.7,0.4,3.5,0.6,5.2,0.6h118.9c22.8,0,38.9-15.8,43.8-38.1l55.7-232.6c2.9-12.8-5.1-25.6-17.9-28.5
	C2939.5,64.9,2937.7,64.7,2935.9,64.7z M2804.5,181.6c2.9-4.4,7.3-9.6,14.1-10.9c6.6-1.2,9.2,0.1,12.1,4.2l0.4-1.5
	c0.1-0.4,0.5-0.8,0.9-0.8l14.9-2.2c0.6-0.1,1.2,0.3,1.3,1c0,0.1,0,0.3,0,0.4l-8.3,39.7c-0.1,0.5-0.6,0.9-1.1,0.9l-15,0.2
	c-0.6,0-1.1-0.5-1.1-1.1c0-0.1,0-0.1,0-0.2l0.3-1.6c-3.3,2.6-4.1,3.5-8.4,3.5s-8.8-0.5-11.7-3.6s-3.6-6.5-3.6-10.7
	S2801.6,186,2804.5,181.6z M2792,301.8h-13.4l0.6-4l-27.3-0.3l2.3-8.6l3.1,0.1l17-59.2h14.7l-1.3,5c0,0,4.4-3.3,8-3.9
	c7.9-1.3,36.6-1.1,36.6-1.1l0.2,5.6c0,0.7,0.5,1.2,1.1,1.3l4.6,0.4l-3,9.3c0,0-13,1.1-16.4-1.8c-2.4-2-1.4-9.9-1.4-9.9l-1.7,5.1
	h-4.6l-14.8,48.2l3.9-0.1l-3.1,9.8h-3.8L2792,301.8z M2855.1,258.3h-14.8l-2.7,7.5h15l-2.7,8.6l-16.2-0.1l-2.7,3h6.5
	c0,0,0.9,10.3,1.9,12.8c0.5,1.2,5.8,0.5,5.8,0.5l-3.3,10.3c0,0-9.5,0.6-12.8-2.1c-3-2.4-3.9-13.1-3.9-13.1s-7.8,12.6-11.9,14.5
	s-16.9,1.2-16.9,1.2l3.1-9.3c0,0,5.6,0.4,7.6-1.4c3-2.8,11.9-16.3,11.9-16.3l-14.2-0.1l2.5-8.4h16.5l2.2-7.5h-16.5l3-9.3h45.3
	L2855.1,258.3z M2897.4,170.9c-6.1,12.2-39.1,69.6-39.1,69.6c-5.4,8.6-14.9,5.6-20,5.7l2.5-9.4c4.5,0.9,5.2,1.1,14.5-16.3l4.6-8
	c0,0-3.4-32.5-4.6-39.2c-0.1-0.6,0.3-1.2,0.9-1.3l14-2.8c0.6-0.1,1.2,0.3,1.3,0.9v0.1c0.3,5.2,0.5,20.8,0.5,20.8s8.4-14.1,9.6-18.4
	c0.1-0.4,0.5-0.7,0.9-0.8l13.5-2.5c0.6-0.1,1.2,0.3,1.3,0.9C2897.6,170.4,2897.5,170.7,2897.4,170.9L2897.4,170.9z"/>
<path class="st6" d="M2792,160.9c2.5-12.5-16.7-10.8-16.7-10.8l-4.9,24.3l10.9-0.7C2786.1,173.8,2790.7,167.1,2792,160.9z"/>
<path class="st6" d="M2786.4,239.8l-3.8,12.1c0,0,4.7-1.9,6.2-2.3c1.9-0.3,3.9-0.6,5.8-0.7l2.8-9L2786.4,239.8z"/>
</svg>
