<svg xmlns="http://www.w3.org/2000/svg" viewBox="0 0 55 36"><defs><style>.cls-1{fill:#568bc7;}</style></defs><title>新二元</title><g id="圖層_1" data-name="圖層 1"><path class="cls-1" d="M44.35,6.05a5,5,0,0,0-2.68,9.2l-4.6,5.27a4.95,4.95,0,0,0-7.38-.64L25.27,16a5,5,0,1,0-7.19-.17L11.17,21a5.19,5.19,0,1,0,.73,1L19,16.63a4.91,4.91,0,0,0,5.26.11l4.64,4.05a4.92,4.92,0,0,0-.82,2.72,5,5,0,1,0,10,0,4.94,4.94,0,0,0-.38-1.89l5.1-5.85a4.93,4.93,0,0,0,1.54.27,5,5,0,0,0,0-10ZM7.62,28.29a3.79,3.79,0,1,1,3.79-3.79A3.79,3.79,0,0,1,7.62,28.29ZM18,12.46a3.79,3.79,0,1,1,3.79,3.79A3.79,3.79,0,0,1,18,12.46ZM33.1,27.31a3.8,3.8,0,1,1,3.79-3.8A3.81,3.81,0,0,1,33.1,27.31ZM44.35,14.84A3.8,3.8,0,1,1,48.14,11,3.8,3.8,0,0,1,44.35,14.84Z"/></g></svg>