<svg
  xmlns="http://www.w3.org/2000/svg"
  xmlns:xlink="http://www.w3.org/1999/xlink"
  viewBox="0 0 374.7 670.05"
>
  <defs>
    <style>
      .a,
      .d,
      .f {
        fill: none;
      }
      .b {
        opacity: 0.28;
      }
      .c {
        clip-path: url(#a);
      }
      .d {
        stroke: rgba(86, 139, 199, 0.8);
      }
      .d,
      .f {
        stroke-miterlimit: 10;
        stroke-dasharray: 2 2;
      }
      .e {
        clip-path: url(#b);
      }
      .f {
        stroke: rgba(86, 139, 199, 0.8);
      }
    </style>
    <clipPath id="a">
      <rect class="a" x="-442.63" y="1.59" width="375.72" height="672.05" />
    </clipPath>
    <clipPath id="b">
      <rect class="a" width="374.17" height="673.63" />
    </clipPath>
  </defs>
  <title>新二元手机版</title>
  <g class="b">
    <g class="c">
      <line class="d" x1="39.85" y1="-14.28" x2="-785.97" y2="817.79" />
      <line class="d" x1="140.45" y1="87.08" x2="-634.69" y2="868.08" />
      <line class="d" x1="90.15" y1="36.4" x2="-684.98" y2="817.4" />
      <line class="d" x1="343.32" y1="291.49" x2="-482.49" y2="1123.56" />
      <line class="d" x1="297.57" y1="236.23" x2="-516.2" y2="1056.15" />
      <line class="d" x1="238.11" y1="194.78" x2="-564.48" y2="1003.44" />
      <line class="d" x1="393.62" y1="342.17" x2="-381.51" y2="1123.17" />
      <line class="d" x1="192.43" y1="139.45" x2="-582.7" y2="920.45" />
      <line class="d" x1="234.51" y1="509.4" x2="-411.1" y2="-141.09" />
      <line class="d" x1="284.8" y1="458.72" x2="-352.45" y2="-183.35" />
      <line class="d" x1="227.27" y1="603.66" x2="-496.84" y2="-125.92" />
      <line class="d" x1="133.91" y1="610.76" x2="-530.8" y2="-58.98" />
      <line class="d" x1="83.51" y1="661.54" x2="-598.26" y2="-25.39" />
      <line class="d" x1="33.11" y1="712.32" x2="-646.34" y2="27.72" />
    </g>
  </g>
  <g class="e">
    <line class="f" x1="460.25" y1="25.78" x2="-365.57" y2="857.84" />
    <line class="f" x1="414.49" y1="-29.48" x2="-399.27" y2="790.44" />
    <line class="f" x1="355.03" y1="-70.93" x2="-447.55" y2="737.73" />
    <line class="f" x1="257.9" y1="-178.1" x2="-517.23" y2="602.9" />
    <line class="f" x1="560.84" y1="127.13" x2="-214.29" y2="908.13" />
    <line class="f" x1="510.54" y1="76.46" x2="-264.59" y2="857.45" />
    <line class="f" x1="309.35" y1="-126.26" x2="-465.78" y2="654.74" />
    <line class="f" x1="763.72" y1="331.55" x2="-62.1" y2="1163.61" />
    <line class="f" x1="717.97" y1="276.29" x2="-95.8" y2="1096.21" />
    <line class="f" x1="658.51" y1="234.84" x2="-144.08" y2="1043.5" />
    <line class="f" x1="186.82" y1="-212.76" x2="-588.32" y2="568.24" />
    <line class="f" x1="814.02" y1="382.22" x2="38.88" y2="1163.22" />
    <line class="f" x1="612.83" y1="179.51" x2="-162.31" y2="960.51" />
    <line class="f" x1="654.9" y1="549.45" x2="9.29" y2="-101.04" />
    <line class="f" x1="705.2" y1="498.78" x2="67.95" y2="-143.3" />
    <line class="f" x1="647.66" y1="643.72" x2="-76.44" y2="-85.86" />
    <line class="f" x1="554.31" y1="650.81" x2="-110.41" y2="-18.93" />
    <line class="f" x1="503.91" y1="701.59" x2="-177.86" y2="14.67" />
    <line class="f" x1="453.51" y1="752.37" x2="-225.94" y2="67.78" />
    <line class="f" x1="403.11" y1="803.15" x2="-277.87" y2="117.02" />
    <line class="f" x1="403.11" y1="803.16" x2="-278.66" y2="116.23" />
    <line class="f" x1="352.71" y1="853.94" x2="-326.75" y2="169.34" />
    <line class="f" x1="302.31" y1="904.72" x2="-378.67" y2="218.59" />
    <line class="f" x1="251.49" y1="955.92" x2="-427.97" y2="271.33" />
    <line class="f" x1="201.09" y1="1006.7" x2="-479.89" y2="320.57" />
  </g>
</svg>
