<svg xmlns="http://www.w3.org/2000/svg" viewBox="0 0 20 20"><defs><style>.a{fill:#1f3218;}</style></defs><title>新二元手机版</title><path class="a" d="M8.67,2.23a1,1,0,0,0-1-1H6.6a1,1,0,0,0-1,1V9.3a1,1,0,0,0,1,1H7.65a1,1,0,0,0,1-1Z"/><path class="a" d="M4.12,2.31A1.09,1.09,0,0,0,3,1.22H2.12A1.09,1.09,0,0,0,1,2.31V6.83a1.09,1.09,0,0,0,1.09,1.1H3a1.09,1.09,0,0,0,1.09-1.1Z"/><path class="a" d="M13.14,2.23a1,1,0,0,0-1-1H11.07a1,1,0,0,0-1,1V12a1,1,0,0,0,1,1h1.06a1,1,0,0,0,1-1Z"/><path class="a" d="M18.92,15.24a.75.75,0,0,0-.69-.34H17.7V2.2a1,1,0,0,0-1-1H15.63a1,1,0,0,0-1,1V14.9h-.53a.72.72,0,0,0-.68.34.61.61,0,0,0,.11.66l2,2.54a.82.82,0,0,0,1.33,0l2-2.54A.64.64,0,0,0,18.92,15.24Z"/></svg>