<svg xmlns="http://www.w3.org/2000/svg" xmlns:xlink="http://www.w3.org/1999/xlink" viewBox="0 0 23 23"><defs><style>.cls-1,.cls-5{fill:none;}.cls-2{isolation:isolate;}.cls-3{clip-path:url(#clip-path);}.cls-4{opacity:0.16;mix-blend-mode:soft-light;}.cls-5{stroke:#fff;stroke-miterlimit:10;stroke-dasharray:5;}.cls-6{fill:#568bc7;}</style><clipPath id="clip-path"><rect class="cls-1" x="-550.2" y="-412.92" width="375.72" height="672.05"/></clipPath></defs><title>新二元</title><g class="cls-2"><g id="圖層_3" data-name="圖層 3"><g class="cls-3"><g class="cls-4"><line class="cls-5" x1="32.88" y1="-327.43" x2="-742.26" y2="453.57"/><line class="cls-5" x1="235.75" y1="-123.01" x2="-590.06" y2="709.05"/><line class="cls-5" x1="190" y1="-178.27" x2="-623.77" y2="641.65"/><line class="cls-5" x1="130.54" y1="-219.72" x2="-672.05" y2="588.94"/><line class="cls-5" x1="286.05" y1="-72.34" x2="-489.08" y2="708.66"/><line class="cls-5" x1="84.86" y1="-275.05" x2="-690.27" y2="505.95"/><line class="cls-5" x1="126.94" y1="94.9" x2="-518.67" y2="-555.6"/><line class="cls-5" x1="177.23" y1="44.22" x2="-460.02" y2="-597.86"/><line class="cls-5" x1="119.7" y1="189.16" x2="-604.41" y2="-540.42"/><line class="cls-5" x1="26.34" y1="196.25" x2="-638.37" y2="-473.49"/></g></g></g><g id="圖層_4" data-name="圖層 4"><circle class="cls-6" cx="11.5" cy="7.57" r="4.85"/><path class="cls-6" d="M15.31,12.25a6,6,0,0,1-7.62,0,6.24,6.24,0,0,0-4.26,5.92v.88a1.23,1.23,0,0,0,1.23,1.23H18.34a1.23,1.23,0,0,0,1.23-1.23v-.88A6.24,6.24,0,0,0,15.31,12.25Z"/></g></g></svg>