<svg xmlns="http://www.w3.org/2000/svg" viewBox="0 0 40 40"><defs><style>.a{fill:#122e8a;}</style></defs><title>新二元手机版</title><path class="a" d="M23.19,18.4c0-2.27-5.82-2.87-9.26-2.87s-9.26.6-9.26,2.87l0,.18,0,.14V36l0,.16,0,.16c0,2.26,5.82,2.87,9.26,2.87,2.94,0,7.6-.45,8.9-2a.62.62,0,0,0,.36-.57V18.72a.35.35,0,0,0,0-.14A.57.57,0,0,0,23.19,18.4ZM21.92,36.28c-.15.54-3.09,1.6-8,1.6s-7.84-1.06-8-1.59a.41.41,0,0,0,0-.16A.5.5,0,0,0,6,36v-.66c1.91,1,5.54,1.29,8,1.29s6.08-.3,8-1.29Zm0-2.56c-.15.55-3.09,1.61-8,1.61s-7.84-1.06-8-1.6v-1c1.91,1,5.54,1.3,8,1.3s6.08-.31,8-1.3Zm0-2.55c-.15.54-3.09,1.6-8,1.6s-7.84-1.06-8-1.59v-1c1.91,1,5.54,1.3,8,1.3s6.08-.31,8-1.3Zm0-2.56c-.15.55-3.09,1.61-8,1.61s-7.84-1.06-8-1.6v-1c1.91,1,5.54,1.3,8,1.3s6.08-.31,8-1.3Zm0-2.55c-.15.55-3.09,1.6-8,1.6S6.09,26.6,6,26.07v-1c1.91,1,5.54,1.3,8,1.3s6.08-.31,8-1.3Zm0-2.55c-.15.54-3.09,1.6-8,1.6s-7.84-1.06-8-1.6v-1c1.91,1,5.54,1.3,8,1.3s6.08-.31,8-1.3Zm0-2.56c-.15.55-3.09,1.6-8,1.6S6.09,21.49,6,21V20c1.91,1,5.54,1.3,8,1.3S20,21,21.92,20Zm-8-.95C9,20,6.09,18.94,6,18.41c.14-.54,3.08-1.6,8-1.6s7.82,1.05,8,1.59C21.75,19,18.81,20,13.93,20Z"/><path class="a" d="M35.33,3.71c0-2.26-5.82-2.87-9.26-2.87s-9.26.61-9.26,2.87a.57.57,0,0,0,0,.18.39.39,0,0,0,0,.14v9.58a.64.64,0,1,0,1.27,0V13c1.91,1,5.54,1.3,8,1.3s6.07-.31,8-1.3v1c-.14.54-3.09,1.6-8,1.6h-.94a.64.64,0,1,0,0,1.27l1,0c2.44,0,6.07-.31,8-1.3v1c-.14.55-3.09,1.6-8,1.6h-.94a.64.64,0,0,0,0,1.28h1c2.44,0,6.07-.31,8-1.3v1c-.14.54-3.09,1.6-8,1.6h-.94a.64.64,0,1,0,0,1.27l1,0c2.44,0,6.07-.31,8-1.3v1c-.14.54-3.09,1.6-8,1.6h-.94a.64.64,0,0,0,0,1.28h1c2.44,0,6.07-.31,8-1.3v1c-.14.55-3.09,1.61-8,1.61l-.94,0a.64.64,0,0,0,0,1.28l1,0c2.44,0,6.07-.31,8-1.3v1c-.14.54-3.09,1.6-8,1.6h-.94a.64.64,0,0,0,0,1.28h1c2.44,0,6.07-.31,8-1.3v1c-.14.55-3.09,1.61-8,1.61l-.94,0a.64.64,0,0,0,0,1.28h1c2.44,0,6.07-.3,8-1.29v1c-.14.54-3.09,1.6-8,1.6h-.94a.64.64,0,0,0,0,1.28h1c2.93,0,7.6-.45,8.9-2a.62.62,0,0,0,.36-.57V4l0-.14Zm-1.28,7.66c-.14.55-3.09,1.6-8,1.6s-7.85-1.06-8-1.59v-1c1.91,1,5.54,1.3,8,1.3s6.07-.31,8-1.3Zm0-2.55c-.14.54-3.09,1.6-8,1.6s-7.85-1.06-8-1.6v-1c1.91,1,5.54,1.3,8,1.3s6.07-.31,8-1.3Zm0-2.56c-.14.55-3.09,1.61-8,1.61s-7.85-1.06-8-1.6v-1c1.91,1,5.54,1.3,8,1.3s6.07-.31,8-1.3Zm-8-1c-4.9,0-7.85-1.06-8-1.59.14-.54,3.09-1.6,8-1.6s7.81,1,8,1.59C33.88,4.26,30.94,5.31,26.07,5.31Z"/></svg>