<svg xmlns="http://www.w3.org/2000/svg" viewBox="0 0 40 40"><defs><style>.a{fill:#122e8a;}</style></defs><title>home</title><path class="a" d="M38.82,16.82l-5.55-4.57V3.06a.79.79,0,0,0-.79-.8H28.76a.8.8,0,0,0-.8.8V7.88L22,3A3.18,3.18,0,0,0,18,3L1.17,16.82A.81.81,0,0,0,1.07,18h0L2.76,20a.79.79,0,0,0,1.12.11h0L19.49,7.25a.81.81,0,0,1,1,0L36.12,20.11a.8.8,0,0,0,1.12-.1h0L38.94,18a.79.79,0,0,0-.11-1.12Z"/><path class="a" d="M35.05,20.82,20.63,8.72a1,1,0,0,0-1.25,0L5,20.49a1,1,0,0,0-.25,1.15V35.52a1.41,1.41,0,0,0,1.57,1.3h8.91a.87.87,0,0,0,.87-.87V29.38h7.88V36a.87.87,0,0,0,.87.87h8.91a1.41,1.41,0,0,0,1.57-1.3V22A1,1,0,0,0,35.05,20.82ZM25.68,35.08V28.51a.86.86,0,0,0-.87-.87H15.19a.86.86,0,0,0-.87.87v6.57H6.45V21.79L20,10.73,33.55,22.11v13Z"/></svg>