<svg xmlns="http://www.w3.org/2000/svg" viewBox="0 0 40 40"><defs><style>.a{fill:#122e8a;}</style></defs><title>新二元手机版</title><path class="a" d="M28.91,38.13a.75.75,0,0,1-.75-.75c0-4.9-2.4-9.31-5.84-10.71a.76.76,0,0,1-.47-.73.75.75,0,0,1,.53-.68,8.16,8.16,0,1,0-4.76,0,.75.75,0,0,1,.53.68.76.76,0,0,1-.47.73c-3.44,1.4-5.84,5.81-5.84,10.71a.75.75,0,0,1-1.5,0c0-4.87,2.07-9.19,5.28-11.31a9.66,9.66,0,1,1,8.76,0c3.21,2.12,5.28,6.44,5.28,11.31A.74.74,0,0,1,28.91,38.13Z"/><path class="a" d="M8.43,36.8A.74.74,0,0,1,8,36.64a19.47,19.47,0,1,1,24.13,0A.76.76,0,0,1,31,36.48a.75.75,0,0,1,.12-1,18,18,0,1,0-22.26,0,.75.75,0,0,1-.46,1.34Z"/></svg>