<svg xmlns="http://www.w3.org/2000/svg" xmlns:xlink="http://www.w3.org/1999/xlink" viewBox="0 0 22 22"><defs><style>.cls-1,.cls-5{fill:none;}.cls-2{isolation:isolate;}.cls-3{clip-path:url(#clip-path);}.cls-4{opacity:0.16;mix-blend-mode:soft-light;}.cls-5{stroke:#fff;stroke-miterlimit:10;stroke-dasharray:5;}.cls-6{fill:#fff;}</style><clipPath id="clip-path"><rect class="cls-1" x="-553.03" y="-559.49" width="375.72" height="672.05"/></clipPath></defs><title>新二元</title><g class="cls-2"><g id="圖層_3" data-name="圖層 3"><g class="cls-3"><g class="cls-4"><line class="cls-5" x1="30.05" y1="-473.99" x2="-745.08" y2="307"/><line class="cls-5" x1="232.93" y1="-269.58" x2="-592.89" y2="562.48"/><line class="cls-5" x1="187.17" y1="-324.84" x2="-626.59" y2="495.08"/><line class="cls-5" x1="127.71" y1="-366.29" x2="-674.87" y2="442.37"/><line class="cls-5" x1="283.22" y1="-218.9" x2="-491.91" y2="562.09"/><line class="cls-5" x1="82.03" y1="-421.62" x2="-693.1" y2="359.38"/><line class="cls-5" x1="116.87" y1="42.59" x2="-607.24" y2="-686.99"/><line class="cls-5" x1="23.51" y1="49.68" x2="-641.2" y2="-620.06"/></g></g></g><g id="圖層_2" data-name="圖層 2"><path class="cls-6" d="M12.44,9.62,15.83,13a.72.72,0,0,0,1.22-.51.67.67,0,0,0-.21-.5L14.66,9.8h6.57a.7.7,0,0,0,.7-.7.7.7,0,0,0-.7-.71H14.66l2.18-2.18a.71.71,0,0,0,.21-.5.7.7,0,0,0-.71-.7.79.79,0,0,0-.51.2L12.45,8.6a.7.7,0,0,0-.22.51A.72.72,0,0,0,12.44,9.62Z"/><path class="cls-6" d="M12.43,11.8a.72.72,0,0,0-.7.71l0,3.05H9V5.72a.74.74,0,0,0-.4-.64L3.56,2.68l8.18,0v3a.71.71,0,0,0,1.41,0v-3a1.46,1.46,0,0,0-1.46-1.46H1.53A1.46,1.46,0,0,0,.07,2.72V15.8a1.44,1.44,0,0,0,.8,1.3L8,20.64a.6.6,0,0,0,.35.1A.73.73,0,0,0,9,20V17h2.67a1.44,1.44,0,0,0,1-.44,1.4,1.4,0,0,0,.41-1v-3A.73.73,0,0,0,12.43,11.8ZM7.6,6.18v12.7L1.49,15.8V3.29Z"/></g></g></svg>