<svg xmlns="http://www.w3.org/2000/svg" viewBox="0 0 200 200"><defs><style>.a{fill:#e6001f;}.a,.b,.c,.d{fill-rule:evenodd;}.b{fill:#f9b70e;}.c{fill:#002e75;}.d{fill:#fff;}</style></defs><title>信用卡支付</title><path class="a" d="M116.26,100A49.47,49.47,0,1,1,66.79,50.53,49.47,49.47,0,0,1,116.26,100Z"/><path class="b" d="M133.21,50.53A49.32,49.32,0,0,0,100,63.33a50.38,50.38,0,0,0-5,5.24h10a51.54,51.54,0,0,1,3.77,5.24H91.23a49.92,49.92,0,0,0-2.85,5.24h23.24a49.72,49.72,0,0,1,2.09,5.24H86.29a45.47,45.47,0,0,0-1.44,5.24h30.3a49.81,49.81,0,0,1-1.44,26.19H86.29A50.6,50.6,0,0,0,88.38,121h23.24a50.94,50.94,0,0,1-2.85,5.24H91.23A51.08,51.08,0,0,0,95,131.43h10a49.54,49.54,0,0,1-5,5.24,49.47,49.47,0,1,0,33.21-86.14Z"/><path class="b" d="M176.09,127.58a1.6,1.6,0,1,1,1.6,1.6,1.6,1.6,0,0,1-1.6-1.6Zm1.6,1.21a1.21,1.21,0,1,0-1.22-1.21,1.21,1.21,0,0,0,1.22,1.21Zm-.22-.51h-.33v-1.4h.6a.68.68,0,0,1,.35.06.43.43,0,0,1,.18.36.38.38,0,0,1-.24.36l.26.62h-.36l-.22-.55h-.24v.55Zm0-.8h.18a.44.44,0,0,0,.2,0,.19.19,0,0,0,.08-.17.17.17,0,0,0-.08-.14.49.49,0,0,0-.21,0h-.17v.36Z"/><path class="c" d="M55.24,105.42a8.37,8.37,0,0,0-1.2-.09c-3,0-4.58,1-4.58,3.11a1.87,1.87,0,0,0,1.92,2.08c2.19,0,3.77-2.08,3.86-5.1Zm3.91,9.09H54.7l.1-2.11a6.74,6.74,0,0,1-5.63,2.46c-2.91,0-4.91-2.27-4.91-5.57,0-5,3.47-7.87,9.43-7.87a18.64,18.64,0,0,1,2.19.16,4.85,4.85,0,0,0,.21-1.32c0-1.35-.94-1.86-3.44-1.86a17.9,17.9,0,0,0-5.69.92c.06-.34.74-4.59.74-4.59a21.3,21.3,0,0,1,6.43-1.08c4.62,0,7.06,2.07,7,6a26.1,26.1,0,0,1-.43,4.05c-.47,2.95-1.47,9.29-1.6,10.83Z"/><polygon class="c" points="42.01 114.51 36.64 114.51 39.72 95.22 32.85 114.51 29.19 114.51 28.74 95.33 25.5 114.51 20.48 114.51 24.68 89.42 32.4 89.42 32.87 103.46 37.58 89.42 46.17 89.42 42.01 114.51 42.01 114.51"/><path class="c" d="M139.84,105.42a8.24,8.24,0,0,0-1.19-.09c-3.05,0-4.58,1-4.58,3.11a1.87,1.87,0,0,0,1.92,2.08c2.19,0,3.76-2.08,3.85-5.1Zm3.91,9.09h-4.44l.1-2.11a6.74,6.74,0,0,1-5.63,2.46c-2.92,0-4.91-2.27-4.91-5.57,0-5,3.47-7.87,9.43-7.87a18.64,18.64,0,0,1,2.19.16,4.85,4.85,0,0,0,.21-1.32c0-1.35-.94-1.86-3.44-1.86a17.9,17.9,0,0,0-5.69.92c.06-.34.75-4.59.75-4.59a21.2,21.2,0,0,1,6.42-1.08c4.62,0,7.06,2.07,7,6a26.1,26.1,0,0,1-.43,4.05c-.47,2.95-1.47,9.29-1.61,10.83Z"/><path class="c" d="M83,114.2a12.32,12.32,0,0,1-3.86.66c-2.74,0-4.24-1.57-4.24-4.48a47.12,47.12,0,0,1,.74-5.44C76,103,78,91,78,91h5.33l-.62,3.08h3.23L85.19,99H82c-.62,3.88-1.5,8.71-1.51,9.36,0,1,.56,1.51,1.84,1.51a4.39,4.39,0,0,0,1.45-.2L83,114.2Z"/><path class="c" d="M99.38,114a17.72,17.72,0,0,1-5.47.83c-6,0-9.1-3.12-9.1-9.1,0-7,4-12.11,9.35-12.11,4.4,0,7.21,2.87,7.21,7.38a21.64,21.64,0,0,1-.66,5H90.08c-.36,3,1.53,4.2,4.64,4.2a12.64,12.64,0,0,0,5.55-1.29L99.38,114Zm-3-12.09c0-.43.57-3.64-2.48-3.64-1.7,0-2.92,1.29-3.41,3.64Z"/><path class="c" d="M62.37,100.56c0,2.57,1.25,4.36,4.08,5.69,2.18,1,2.52,1.33,2.52,2.26,0,1.27-1,1.84-3.09,1.84a15.24,15.24,0,0,1-4.81-.8s-.7,4.5-.74,4.71a25.19,25.19,0,0,0,5.59.6c5.67,0,8.29-2.15,8.29-6.82,0-2.8-1.1-4.45-3.79-5.69-2.25-1-2.51-1.26-2.51-2.21s.89-1.67,2.63-1.67a28.68,28.68,0,0,1,3.86.31l.76-4.73a34.83,34.83,0,0,0-4.73-.4c-6,0-8.08,3.14-8.06,6.91Z"/><path class="c" d="M125.5,94.19a10.16,10.16,0,0,1,4.8,1.35l.88-5.45c-.79-.31-3.56-2.12-5.9-2.12a10.68,10.68,0,0,0-8.77,4.73c-3.12-1-4.4,1-6,3.13l-1.4.32a10.08,10.08,0,0,0,.17-2.05h-4.93c-.67,6.32-1.87,12.72-2.8,19l-.25,1.37h5.38c.89-5.83,1.38-9.56,1.68-12.08l2-1.12c.3-1.13,1.24-1.51,3.14-1.46a23.54,23.54,0,0,0-.38,4.18c0,6.68,3.61,10.83,9.39,10.83a16.77,16.77,0,0,0,4.75-.73l.94-5.72a10.53,10.53,0,0,1-4.57,1.29c-3.12,0-5-2.31-5-6.12,0-5.52,2.8-9.39,6.81-9.39Z"/><path class="c" d="M171,89.42l-1.19,7.25c-1.46-1.94-3-3.33-5.13-3.33-2.7,0-5.17,2-6.79,5.08a43.57,43.57,0,0,1-4.57-1.27v0c.18-1.7.25-2.72.24-3.08h-4.94c-.67,6.32-1.87,12.72-2.8,19l-.25,1.37h5.38c.73-4.71,1.28-8.62,1.69-11.73,1.84-1.65,2.75-3.1,4.61-3a17.57,17.57,0,0,0-1.3,6.63c0,5.1,2.58,8.46,6.48,8.46a6.33,6.33,0,0,0,4.95-2.25l-.25,1.9h5.08l4.09-25.09Zm-6.71,20.38c-1.83,0-2.75-1.36-2.75-4,0-4,1.72-6.85,4.16-6.85,1.85,0,2.85,1.4,2.85,4,0,4-1.76,6.88-4.26,6.88Z"/><polygon class="d" points="43.56 113.02 38.19 113.02 41.27 93.73 34.4 113.02 30.73 113.02 30.28 93.85 27.05 113.02 22.02 113.02 26.22 87.93 33.94 87.93 34.16 103.46 39.37 87.93 47.71 87.93 43.56 113.02 43.56 113.02"/><path class="d" d="M56.79,103.93a10.07,10.07,0,0,0-1.2-.08c-3.05,0-4.59,1-4.59,3.1A1.88,1.88,0,0,0,52.93,109c2.18,0,3.76-2.08,3.86-5.1Zm3.9,9.09H56.24l.1-2.11a6.74,6.74,0,0,1-5.63,2.47c-2.91,0-4.9-2.28-4.9-5.58,0-5,3.47-7.87,9.43-7.87a18.64,18.64,0,0,1,2.19.16,5.28,5.28,0,0,0,.21-1.32c0-1.35-.94-1.86-3.45-1.86a18,18,0,0,0-5.69.92c.06-.34.75-4.59.75-4.59a21.26,21.26,0,0,1,6.43-1.08c4.61,0,7,2.07,7,6a26.2,26.2,0,0,1-.44,4c-.46,3-1.46,9.29-1.6,10.83Z"/><path class="d" d="M132.73,88.61l-.88,5.44a10.31,10.31,0,0,0-4.8-1.35c-4,0-6.82,3.87-6.82,9.4,0,3.81,1.89,6.11,5,6.11a10.39,10.39,0,0,0,4.56-1.29l-.94,5.72a16.77,16.77,0,0,1-4.75.74c-5.78,0-9.38-4.16-9.38-10.84,0-9,5-15.24,12.09-15.24a18.59,18.59,0,0,1,5.91,1.31Z"/><path class="d" d="M141.39,103.93a9.8,9.8,0,0,0-1.19-.08c-3,0-4.59,1-4.59,3.1a1.88,1.88,0,0,0,1.93,2.08c2.18,0,3.76-2.08,3.85-5.1ZM145.3,113h-4.45l.1-2.11a6.75,6.75,0,0,1-5.63,2.47c-2.91,0-4.9-2.28-4.9-5.58,0-5,3.47-7.87,9.42-7.87a18.35,18.35,0,0,1,2.19.16,4.85,4.85,0,0,0,.21-1.32c0-1.35-.93-1.86-3.44-1.86a18,18,0,0,0-5.69.92c.06-.34.75-4.59.75-4.59a21.26,21.26,0,0,1,6.43-1.08c4.61,0,7.05,2.07,7.05,6a26.2,26.2,0,0,1-.44,4c-.46,3-1.46,9.29-1.6,10.83Z"/><path class="d" d="M84.56,112.71a12.4,12.4,0,0,1-3.86.67c-2.74,0-4.24-1.58-4.24-4.48a46.67,46.67,0,0,1,.73-5.45c.31-1.9,2.33-13.92,2.33-13.92h5.34l-.62,3.09H87l-.73,4.9H83.5c-.62,3.88-1.51,8.71-1.52,9.36,0,1.05.57,1.51,1.84,1.51a4.11,4.11,0,0,0,1.45-.2l-.71,4.52Z"/><path class="d" d="M100.93,112.55a18.4,18.4,0,0,1-5.48.83c-6,0-9.09-3.13-9.09-9.11,0-7,4-12.11,9.34-12.11,4.4,0,7.22,2.87,7.22,7.39a22.19,22.19,0,0,1-.66,5H91.63c-.36,3,1.53,4.2,4.64,4.2a12.53,12.53,0,0,0,5.55-1.29l-.89,5.08Zm-3-12.1c0-.43.56-3.64-2.49-3.64-1.7,0-2.91,1.29-3.41,3.64Z"/><path class="d" d="M63.91,99.07c0,2.58,1.25,4.36,4.09,5.7,2.18,1,2.51,1.32,2.51,2.25,0,1.27-1,1.84-3.08,1.84a15.24,15.24,0,0,1-4.81-.8s-.71,4.5-.74,4.71a25,25,0,0,0,5.59.61c5.66,0,8.28-2.16,8.28-6.83,0-2.8-1.09-4.45-3.78-5.68-2.26-1-2.51-1.27-2.51-2.22,0-1.1.89-1.67,2.62-1.67a30.15,30.15,0,0,1,3.86.31l.77-4.73a36.52,36.52,0,0,0-4.73-.4c-6,0-8.09,3.14-8.07,6.91Z"/><path class="d" d="M173.73,113h-5.08l.25-1.9a6.33,6.33,0,0,1-5,2.26c-3.91,0-6.49-3.37-6.49-8.48,0-6.78,4-12.5,8.74-12.5a6.07,6.07,0,0,1,5.13,2.78l1.19-7.25h5.3L173.73,113Zm-7.93-4.71c2.5,0,4.26-2.84,4.26-6.88,0-2.59-1-4-2.84-4-2.44,0-4.17,2.84-4.17,6.86,0,2.67.93,4,2.75,4Z"/><path class="d" d="M150.14,92.62c-.67,6.31-1.87,12.71-2.8,19l-.25,1.37h5.37c1.93-12.48,2.39-14.91,5.4-14.61a20,20,0,0,1,2-5.92c-2.25-.47-3.5.81-5.15,3.22a18.1,18.1,0,0,0,.32-3.09Z"/><path class="d" d="M105.93,92.62c-.68,6.31-1.87,12.71-2.81,19l-.24,1.37h5.37c1.92-12.48,2.39-14.91,5.4-14.61a20,20,0,0,1,2-5.92c-2.25-.47-3.51.81-5.15,3.22a18.1,18.1,0,0,0,.32-3.09Z"/><path class="d" d="M176.09,111.43a1.6,1.6,0,1,1,1.59,1.59,1.6,1.6,0,0,1-1.59-1.59Zm1.59,1.21a1.22,1.22,0,1,0-1.21-1.21,1.22,1.22,0,0,0,1.21,1.21Zm-.21-.52h-.33v-1.4h.59a.63.63,0,0,1,.36.07.41.41,0,0,1,.18.35.39.39,0,0,1-.24.37l.26.61h-.37l-.21-.55h-.24v.55Zm0-.79h.18a.46.46,0,0,0,.2,0,.19.19,0,0,0,.08-.16.21.21,0,0,0-.08-.15.5.5,0,0,0-.21,0h-.17v.36Z"/></svg>