<svg xmlns="http://www.w3.org/2000/svg" viewBox="0 0 250 70"><defs><style>.a,.b,.e,.g,.h,.i{opacity:0.23;}.a,.f{font-size:7.81px;}.a,.b,.c,.d,.e,.f,.g,.h,.i,.j,.k,.l,.v{fill:#fff;}.a,.b,.c,.d,.e,.f,.g,.h,.i,.j,.k,.l{font-family:PingFangSC-Medium-GBpc-EUC-H, PingFang SC;}.b{font-size:5.14px;}.c,.d{opacity:0.12;}.c{font-size:12.45px;}.d{font-size:4.87px;}.e{font-size:14.67px;}.f,.k{opacity:0.27;}.g{font-size:5.47px;}.h{font-size:4.22px;}.i{font-size:3.06px;}.j{opacity:0.14;font-size:13.61px;}.k{font-size:9.03px;}.l,.s{opacity:0.11;}.l{font-size:26.08px;}.m{opacity:0.48;}.n{opacity:0.13;}.o{fill:#2e3030;}.p{fill:#818283;}.q{fill:#333535;}.r{fill:#121212;}.t{fill:#040000;}.u{fill:#f3c183;}.w{opacity:0.1;}.x{fill:#313032;}.y{fill:#3b3c3e;}.z{fill:#252323;}.aa{fill:#2a292a;}.ab{fill:#363537;}.ac{fill:#272526;}.ad{fill:#3c3d3f;}.ae{fill:#231f20;}.af{fill:#313031;}.ag{opacity:0.07;}</style></defs><title>新二元手机版</title><text class="a" transform="matrix(0.9, -0.46, 0.47, 0.88, 32.16, 33.49)">LTC</text><text class="b" transform="matrix(0.9, -0.46, 0.47, 0.88, 58.37, 36.2)">LTC</text><text class="b" transform="matrix(0.9, -0.46, 0.47, 0.88, 70.57, 56.89)">LTC</text><text class="b" transform="matrix(0.9, -0.46, 0.47, 0.88, 73.94, 25.28)">LTC</text><text class="a" transform="matrix(0.9, -0.46, 0.47, 0.88, 130.25, 61.26)">XRP</text><text class="c" transform="matrix(0.9, -0.46, 0.47, 0.88, 47.45, 34.17)">XRP</text><text class="c" transform="matrix(0.9, -0.46, 0.47, 0.88, 183.24, 60.96)">XRP</text><text class="c" transform="matrix(0.9, -0.46, 0.47, 0.88, 165.88, 28.73)">XRP</text><text class="d" transform="matrix(0.9, -0.46, 0.47, 0.88, 107.79, 29.58)">XRP</text><text class="a" transform="matrix(0.9, -0.46, 0.47, 0.88, 207.34, 55.01)">BTC</text><text class="e" transform="matrix(0.9, -0.46, 0.47, 0.88, 132.19, 46.85)">BTC</text><text class="f" transform="matrix(0.9, -0.46, 0.47, 0.88, 29, 59.11)">BTC</text><text class="g" transform="matrix(0.9, -0.46, 0.47, 0.88, 162.8, 54.84)">BTC</text><text class="h" transform="matrix(0.9, -0.46, 0.47, 0.88, 173.72, 41.88)">BTC</text><text class="g" transform="matrix(0.9, -0.46, 0.47, 0.88, 31.93, 45.14)">BTC</text><text class="i" transform="matrix(0.9, -0.46, 0.47, 0.88, 60.15, 53.41)">BTC</text><text class="a" transform="matrix(0.9, -0.46, 0.47, 0.88, 204.38, 38.51)">ETH</text><text class="j" transform="matrix(0.9, -0.46, 0.47, 0.88, 204.93, 28.72)">ETH</text><text class="k" transform="matrix(0.9, -0.46, 0.47, 0.88, 50.6, 51.7)">ETH</text><text class="l" transform="matrix(0.9, -0.46, 0.47, 0.88, 88.74, 54.52)">ETH</text><g class="m"><g class="n"><path class="o" d="M43.73,19.68c0,.06,0,.12,0,.18L40.3,44.24l0,.15c-.12,0-.14-.12-.18-.19l-.87-1.68-1.53-3L36.4,37l-1.5-2.9c-.39-.76-.78-1.51-1.16-2.27a.2.2,0,0,1,0-.13l0-.06a1.5,1.5,0,0,1,.19-.25l9.51-11.49A.7.7,0,0,1,43.73,19.68Z"/><path class="p" d="M43.73,19.68l-.18.21-9.8,11.86a.33.33,0,0,1-.26,0l-2.31-.58-2.8-.7-3.29-.83-2.77-.69c-.82-.2-1.65-.41-2.47-.63-.06,0-.14,0-.17-.09L22,27.37l13.33-4.74L43.6,19.7S43.67,19.65,43.73,19.68Z"/><path class="q" d="M19.67,28.22l1.72.45,5.95,1.49,4.54,1.13,1.86.46,0,0a.43.43,0,0,1-.15.28l-3.06,3.7L25.31,42a.47.47,0,0,1-.27.23c-.05,0-.05-.09-.07-.14L19.69,28.4S19.61,28.29,19.67,28.22Z"/><path class="r" d="M25.05,42.26,33.55,32l.17-.2a1.52,1.52,0,0,1,.27.48l1.31,2.53,1.89,3.66c.37.71.73,1.43,1.1,2.15l1.5,2.89a9.67,9.67,0,0,0,.48.9c-.06.09-.13,0-.19,0L28.17,42.72l-3-.42C25.16,42.3,25.09,42.31,25.05,42.26Z"/><path class="o" d="M23.45,44.18l4.62.66,10.35,1.47s.12,0,.17,0-.08,0-.13.06l-21.71,6H16.7c-.06-.07,0-.12,0-.18l.14-.16,6.31-7.64A.58.58,0,0,1,23.45,44.18Z"/><path class="p" d="M23.45,44.18l-.15.18L16.82,52.2c-.05,0-.13.1-.12.19s-.06,0-.05-.13l.26-4.13L18,30.63a1.4,1.4,0,0,1,.07-.4Z"/></g><g class="s"><path class="t" d="M208.73,58.21l-.71-.76a2.93,2.93,0,0,0-.37-.42,10.72,10.72,0,0,1-1.56-2.32,13.45,13.45,0,0,1-1-2.59,13.78,13.78,0,0,1-.52-3.26c0-.37,0-.74,0-1.11a14.38,14.38,0,0,1,.49-3.13,13.72,13.72,0,0,1,.51-1.53,14.2,14.2,0,0,1,2.26-3.77,11.23,11.23,0,0,1,.83-.86c.29-.28.6-.55.91-.83a12.73,12.73,0,0,1,3.34-2.2,14.89,14.89,0,0,1,5.65-1.37c.41,0,.81,0,1.22,0a15.92,15.92,0,0,1,3.81.65,15.55,15.55,0,0,1,2.46,1,14.09,14.09,0,0,1,2.32,1.49,9.61,9.61,0,0,1,.82.74c.35.34.67.7,1,1a12.7,12.7,0,0,1,2.51,3.91,13.79,13.79,0,0,1,.92,3.28,14.15,14.15,0,0,1-.29,5.61,13.51,13.51,0,0,1-1.23,3.12,13,13,0,0,1-1.67,2.43,9.41,9.41,0,0,1-.84.83.35.35,0,0,0-.1.11l-.92.83a3.16,3.16,0,0,0-.45.37A10.4,10.4,0,0,1,226,60.87a14.67,14.67,0,0,1-7.22,1.65,14.72,14.72,0,0,1-6.54-1.67,13.84,13.84,0,0,1-2.42-1.59,11.23,11.23,0,0,1-.86-.83A1.26,1.26,0,0,0,208.73,58.21Z"/><path class="u" d="M209,58.44h0l-.23-.24A.61.61,0,0,1,209,58.44Z"/><path class="v" d="M222.86,45.65l.19,0a2.91,2.91,0,0,1,1.93.13A3,3,0,0,1,226.25,47a3.86,3.86,0,0,1,.54,2.07,3.08,3.08,0,0,1-.8,1.82,9,9,0,0,1-2.05,1.63c-.09.06-.12.09-.06.2l1.14,2c.09.16.09.16-.07.25-.38.19-.75.39-1.12.59-.11.06-.16.06-.22-.05-.37-.68-.75-1.35-1.13-2,0-.09-.08-.12-.19-.06-.29.16-.59.32-.9.47-.1.05-.11.09-.06.18l1.15,2c.05.09.05.13-.06.18l-1.18.63c-.08.05-.13.06-.18,0-.38-.7-.78-1.39-1.17-2.09,0-.09-.08-.09-.17-.05l-2.63,1.4c-.1.05-.14.05-.18-.07-.17-.51-.36-1-.55-1.54,0-.1,0-.15.08-.2a10.1,10.1,0,0,0,.92-.49.54.54,0,0,0,.27-.74.21.21,0,0,0,0-.06L214.2,47a.81.81,0,0,0-1.06-.36h0a8.55,8.55,0,0,0-1.08.57c-.11,0-.14,0-.19-.06-.22-.41-.46-.83-.7-1.25-.06-.1,0-.13.07-.18l2.6-1.38c.11-.06.14-.1.07-.22-.39-.67-.76-1.35-1.15-2,0-.1,0-.14.06-.19.39-.2.78-.4,1.16-.61.12-.07.17,0,.23.07.35.65.72,1.29,1.08,1.94.07.13.12.13.24.06.27-.16.55-.32.84-.46.1-.06.12-.1.06-.21-.37-.64-.73-1.3-1.1-1.94-.06-.11-.05-.16.06-.22.39-.2.78-.4,1.16-.62.11-.05.15,0,.2.07l1.13,2c.06.09.1.12.21.08a6.88,6.88,0,0,1,2-.58A2.78,2.78,0,0,1,222,42a2.89,2.89,0,0,1,1.19,2.77,3,3,0,0,1-.36.81S222.84,45.61,222.86,45.65Z"/><path class="t" d="M222.83,50.8A10.35,10.35,0,0,1,220.94,52c-.15.08-.31.15-.46.24s-.13,0-.18,0c-.44-.81-.89-1.61-1.35-2.41-.08-.15-.16-.3-.25-.45s0-.09,0-.12A10.62,10.62,0,0,1,221.57,48a2.39,2.39,0,0,1,1,0,1.42,1.42,0,0,1,1.11,1.68,1.82,1.82,0,0,1-.11.3,2.28,2.28,0,0,1-.24.39A4.16,4.16,0,0,1,222.83,50.8Z"/><path class="t" d="M219.91,46.61a8.87,8.87,0,0,1-1.82,1.15c-.21.11-.21.11-.32-.09l-1.38-2.45s-.09-.09,0-.15a10.18,10.18,0,0,1,1.91-.92,2.55,2.55,0,0,1,1.06-.14,1.37,1.37,0,0,1,1.21,1.51,1.47,1.47,0,0,1-.23.6A4.06,4.06,0,0,1,219.91,46.61Z"/></g><g class="w"><path class="x" d="M192.57,42.63c-1.85-1.81-3.36-3.91-5.09-5.82a.77.77,0,0,1-.14-.73c.34-2.41.69-4.83,1-7.36l2.74,2.17c1.09,3,1.9,6.12,2.75,9.21C194.32,41.68,194.12,42,192.57,42.63Z"/><path class="y" d="M192,43l-6,2.38,1.14-8.07Z"/><path class="z" d="M202,39.07l-6,2.37-.62-7.37Z"/><path class="aa" d="M192.57,42.63c1.58-1.32,1.54-1.31.65-3.8S192,33.93,191,31.61a.65.65,0,0,1,.17-.73A19.22,19.22,0,0,0,193,32.22a3.5,3.5,0,0,1,2,3.4c0,2,.21,4,.33,6a7.74,7.74,0,0,1-2.72,1.07Z"/><path class="ab" d="M187.09,45.58l4.57-1.81c.41-.16.76-.31,1.11.12.85,1,1.72,2.06,2.7,3.23l-8.38-1.32Z"/><path class="ac" d="M201.54,40.08l-5.08,6.64c-.13-1.5-.24-2.82-.37-4.15-.05-.47.2-.64.6-.79,1.57-.6,3.13-1.23,4.69-1.84Z"/><path class="ad" d="M185.48,43.21l-1.62-9.75c.94,1.1,1.73,2,2.53,2.94a.72.72,0,0,1,.21.61q-.45,3.1-.89,6.23Z"/><path class="ae" d="M200.57,37.25c-1.62-1.22-3.23-2.46-4.86-3.67a1,1,0,0,1-.42-.85c-.06-1.15-.18-2.29-.31-3.71l5.78,8.07Z"/><path class="af" d="M194.28,42.74c1.23-.49,1.23-.49,1.36.78.08.77.15,1.54.24,2.31,0,.2,0,.39-.18.47s-.34-.06-.46-.21l-1.41-1.74C192.93,43.27,192.93,43.27,194.28,42.74Z"/><path class="x" d="M185.73,24h0q-1,4-1.94,7.92a.77.77,0,0,0,.15.73L186.79,36l1-7.64c-.59-1.47-1.17-2.94-1.77-4.4C185.89,23.61,185.73,23.56,185.73,24Z"/><path class="x" d="M193.94,27.89c-2.36-1.44-4.71-2.91-7.06-4.36-.1,0-.13-.31-.29-.07a.21.21,0,0,0,0,.11L188.51,28l6.2,4.79c-.13-1.58-.24-2.84-.33-4.09A.92.92,0,0,0,193.94,27.89Z"/><path class="x" d="M192.58,42.64l2.72-1.07A4.75,4.75,0,0,1,192.58,42.64Z"/></g><g class="ag"><path class="t" d="M55.19,54.78A10.4,10.4,0,0,1,52.35,40.1a11,11,0,0,1,15-2.76A10.39,10.39,0,0,1,70.25,52,11,11,0,0,1,55.19,54.78Z"/><path class="v" d="M62.27,45.67l1.7.52-.2.15-.74.59a.15.15,0,0,1-.16,0l-1.54-.49a.14.14,0,0,0-.16,0l-2.92,2.32c-.08.07-.08.07,0,.13q2.43,1.59,4.84,3.2a.37.37,0,0,1,.16.17.28.28,0,0,1-.1.36c-.44.37-.89.73-1.34,1.09a.91.91,0,0,1-.16.11.38.38,0,0,1-.4,0l-.08,0-7.45-4.94c-.1-.07-.1-.07,0-.14l4-3.22.06,0s0,0,0-.07l-.54-.16-1-.31s-.06,0-.07,0,0,0,.06-.06l.85-.67a.16.16,0,0,1,.15,0c.51.17,1,.32,1.55.48a.15.15,0,0,0,.16,0l5.86-4.67a.43.43,0,0,1,.57,0l1.84,1.22a.3.3,0,0,1,0,.54l-4.89,3.91S62.28,45.62,62.27,45.67Z"/></g></g></svg>