<svg xmlns="http://www.w3.org/2000/svg" viewBox="0 0 335 200"><defs><style>.a{fill:#007db2;}.a,.b{fill-rule:evenodd;}.b{fill:#005480;}</style></defs><title>信用卡支付</title><path class="a" d="M243.79,104.05c-.78,3.72-3.74,5.34-7.33,5.5-3.12.16-5.93-2.59-3.9-5.83,1.56-2.74,5.92-3.39,8.58-3.39h3.43c-.32,1.29-.47,2.43-.78,3.72Zm-.94-28.47c-6.71,0-12,1.78-16.06,2.58l-1.25,10.2a43.94,43.94,0,0,1,13.72-2.92c5.31-.16,8.42,1,7.33,5.5-15.75,0-26.35,3.24-28.54,13.43-3.12,17.48,16.07,17,23.71,9.39l-.94,4.2h14l6.08-27.82c2.5-11.82-8.27-14.73-18.09-14.56Z"/><polygon class="a" points="272.95 64.57 261.33 117.96 275.6 117.96 287.35 64.57 272.95 64.57 272.95 64.57"/><path class="a" d="M207,82.86a9.76,9.76,0,0,1-8.92,7.28h-7l3.13-14.56h7.5c3.91,0,6.25,3.23,5.32,7.28Zm.46-18.12h-26.1L169.77,118h15.16l3.91-17.63h10.79c10.63,0,19.38-6.47,21.73-17.47C224,70.4,215,64.74,207.44,64.74Z"/><path class="b" d="M107.23,104.05c-.77,3.72-3.86,5.34-7.4,5.5-3.08.16-5.7-2.59-3.7-5.83,1.54-2.74,5.86-3.39,8.32-3.39H108a30.73,30.73,0,0,0-.77,3.72Zm-1.08-28.47c-6.63,0-11.87,1.78-15.72,2.58L89.2,88.36a40.83,40.83,0,0,1,13.4-2.92c5.24-.16,8.32,1,7.4,5.5-15.56,0-26,3.24-28.19,13.43-3.09,17.48,15.86,17,23.26,9.39l-.93,4.2h14l6-27.82c2.47-11.82-8.32-14.73-18-14.56Z"/><polygon class="b" points="130.28 76.34 144.3 76.34 146.56 101.13 160.28 76.34 174.74 76.34 141.44 135.66 125.76 135.66 136.01 118.22 130.28 76.34 130.28 76.34"/><path class="b" d="M70.81,82.86A9.59,9.59,0,0,1,62,90.14h-7.2l3.29-14.56h7.52c3.76,0,6.27,3.23,5.17,7.28Zm.47-18.12H45.11L33.51,118H48.87l3.76-17.63h11c10.5,0,19.28-6.47,21.63-17.47,2.66-12.46-6.27-18.12-14-18.12Z"/><polygon class="b" points="290.43 71.47 290.43 65.18 288.08 65.18 288.08 64.34 293.74 64.34 293.74 65.18 291.38 65.18 291.38 71.47 290.43 71.47 290.43 71.47"/><path class="b" d="M294.67,71.47V64.34h1.42l1.69,5c.16.47.27.82.34,1,.08-.26.21-.64.38-1.14l1.72-5h1.27v7.13h-.91v-6l-2.08,6h-.86l-2.06-6.07v6.07Z"/></svg>