<svg xmlns="http://www.w3.org/2000/svg" xmlns:xlink="http://www.w3.org/1999/xlink" viewBox="0 0 22 22"><defs><style>.cls-1,.cls-5{fill:none;}.cls-2{isolation:isolate;}.cls-3{clip-path:url(#clip-path);}.cls-4{opacity:0.16;mix-blend-mode:soft-light;}.cls-5{stroke:#fff;stroke-miterlimit:10;stroke-dasharray:5;}.cls-6{fill:#568bc7;}</style><clipPath id="clip-path"><rect class="cls-1" x="-556.69" y="-605.38" width="375.72" height="672.05"/></clipPath></defs><title>新二元</title><g class="cls-2"><g id="圖層_3" data-name="圖層 3"><g class="cls-3"><g class="cls-4"><line class="cls-5" x1="26.39" y1="-519.88" x2="-748.74" y2="261.11"/><line class="cls-5" x1="229.27" y1="-315.47" x2="-596.55" y2="516.59"/><line class="cls-5" x1="183.51" y1="-370.73" x2="-630.25" y2="449.19"/><line class="cls-5" x1="124.06" y1="-412.18" x2="-678.53" y2="396.48"/><line class="cls-5" x1="279.57" y1="-264.79" x2="-495.57" y2="516.2"/><line class="cls-5" x1="78.37" y1="-467.51" x2="-696.76" y2="313.49"/><line class="cls-5" x1="19.85" y1="3.79" x2="-644.86" y2="-665.95"/></g></g></g><g id="圖層_5" data-name="圖層 5"><path class="cls-6" d="M19.9,22H2.1A2.1,2.1,0,0,1,0,19.9V2.1A2.1,2.1,0,0,1,2.1,0H19.9A2.1,2.1,0,0,1,22,2.1V19.9A2.1,2.1,0,0,1,19.9,22ZM2.1,1.4a.71.71,0,0,0-.7.7V19.9a.71.71,0,0,0,.7.7H19.9a.71.71,0,0,0,.7-.7V2.1a.71.71,0,0,0-.7-.7Z"/><circle class="cls-6" cx="10.8" cy="8.88" r="4.8"/><path class="cls-6" d="M4.47,18.58c0-2.65,2.92-4.8,6.53-4.8s6.53,2.15,6.53,4.8"/></g></g></svg>