<svg xmlns="http://www.w3.org/2000/svg" xmlns:xlink="http://www.w3.org/1999/xlink" viewBox="0 0 23 23"><defs><style>.cls-1,.cls-5{fill:none;}.cls-2{isolation:isolate;}.cls-3{clip-path:url(#clip-path);}.cls-4{opacity:0.16;mix-blend-mode:soft-light;}.cls-5{stroke:#fff;stroke-miterlimit:10;stroke-dasharray:5;}.cls-6{fill:#568bc7;}</style><clipPath id="clip-path"><rect class="cls-1" x="-550.2" y="-451.16" width="375.72" height="672.05"/></clipPath></defs><title>新二元</title><g class="cls-2"><g id="圖層_3" data-name="圖層 3"><g class="cls-3"><g class="cls-4"><line class="cls-5" x1="32.88" y1="-365.67" x2="-742.26" y2="415.33"/><line class="cls-5" x1="235.75" y1="-161.26" x2="-590.06" y2="670.81"/><line class="cls-5" x1="190" y1="-216.51" x2="-623.77" y2="603.41"/><line class="cls-5" x1="130.54" y1="-257.96" x2="-672.05" y2="550.7"/><line class="cls-5" x1="286.05" y1="-110.58" x2="-489.08" y2="670.42"/><line class="cls-5" x1="84.86" y1="-313.29" x2="-690.27" y2="467.71"/><line class="cls-5" x1="126.94" y1="56.65" x2="-518.67" y2="-593.84"/><line class="cls-5" x1="177.23" y1="5.97" x2="-460.02" y2="-636.1"/><line class="cls-5" x1="119.7" y1="150.92" x2="-604.41" y2="-578.66"/><line class="cls-5" x1="26.34" y1="158.01" x2="-638.37" y2="-511.73"/></g></g></g><g id="圖層_4" data-name="圖層 4"><path class="cls-6" d="M17.87.71H5.13a.45.45,0,0,0-.41.47V21.82a.45.45,0,0,0,.41.47H17.87a.44.44,0,0,0,.41-.47V1.18A.44.44,0,0,0,17.87.71ZM12.45,21.39h-1.9a1,1,0,0,1,0-2.09h1.9a1,1,0,0,1,0,2.09ZM17,18H6V2.35H17Z"/></g></g></svg>