<svg xmlns="http://www.w3.org/2000/svg" xmlns:xlink="http://www.w3.org/1999/xlink" viewBox="0 0 23 23"><defs><style>.cls-1,.cls-5{fill:none;}.cls-2{isolation:isolate;}.cls-3{clip-path:url(#clip-path);}.cls-4{opacity:0.16;mix-blend-mode:soft-light;}.cls-5{stroke:#fff;stroke-miterlimit:10;stroke-dasharray:5;}.cls-6{fill:#568bc7;}</style><clipPath id="clip-path"><rect class="cls-1" x="-550.2" y="-487.41" width="375.72" height="672.05"/></clipPath></defs><title>新二元</title><g class="cls-2"><g id="圖層_3" data-name="圖層 3"><g class="cls-3"><g class="cls-4"><line class="cls-5" x1="32.88" y1="-401.91" x2="-742.26" y2="379.08"/><line class="cls-5" x1="235.75" y1="-197.5" x2="-590.06" y2="634.56"/><line class="cls-5" x1="190" y1="-252.76" x2="-623.77" y2="567.16"/><line class="cls-5" x1="130.54" y1="-294.21" x2="-672.05" y2="514.45"/><line class="cls-5" x1="286.05" y1="-146.82" x2="-489.08" y2="634.17"/><line class="cls-5" x1="84.86" y1="-349.54" x2="-690.27" y2="431.46"/><line class="cls-5" x1="126.94" y1="20.41" x2="-518.67" y2="-630.09"/><line class="cls-5" x1="119.7" y1="114.67" x2="-604.41" y2="-614.91"/><line class="cls-5" x1="26.34" y1="121.76" x2="-638.37" y2="-547.98"/></g></g></g><g id="圖層_4" data-name="圖層 4"><path class="cls-6" d="M17.93,7.94h-.6V6.39A4.14,4.14,0,0,0,13.2,2.26H9.8A4.14,4.14,0,0,0,5.67,6.39V7.94h-.6a1,1,0,0,0-1,1V19.8a1,1,0,0,0,1,.94H17.93a1,1,0,0,0,.95-.94V8.89A1,1,0,0,0,17.93,7.94Zm-5.36,9.73H10.24L10.9,14a1.27,1.27,0,0,1-.75-1.15,1.26,1.26,0,0,1,2.51,0A1.27,1.27,0,0,1,11.91,14Zm2.87-9.73H7.56V6.39A2.24,2.24,0,0,1,9.8,4.15h3.4a2.24,2.24,0,0,1,2.24,2.24Z"/></g></g></svg>