<svg xmlns="http://www.w3.org/2000/svg" viewBox="0 0 40 40"><defs><style>.a{fill:#fff;}.b{fill:none;}</style></defs><title>新二元手机版</title><path class="a" d="M10.08,8.54A1.09,1.09,0,0,0,9,7.44H6.21V4.67A1.09,1.09,0,0,0,4,4.67V7.44H1.25a1.1,1.1,0,0,0,0,2.19H4V12.4a1.09,1.09,0,1,0,2.18,0V9.63H9A1.09,1.09,0,0,0,10.08,8.54Z"/><path class="b" d="M5.31,26.65l2.33,8.41a.34.34,0,0,0,.33.25h.09l23-6.37a.31.31,0,0,0,.2-.16.36.36,0,0,0,0-.26l-.89-3.22L28.92,20.1Zm6.68,6-2.68.74a.74.74,0,0,1-.92-.52l-.74-2.68a.75.75,0,0,1,.52-.92l2.68-.74a.75.75,0,0,1,.92.52l.74,2.68A.75.75,0,0,1,12,32.69Z"/><path class="b" d="M27.44,14.77l-.19-.68a.36.36,0,0,0-.33-.25h-.09l-1.61.45-15,4.16L3.87,20.22a.35.35,0,0,0-.23.42l.78,2.82L28,16.91Z"/><path class="b" d="M31.92,21.91l2.68.56a.75.75,0,0,0,.89-.57l.56-2.69a.74.74,0,0,0-.57-.88l-2.69-.57a.75.75,0,0,0-.88.58l-.46,2.15.39,1.38Z"/><path class="a" d="M38.4,8.12,15.31,3.23a1.84,1.84,0,0,0-2.16,1.4l-.43,2.82,26.64,5.64.44-2.82A1.82,1.82,0,0,0,38.4,8.12Z"/><polygon class="a" points="11.71 11.44 10.77 15.88 20.38 13.28 11.71 11.44"/><path class="a" d="M31.45,20.49l.46-2.15a.75.75,0,0,1,.88-.58l2.69.57a.74.74,0,0,1,.57.88l-.56,2.69a.75.75,0,0,1-.89.57l-2.68-.56-.08,0,1.11,4,1.63.34a1.81,1.81,0,0,0,2.15-1.4l1.63-7.7L30,15.31Z"/><path class="a" d="M27.07,12.36,9.37,17.15h0l-5.9,1.64A1.83,1.83,0,0,0,2.2,21l4,14.42a1.84,1.84,0,0,0,2.26,1.28l23-6.37a1.84,1.84,0,0,0,1.28-2.23L28.57,13.4A1.81,1.81,0,0,0,27.07,12.36ZM3.64,20.64a.35.35,0,0,1,.23-.42l6.36-1.76,15-4.16,1.61-.45h.09a.36.36,0,0,1,.33.25l.19.68L28,16.91,4.42,23.46Zm27.61,7.87a.36.36,0,0,1,0,.26.31.31,0,0,1-.2.16l-23,6.37H8a.34.34,0,0,1-.33-.25L5.31,26.65,28.92,20.1l1.44,5.19Z"/><rect class="a" x="7.94" y="28.86" width="4.28" height="4.28" rx="0.75" transform="translate(-7.92 3.83) rotate(-15.51)"/></svg>