<svg xmlns="http://www.w3.org/2000/svg" viewBox="0 0 40 40"><defs><style>.a{fill:#122e8a;}</style></defs><title>新二元手机版</title><path class="a" d="M21.31,5.78V5.37a.4.4,0,0,0-.79,0v.41a2.13,2.13,0,0,0-1.14.64,1.18,1.18,0,0,0-.3,1,1.39,1.39,0,0,0,.55.92l.89.64v2a1.07,1.07,0,0,1-.79-1,.37.37,0,0,0-.4-.36.37.37,0,0,0-.39.36h0a1.94,1.94,0,0,0,1.63,1.83v.37a.37.37,0,0,0,.39.37.38.38,0,0,0,.4-.37v-.32a2.1,2.1,0,0,0,1.13-.64,1.18,1.18,0,0,0,.3-1,1.42,1.42,0,0,0-.54-.92l-.89-.64v-2a1.09,1.09,0,0,1,.79,1,.37.37,0,0,0,.39.36.41.41,0,0,0,.4-.36A2,2,0,0,0,21.31,5.78Zm.39,4a.53.53,0,0,1,.25.41.67.67,0,0,1-.15.41,1,1,0,0,1-.54.32V9.49ZM20.07,7.7a.51.51,0,0,1-.24-.41A.7.7,0,0,1,20,6.88a1.08,1.08,0,0,1,.55-.32V8Z"/><path class="a" d="M24.3,17.25H16.38a.73.73,0,0,1-.75-.7.72.72,0,0,1,.75-.69H24.3a.72.72,0,0,1,.75.69A.73.73,0,0,1,24.3,17.25Z"/><path class="a" d="M18.53,19.91h-7a.72.72,0,0,1-.75-.69.73.73,0,0,1,.75-.7h7a.73.73,0,0,1,.75.7A.72.72,0,0,1,18.53,19.91Z"/><path class="a" d="M30.85,19.91H21.34a.73.73,0,0,1-.75-.69.73.73,0,0,1,.75-.7h9.51a.73.73,0,0,1,.75.7A.73.73,0,0,1,30.85,19.91Z"/><path class="a" d="M15.47,25.2h-4a.7.7,0,1,1,0-1.39h4a.7.7,0,1,1,0,1.39Z"/><path class="a" d="M30.85,25.2H18.12a.7.7,0,1,1,0-1.39H30.85a.7.7,0,1,1,0,1.39Z"/><path class="a" d="M22.51,22.58h-11a.7.7,0,1,1,0-1.39h11a.7.7,0,1,1,0,1.39Z"/><path class="a" d="M30.85,22.58H25.09a.7.7,0,1,1,0-1.39h5.76a.7.7,0,1,1,0,1.39Z"/><path class="a" d="M25.65,28.07H11.51a.7.7,0,1,1,0-1.39H25.65a.7.7,0,1,1,0,1.39Z"/><path class="a" d="M30.85,28.07H28a.7.7,0,1,1,0-1.39h2.88a.7.7,0,1,1,0,1.39Z"/><path class="a" d="M35.72,32.57H13.21v3.14a1.93,1.93,0,0,1-2,1.89,1.93,1.93,0,0,1-2-1.89V4.29A3.23,3.23,0,0,0,8.46,2.4h22.4a1.93,1.93,0,0,1,2,1.89V31.13a.68.68,0,0,0,1.36,0V4.29a3.26,3.26,0,0,0-3.4-3.15H5.74A3.25,3.25,0,0,0,2.35,4.29v5H7.78v26.4a3.25,3.25,0,0,0,3.39,3.15H34.26a3.25,3.25,0,0,0,3.39-3.15V32.57ZM7.78,8.06H3.71V4.29a1.93,1.93,0,0,1,2-1.89,1.93,1.93,0,0,1,2,1.89ZM36.29,35.71a1.93,1.93,0,0,1-2,1.89H13.89a2.82,2.82,0,0,0,.68-1.89V33.83H36.29Z"/></svg>