<svg xmlns="http://www.w3.org/2000/svg" xmlns:xlink="http://www.w3.org/1999/xlink" viewBox="0 0 23 23"><defs><style>.cls-1,.cls-5,.cls-6,.cls-7{fill:none;}.cls-2{isolation:isolate;}.cls-3{clip-path:url(#clip-path);}.cls-4{opacity:0.16;mix-blend-mode:soft-light;}.cls-5{stroke:#fff;stroke-miterlimit:10;stroke-dasharray:5;}.cls-6,.cls-7{stroke:#568bc7;stroke-linejoin:round;stroke-width:1.3px;}.cls-7{stroke-linecap:round;}</style><clipPath id="clip-path"><rect class="cls-1" x="-549.89" y="-521.35" width="375.72" height="672.05"/></clipPath></defs><title>新二元</title><g class="cls-2"><g id="圖層_3" data-name="圖層 3"><g class="cls-3"><g class="cls-4"><line class="cls-5" x1="33.19" y1="-435.85" x2="-741.94" y2="345.14"/><line class="cls-5" x1="236.07" y1="-231.44" x2="-589.75" y2="600.62"/><line class="cls-5" x1="190.31" y1="-286.7" x2="-623.45" y2="533.22"/><line class="cls-5" x1="130.86" y1="-328.15" x2="-671.73" y2="480.51"/><line class="cls-5" x1="286.37" y1="-180.76" x2="-488.77" y2="600.24"/><line class="cls-5" x1="85.17" y1="-383.48" x2="-689.96" y2="397.52"/><line class="cls-5" x1="120.01" y1="80.73" x2="-604.1" y2="-648.85"/><line class="cls-5" x1="26.65" y1="87.83" x2="-638.06" y2="-581.92"/></g></g></g><g id="圖層_4" data-name="圖層 4"><polyline class="cls-6" points="16 19.86 4.96 19.86 4.96 1.1 19.19 1.1 19.19 12.93"/><polygon class="cls-7" points="21.03 20.49 15.12 10.13 12.02 7.58 12.85 11.44 18.58 21.9 21.03 20.49"/><line class="cls-7" x1="15.12" y1="10.13" x2="12.85" y2="11.44"/><line class="cls-7" x1="19.71" y1="18.17" x2="17.34" y2="19.64"/><line class="cls-6" x1="6.64" y1="9.3" x2="11.12" y2="9.3"/><line class="cls-6" x1="6.64" y1="6.81" x2="11.12" y2="6.81"/><line class="cls-6" x1="6.64" y1="11.99" x2="11.12" y2="11.99"/><line class="cls-6" x1="6.64" y1="15" x2="12.95" y2="15"/><line class="cls-6" x1="6.64" y1="4.32" x2="17.11" y2="4.32"/><path class="cls-6" d="M3.35,6.43a1.38,1.38,0,0,1,0-2.76"/><path class="cls-6" d="M3.35,11.51a1.38,1.38,0,1,1,0-2.75"/><path class="cls-6" d="M3.35,16.6a1.38,1.38,0,1,1,0-2.76"/></g></g></svg>