<svg xmlns="http://www.w3.org/2000/svg" viewBox="0 0 40 40"><defs><style>.a{fill:#122e8a;}</style></defs><title>新二元手机版</title><path class="a" d="M12.19,38.51a2.32,2.32,0,0,1,0-4.63.58.58,0,1,1,0,1.16,1.16,1.16,0,0,0,0,2.31.58.58,0,1,1,0,1.16Z"/><path class="a" d="M33.59,35H12.19a.58.58,0,0,1,0-1.16h21.4a.58.58,0,0,1,0,1.16Z"/><path class="a" d="M33.59,38.51H12.19a.58.58,0,0,1,0-1.16h21.4a.58.58,0,0,1,0,1.16Z"/><path class="a" d="M33.59,35a.58.58,0,1,1,0-1.16,1.16,1.16,0,0,0,1.16-1.16.58.58,0,0,1,1.16,0A2.32,2.32,0,0,1,33.59,35Z"/><path class="a" d="M35.33,4.38a.58.58,0,0,1-.58-.57,1.16,1.16,0,0,0-1.16-1.16.58.58,0,0,1,0-1.16,2.32,2.32,0,0,1,2.32,2.32A.58.58,0,0,1,35.33,4.38Z"/><path class="a" d="M10.46,4.38a.58.58,0,0,1-.58-.57,2.32,2.32,0,0,1,2.31-2.32.58.58,0,1,1,0,1.16A1.15,1.15,0,0,0,11,3.81.58.58,0,0,1,10.46,4.38Z"/><path class="a" d="M33.59,38.51a.58.58,0,1,1,0-1.16,1.16,1.16,0,0,0,1.16-1.16.58.58,0,0,1,1.16,0A2.32,2.32,0,0,1,33.59,38.51Z"/><path class="a" d="M35.33,15.37a.54.54,0,0,1-.41-.17.56.56,0,0,1,0-.81l2.14-2.15V5.54H35.33a.58.58,0,1,1,0-1.16h2.31a.58.58,0,0,1,.58.58v7.52a.58.58,0,0,1-.17.41L35.74,15.2A.56.56,0,0,1,35.33,15.37Z"/><path class="a" d="M33.59,2.65H12.19a.58.58,0,0,1,0-1.16h21.4a.58.58,0,0,1,0,1.16Z"/><path class="a" d="M10.46,36.77a.58.58,0,0,1-.58-.58V3.81a.58.58,0,0,1,1.16,0V36.19A.58.58,0,0,1,10.46,36.77Z"/><path class="a" d="M33,36.77H12.77a.58.58,0,0,1-.58-.58.57.57,0,0,1,.58-.57H33a.57.57,0,0,1,.58.57A.58.58,0,0,1,33,36.77Z"/><path class="a" d="M33,36.77a.57.57,0,0,1-.57-.58V34.46a.57.57,0,0,1,.57-.58.58.58,0,0,1,.58.58v1.73A.58.58,0,0,1,33,36.77Z"/><path class="a" d="M12.77,36.77a.58.58,0,0,1-.58-.58V34.46a.58.58,0,0,1,1.16,0v1.73A.58.58,0,0,1,12.77,36.77Z"/><path class="a" d="M35.33,36.77a.58.58,0,0,1-.58-.58V3.81a.58.58,0,1,1,1.16,0V36.19A.58.58,0,0,1,35.33,36.77Z"/><path class="a" d="M8.76,5.54H2.25A.53.53,0,0,1,1.78,5a.53.53,0,0,1,.47-.58H8.76A.53.53,0,0,1,9.22,5,.53.53,0,0,1,8.76,5.54Z"/><path class="a" d="M8.62,34.46H5.07c-.22,0-.4-.26-.4-.58s.18-.58.4-.58H8.62c.21,0,.39.26.39.58S8.83,34.46,8.62,34.46Z"/><path class="a" d="M2.36,31.57A.58.58,0,0,1,1.78,31V5A.58.58,0,0,1,2.94,5V31A.58.58,0,0,1,2.36,31.57Z"/><path class="a" d="M5.25,34.46a.58.58,0,0,1-.41-.17L2,31.4a.58.58,0,0,1,.82-.82l2.89,2.89a.57.57,0,0,1,0,.82A.58.58,0,0,1,5.25,34.46Z"/><path class="a" d="M5.25,34.46a.58.58,0,0,1-.58-.58V31a.58.58,0,0,1,1.16,0v2.89A.58.58,0,0,1,5.25,34.46Z"/><path class="a" d="M5.25,31.57H2.36a.58.58,0,1,1,0-1.16H5.25a.58.58,0,1,1,0,1.16Z"/><path class="a" d="M8.43,13.64h-4a.58.58,0,0,1,0-1.16H8.43a.58.58,0,0,1,0,1.16Z"/><path class="a" d="M8.43,17.11h-4a.58.58,0,1,1,0-1.16H8.43a.58.58,0,0,1,0,1.16Z"/><path class="a" d="M8.43,20.58h-4a.58.58,0,1,1,0-1.16H8.43a.58.58,0,0,1,0,1.16Z"/><path class="a" d="M8.43,24.05h-4a.58.58,0,1,1,0-1.16H8.43a.58.58,0,0,1,0,1.16Z"/><path class="a" d="M28.38,11.33H18a.57.57,0,0,1-.58-.57.58.58,0,0,1,.58-.58H28.38a.58.58,0,0,1,.58.58A.57.57,0,0,1,28.38,11.33Z"/><path class="a" d="M23.18,22.9a.57.57,0,0,1-.58-.57V9a.58.58,0,1,1,1.16,0V22.33A.57.57,0,0,1,23.18,22.9Z"/><path class="a" d="M27.81,22.9H18.55a.57.57,0,0,1-.58-.57.58.58,0,0,1,.58-.58h9.26a.57.57,0,0,1,.57.58A.56.56,0,0,1,27.81,22.9Z"/><path class="a" d="M30.12,27H16.24a.58.58,0,1,1,0-1.16H30.12a.58.58,0,1,1,0,1.16Z"/><path class="a" d="M26.65,28.69H19.71a.58.58,0,1,1,0-1.16h6.94a.58.58,0,0,1,0,1.16Z"/><path class="a" d="M18,18.28A2.32,2.32,0,0,1,15.66,16a.58.58,0,1,1,1.16,0,1.16,1.16,0,1,0,2.31,0,.58.58,0,1,1,1.16,0A2.32,2.32,0,0,1,18,18.28Z"/><path class="a" d="M19.71,16.54H16.24a.58.58,0,0,1,0-1.16h3.47a.58.58,0,0,1,0,1.16Z"/><path class="a" d="M16.24,16.54l-.19,0a.58.58,0,0,1-.36-.73l1.73-5.21a.59.59,0,0,1,.74-.36.58.58,0,0,1,.36.73l-1.73,5.21A.58.58,0,0,1,16.24,16.54Z"/><path class="a" d="M19.71,16.54a.58.58,0,0,1-.55-.39l-1.74-5.21a.58.58,0,0,1,1.1-.37l1.74,5.21a.58.58,0,0,1-.37.73A.57.57,0,0,1,19.71,16.54Z"/><path class="a" d="M28.38,18.28A2.32,2.32,0,0,1,26.07,16a.58.58,0,0,1,1.16,0,1.16,1.16,0,1,0,2.31,0,.58.58,0,1,1,1.16,0A2.32,2.32,0,0,1,28.38,18.28Z"/><path class="a" d="M30.12,16.54H26.65a.58.58,0,0,1,0-1.16h3.47a.58.58,0,0,1,0,1.16Z"/><path class="a" d="M26.65,16.54l-.19,0a.58.58,0,0,1-.36-.73l1.73-5.21a.59.59,0,0,1,.74-.36.58.58,0,0,1,.36.73L27.2,16.15A.58.58,0,0,1,26.65,16.54Z"/><path class="a" d="M30.12,16.54a.58.58,0,0,1-.55-.39l-1.74-5.21a.58.58,0,0,1,1.1-.37l1.74,5.21a.58.58,0,0,1-.37.73A.57.57,0,0,1,30.12,16.54Z"/></svg>