<svg xmlns="http://www.w3.org/2000/svg" viewBox="0 0 40 40"><defs><style>.a{fill:#122e8a;}</style></defs><title>新二元手机版</title><rect class="a" x="0.92" y="19.73" width="6.58" height="12.63" rx="2.58"/><rect class="a" x="32.5" y="19.73" width="6.58" height="12.63" rx="2.58"/><path class="a" d="M34.71,18.28h2.17a16.88,16.88,0,0,0-33.75,0H5.3a14.71,14.71,0,0,1,29.41,0Z"/><path class="a" d="M32.8,33.88A17.83,17.83,0,0,1,23,37.44a2.58,2.58,0,1,0-2.15,1.15l.25,0,.12,0c4.88,0,9.37-1.41,12.32-3.88a.53.53,0,0,0,.06-.76A.54.54,0,0,0,32.8,33.88Z"/></svg>