<svg xmlns="http://www.w3.org/2000/svg" xmlns:xlink="http://www.w3.org/1999/xlink" viewBox="0 0 22 22"><defs><style>.cls-1,.cls-5{fill:none;}.cls-2{isolation:isolate;}.cls-3{clip-path:url(#clip-path);}.cls-4{opacity:0.16;mix-blend-mode:soft-light;}.cls-5{stroke:#fff;stroke-miterlimit:10;stroke-dasharray:5;}.cls-6{fill:#212020;}</style><clipPath id="clip-path"><rect class="cls-1" x="-712.95" y="-605.38" width="375.72" height="672.05"/></clipPath></defs><title>新二元</title><g class="cls-2"><g id="圖層_3" data-name="圖層 3"><g class="cls-3"><g class="cls-4"><line class="cls-5" x1="73" y1="-315.47" x2="-752.82" y2="516.59"/><line class="cls-5" x1="27.25" y1="-370.73" x2="-786.52" y2="449.19"/><line class="cls-5" x1="123.3" y1="-264.79" x2="-651.83" y2="516.2"/></g></g></g><g id="圖層_4" data-name="圖層 4"><path class="cls-6" d="M21.47,8.36,17.75,4.65a.78.78,0,0,0-1.11,0,.76.76,0,0,0,0,1.11L19,8.16H11.82a.78.78,0,1,0,0,1.55H19l-2.4,2.4a.79.79,0,0,0-.23.55.78.78,0,0,0,.78.77.85.85,0,0,0,.56-.23l3.71-3.72a.75.75,0,0,0,.25-.56A.8.8,0,0,0,21.47,8.36Z"/><path class="cls-6" d="M13.88,11.88a.79.79,0,0,0-.78.78l0,3.35H10.13V5.2a.82.82,0,0,0-.45-.71L4.13,1.86l9,0V5.22a.78.78,0,0,0,.77.77.79.79,0,0,0,.78-.77V1.9A1.61,1.61,0,0,0,13.06.3H1.9A1.61,1.61,0,0,0,.29,1.9V16.27a1.6,1.6,0,0,0,.88,1.44L9,21.59a.74.74,0,0,0,.39.11.8.8,0,0,0,.79-.79V17.56h2.93A1.57,1.57,0,0,0,14.65,16V12.66A.79.79,0,0,0,13.88,11.88ZM8.56,5.7v14l-6.7-3.38V2.53Z"/></g></g></svg>