<svg xmlns="http://www.w3.org/2000/svg" xmlns:xlink="http://www.w3.org/1999/xlink" viewBox="0 0 23 23"><defs><style>.cls-1,.cls-5{fill:none;}.cls-2{isolation:isolate;}.cls-3{clip-path:url(#clip-path);}.cls-4{opacity:0.16;mix-blend-mode:soft-light;}.cls-5{stroke:#fff;stroke-miterlimit:10;stroke-dasharray:5;}.cls-6{fill:#efefef;}</style><clipPath id="clip-path"><rect class="cls-1" x="-550.2" y="-376.01" width="375.72" height="672.05"/></clipPath></defs><title>新二元</title><g class="cls-2"><g id="圖層_3" data-name="圖層 3"><g class="cls-3"><g class="cls-4"><line class="cls-5" x1="32.88" y1="-290.51" x2="-742.26" y2="490.48"/><line class="cls-5" x1="235.75" y1="-86.1" x2="-590.06" y2="745.96"/><line class="cls-5" x1="190" y1="-141.36" x2="-623.77" y2="678.56"/><line class="cls-5" x1="130.54" y1="-182.81" x2="-672.05" y2="625.85"/><line class="cls-5" x1="286.05" y1="-35.42" x2="-489.08" y2="745.57"/><line class="cls-5" x1="84.86" y1="-238.14" x2="-690.27" y2="542.86"/><line class="cls-5" x1="126.94" y1="131.81" x2="-518.67" y2="-518.69"/><line class="cls-5" x1="177.23" y1="81.13" x2="-460.02" y2="-560.94"/><line class="cls-5" x1="119.7" y1="226.07" x2="-604.41" y2="-503.51"/><line class="cls-5" x1="26.34" y1="233.16" x2="-638.37" y2="-436.58"/></g></g></g><g id="圖層_2" data-name="圖層 2"><path class="cls-6" d="M22.11,9.55,19,6.47a.64.64,0,0,0-.93,0L15,9.55a.66.66,0,1,0,.93.93l2-2v6a.65.65,0,0,0,1.29,0v-6l2,2a.66.66,0,0,0,.46.19A.65.65,0,0,0,22.3,10,.72.72,0,0,0,22.11,9.55Z"/><path class="cls-6" d="M14.34,20.14H2.7V2.86H14.34V6.59h2V1.86a1,1,0,0,0-1-1H1.7a1,1,0,0,0-1,1V21.14a1,1,0,0,0,1,1H15.34a1,1,0,0,0,1-1V16.49h-2Z"/><rect class="cls-6" x="3.92" y="10.62" width="7.33" height="2"/><rect class="cls-6" x="3.92" y="13.58" width="9.58" height="2"/><rect class="cls-6" x="3.91" y="16.32" width="4.61" height="2"/><rect class="cls-6" x="3.92" y="4.68" width="9.16" height="3.74" rx="1"/></g></g></svg>