<svg xmlns="http://www.w3.org/2000/svg" viewBox="0 0 40 40"><defs><style>.a{fill:#122e8a;}</style></defs><title>新二元手机版</title><path class="a" d="M13.64,37.81H2.83a.64.64,0,0,1-.64-.64V6.65A.64.64,0,0,1,2.83,6H7.92a.64.64,0,0,0,.63-.64.63.63,0,0,0-.63-.63H2.83A1.91,1.91,0,0,0,.92,6.65V37.17a1.92,1.92,0,0,0,1.91,1.91H13.64a.64.64,0,0,0,.64-.64A.64.64,0,0,0,13.64,37.81Z"/><path class="a" d="M30.81,28.27a.64.64,0,0,0-.64.63v8.27a.64.64,0,0,1-.63.64H20a.64.64,0,0,0-.64.63.64.64,0,0,0,.64.64h9.54a1.92,1.92,0,0,0,1.91-1.91V28.9A.64.64,0,0,0,30.81,28.27Z"/><path class="a" d="M29.54,4.74H24.45a.63.63,0,0,0-.63.63.64.64,0,0,0,.63.64h5.09a.63.63,0,0,1,.63.64V18.73a.64.64,0,0,0,1.28,0V6.65A1.91,1.91,0,0,0,29.54,4.74Z"/><path class="a" d="M14.91,35.26H4.74V8.55H7.92a.63.63,0,0,0,.63-.63.64.64,0,0,0-.63-.64H4.1a.64.64,0,0,0-.63.64v28a.63.63,0,0,0,.63.63H14.91a.64.64,0,0,0,.64-.63A.64.64,0,0,0,14.91,35.26Z"/><path class="a" d="M28.27,30.81a.64.64,0,0,0-.64.64v3.81H23.82a.64.64,0,0,0-.64.64.63.63,0,0,0,.64.63h4.45a.63.63,0,0,0,.63-.63V31.45A.64.64,0,0,0,28.27,30.81Z"/><path class="a" d="M28.27,7.28H24.45a.64.64,0,0,0-.63.64.63.63,0,0,0,.63.63h3.18V21.27a.64.64,0,0,0,.64.64.64.64,0,0,0,.63-.64V7.92A.64.64,0,0,0,28.27,7.28Z"/><path class="a" d="M21.91,3.17H20.64V1.56A.64.64,0,0,0,20,.92H12.37a.64.64,0,0,0-.64.64V3.17H10.46a.64.64,0,0,0-.63.64V9.19a.64.64,0,0,0,.63.64H21.91a.64.64,0,0,0,.63-.64V3.81A.64.64,0,0,0,21.91,3.17Zm-.64,5.38H11.1V4.44h1.27A.63.63,0,0,0,13,3.81V2.19h6.36V3.81a.64.64,0,0,0,.64.63h1.27Z"/><path class="a" d="M18.09,11.1H14.28a.64.64,0,0,0-.64.63v2.55a.64.64,0,0,0,.64.63h3.81a.64.64,0,0,0,.64-.63V11.73A.64.64,0,0,0,18.09,11.1Zm-.63,2.54H14.91V12.37h2.55Z"/><path class="a" d="M14.91,29.54H11.1a.64.64,0,0,0-.64.63v2.55a.64.64,0,0,0,.64.63h3.81a.64.64,0,0,0,.64-.63V30.17A.64.64,0,0,0,14.91,29.54Zm-.63,2.54H11.73V30.81h2.55Z"/><path class="a" d="M18.09,20.64H14.28a.64.64,0,0,0-.64.63v2.55a.64.64,0,0,0,.64.63h3.81a.64.64,0,0,0,.64-.63V21.27A.64.64,0,0,0,18.09,20.64Zm-.63,2.54H14.91V21.91h2.55Z"/><path class="a" d="M24.45,20.64H20.64a.63.63,0,0,0-.64.63v2.55a.63.63,0,0,0,.64.63h3.81a.64.64,0,0,0,.64-.63V21.27A.64.64,0,0,0,24.45,20.64Zm-.63,2.54H21.27V21.91h2.55Z"/><path class="a" d="M11.73,20.64H7.92a.64.64,0,0,0-.64.63v2.55a.64.64,0,0,0,.64.63h3.81a.64.64,0,0,0,.64-.63V21.27A.64.64,0,0,0,11.73,20.64Zm-.63,2.54H8.55V21.91H11.1Z"/><path class="a" d="M22.54,17.46H16.82v-.64a.64.64,0,1,0-1.27,0v.64H9.83a.63.63,0,0,0-.64.63v.64a.64.64,0,0,0,1.27,0h5.09a.64.64,0,0,0,1.27,0h5.09a.63.63,0,0,0,.63.63.64.64,0,0,0,.64-.63v-.64A.64.64,0,0,0,22.54,17.46Z"/><path class="a" d="M22.54,25.72a.64.64,0,0,0-.63.64H13a.63.63,0,0,0-.63.64v.63a.64.64,0,1,0,1.27,0h8.9a.64.64,0,0,0,.64-.63v-.64A.64.64,0,0,0,22.54,25.72Z"/><path class="a" d="M34.44,22.09l-1.91-1.9a.63.63,0,0,0-.9,0L19.55,32.27l0,.06,0,0-3.81,5.72a.63.63,0,0,0,.17.88.65.65,0,0,0,.71,0l5.72-3.81,0,0,.06,0L34.44,23A.63.63,0,0,0,34.44,22.09Zm-16,14.06,1.62-2.43.81.81Zm3.43-2.42-1-1L32.08,21.53l1,1Z"/><path class="a" d="M35.71,20.82,33.8,18.91a.64.64,0,0,0-.9.9l1.91,1.91a.64.64,0,0,0,.45.19.64.64,0,0,0,.64-.64A.64.64,0,0,0,35.71,20.82Z"/><path class="a" d="M38.89,17.64,37,15.73a.65.65,0,0,0-.9,0l-1.9,1.91a.63.63,0,0,0,0,.9l1.9,1.91a.63.63,0,0,0,.9,0l1.91-1.91A.63.63,0,0,0,38.89,17.64ZM36.53,19.1l-1-1,1-1,1,1Z"/></svg>