<svg xmlns="http://www.w3.org/2000/svg" viewBox="0 0 20 20"><defs><style>.a{fill:#271015;}</style></defs><title>新二元手机版</title><path class="a" d="M8.67,10.7a1,1,0,0,0-1-1H6.6a1,1,0,0,0-1,1v7.07a1,1,0,0,0,1,1H7.65a1,1,0,0,0,1-1Z"/><path class="a" d="M4.12,13.17A1.09,1.09,0,0,0,3,12.07H2.12A1.09,1.09,0,0,0,1,13.17v4.52a1.09,1.09,0,0,0,1.09,1.09H3a1.09,1.09,0,0,0,1.09-1.09Z"/><path class="a" d="M13.14,8a1,1,0,0,0-1-1H11.07a1,1,0,0,0-1,1v9.77a1,1,0,0,0,1,1h1.06a1,1,0,0,0,1-1Z"/><path class="a" d="M18.8,4.1l-2-2.54a.82.82,0,0,0-1.33,0l-2,2.54a.61.61,0,0,0-.11.66.72.72,0,0,0,.68.34h.53V17.8a1,1,0,0,0,1,1h1.06a1,1,0,0,0,1-1V5.09h.53a.75.75,0,0,0,.69-.34A.64.64,0,0,0,18.8,4.1Z"/></svg>