<svg xmlns="http://www.w3.org/2000/svg" viewBox="0 0 200 200"><defs><style>.a{fill:#df3232;}.b{fill:#004889;}.c{fill:#00808a;}.d,.e{fill:#fff;}.d{fill-rule:evenodd;}</style></defs><title>信用卡支付</title><path class="a" d="M39.68,38H89.17c6.93,0,11.22,5.66,9.6,12.58l-23,99C74.1,156.4,67.18,162,60.28,162H10.76c-6.9,0-11.2-5.64-9.58-12.55l23.05-99C25.84,43.62,32.75,38,39.68,38Z"/><path class="b" d="M85.07,38H142c6.9,0,3.79,5.66,2.17,12.58l-23,99c-1.62,6.91-1.1,12.55-8,12.55H56.16c-6.93,0-11.22-5.64-9.59-12.55l23-99C71.24,43.62,78.15,38,85.07,38Z"/><path class="c" d="M139.74,38h49.49c6.91,0,11.22,5.66,9.59,12.58l-23,99c-1.61,6.91-8.53,12.55-15.46,12.55H110.83c-6.93,0-11.22-5.64-9.59-12.55l23-99C125.9,43.62,132.81,38,139.74,38Z"/><path class="d" d="M131.46,131.05h4.67l1.35-4.48h-4.66l-1.36,4.48Zm3.73-12.38L133.6,124a22.22,22.22,0,0,1,2.72-1.19c1-.22,2.41-.4,2.41-.4l1.14-3.71Zm2.33-7.64-1.55,5.1a25.44,25.44,0,0,1,2.68-1,15.93,15.93,0,0,1,2.4-.34l1.12-3.72Zm10.32,0-6,20h1.62l-1.26,4.11h-1.61l-.39,1.29h-5.74l.4-1.29H123.15l1.18-3.81h1.18L131.63,111l1.22-4.09h5.86l-.62,2.07a11,11,0,0,1,3-1.51c1.46-.38,10-.53,10-.53L149.84,111Z"/><path class="e" d="M150.42,107h6.26l.06,2.33c0,.39.31.57,1,.57H159l-1.16,3.85H154.5c-2.93.22-4-1-4-2.45l-.12-4.3Z"/><path class="e" d="M151.24,125.21h-6l1-3.43h6.81l1-3.12h-6.74l1.17-3.86h18.71l-1.18,3.86h-6.27l-1,3.12h6.3l-1,3.43h-6.8L156,126.66h2.76l.68,4.31a2.55,2.55,0,0,0,.21.89,3.38,3.38,0,0,0,1.46.23H162l-1.27,4.2h-2.12c-.34,0-.82,0-1.49-.06a4.11,4.11,0,0,1-1.53-.64,2,2,0,0,1-1.1-1.46l-.66-4.3-3.09,4.23a5.28,5.28,0,0,1-4.57,2.37h-4.33l1.13-3.75h1.66a2.79,2.79,0,0,0,1.21-.34,1.87,1.87,0,0,0,.92-.77l4.5-6.36Z"/><path class="e" d="M86,115.84h15.77l-1.16,3.76H94.29l-1,3.21h6.45l-1.18,3.89H92.13l-1.56,5.21c-.19.58,1.52.67,2.15.67l3.22-.45-1.29,4.3H87.38a7,7,0,0,1-1.65-.23,1.71,1.71,0,0,1-1.16-.84,1.67,1.67,0,0,1-.4-1.69l2.09-6.91H82.68l1.19-4h3.6l1-3.21H84.85L86,115.84Z"/><path class="e" d="M96.61,109.07h6.47L101.89,113H93.06l-1,.82c-.39.41-.55.24-1.08.53a6.45,6.45,0,0,1-2.92.75H85.26l1.14-3.78h.86a2.87,2.87,0,0,0,1.46-.23,3.3,3.3,0,0,0,1-1.23l1.62-2.94h6.44l-1.13,2.14Z"/><path class="d" d="M109,115.54a10.16,10.16,0,0,1,4.78-2.12c.68-.14,5-.1,5-.1l.65-2.16h-9.11L109,115.54Zm8.53,1.66h-9L108,119h7.82a7.29,7.29,0,0,1,1.19,0l.58-1.79ZM105.86,107h5.52l-.8,2.77a16.53,16.53,0,0,1,3-1.88,29.12,29.12,0,0,1,4-.87l8.92,0-3,10.11a11.75,11.75,0,0,1-1.47,3.37,4,4,0,0,1-1.51,1.39,5.74,5.74,0,0,1-2.08.7c-.58,0-1.49.07-2.74.07H107l-2.42,8c-.22.8-.34,1.18-.18,1.39a1,1,0,0,0,.82.41L109,132l-1.29,4.39h-4.25c-1.34,0-2.32,0-3-.09a3.36,3.36,0,0,1-1.79-.35c-.41-.35-1-.79-1-1.27a17.37,17.37,0,0,1,.5-2.14L105.86,107Z"/><path class="e" d="M121.93,123.31l-.5,2.43a3.39,3.39,0,0,1-1,1.82,4,4,0,0,1-3,1.05l-3.06.12,0,2.74c0,.8.16.7.29.83a1,1,0,0,0,.4.25l1-.05,2.91-.16-1.18,4h-3.37c-2.35,0-4.09-.05-4.66-.5s-.65-.81-.63-1.57l.22-10.73h5.36l-.08,2.2h1.29a1.73,1.73,0,0,0,.93-.17,1.06,1.06,0,0,0,.35-.56l.53-1.7Z"/><path class="e" d="M56.78,69.58c-.19.87-3.63,16.72-3.65,16.72-.73,3.22-1.26,5.51-3.08,7a5.59,5.59,0,0,1-3.66,1.29c-2.25,0-3.57-1.13-3.8-3.27l0-.72s.68-4.3.69-4.31,3.6-14.46,4.25-16.36a.93.93,0,0,1,.06-.21c-7,.06-8.27,0-8.35-.11,0,.14-.23,1-.23,1L35.29,86.89,35,88.29l-.6,4.51a6.69,6.69,0,0,0,.78,3.35c1.69,2.94,6.47,3.37,9.17,3.37a17.75,17.75,0,0,0,9-2.09c3.83-2.26,4.85-5.82,5.74-9l.42-1.61s3.72-15,4.35-17a.59.59,0,0,1,.06-.21,54.93,54.93,0,0,1-7.07-.11Z"/><path class="e" d="M79.53,69.56l-2.07,0c-5.39.06-7.54,0-8.42-.07-.08.39-.24,1.09-.24,1.09l-1.91,9s-4.61,19-4.83,19.89c4.69,0,6.62,0,7.42,0,.2-.89,1.28-6.2,1.3-6.2s.92-3.89,1-4a2.38,2.38,0,0,1,.59-.57h.43c4,0,8.63,0,12.22-2.63a13.17,13.17,0,0,0,4.85-7.72,12.19,12.19,0,0,0,.33-2.71,5.6,5.6,0,0,0-1-3.43c-1.84-2.56-5.47-2.6-9.68-2.62Zm2.69,9.3a6.52,6.52,0,0,1-3.37,4.46,10.62,10.62,0,0,1-4.76.74H73l.08-.44s2.06-8.93,2-8.9l0-.46,0-.35L76,74l4.33.37c1.67.63,2.36,2.32,1.87,4.49Z"/><path class="e" d="M167.81,111.21a5.46,5.46,0,0,1-4.87,2.46l-3.85-.06,1.13-3.72H161a2.2,2.2,0,0,0,.9-.14,1,1,0,0,0,.5-.43l1.42-2.26h5.83Z"/><path class="d" d="M110.54,80.55c.07,2.25-.89,3.47-1.46,5.08-7-3-14.19,2.24-11.62,8.73,1.5,2.59,6.74,1.17,9.45.72-.53,2.14-.83,4.5-2.18,5.81C76.77,106.16,89.78,71.08,110.54,80.55Z"/><path class="e" d="M130.73,100.77c-3.57,0-4.59,0-7.9.12l-.22-.28c.91-3.5,1.81-7,2.61-10.51a83.74,83.74,0,0,0,1.61-9.21l.26-.23c3.55-.53,4.52-.67,8.21-1.38l.13.33c-.68,2.86-1.36,5.75-2,8.63-1.35,6.05-1.86,9.12-2.38,12.28l-.32.25Z"/><path class="e" d="M125.07,90c-.19.75-.87,3.71-1.82,4.95a4.2,4.2,0,0,1-3,1.43c-.24,0-1.73,0-1.78-2.2a14.86,14.86,0,0,1,.49-3.47c.8-3.47,1.74-6.43,4.17-6.43,1.9,0,2.7,2.14,1.9,5.72Zm7.26.35c1.08-4.68-3.23-.42-3.92-2-1-2.39-.4-7.26-4.63-8.9-1.63-.62-5.44.2-8.72,3.19a14.92,14.92,0,0,0-4,7.85c-.66,2.83-1.42,8,3.3,9.85a10,10,0,0,0,4.23.77c4.74-.28,8.37-7.44,11-10.28,2.06-2.25,2.43.85,2.74-.52Z"/><path class="e" d="M174.55,83.57c-.78-1-2.71-1.51-4.2-1.58a7.84,7.84,0,0,0-3.16.51,13.63,13.63,0,0,0-3.3,1.93l2.75-9.76-4.95-.2L154,101.86l5,.21,2.2-7.87a29,29,0,0,1,1.55-4.64,8.59,8.59,0,0,1,2.52-3,3.78,3.78,0,0,1,2.46-.84,2,2,0,0,1,1.5.66,2.15,2.15,0,0,1,.43,1.63,18.4,18.4,0,0,1-.57,2.47l-5.57,17,6.14-.49L174.72,91a22.66,22.66,0,0,0,.81-3.71A5,5,0,0,0,174.55,83.57Z"/><path class="d" d="M148.09,86a43.55,43.55,0,0,0,5.25,1.13l1.31-5.23c-11.8-5-21.31,4.14-15.66,9.71,2.27,1.83,4.16,1.6,5.81,2.3,1.73,1.84-.31,2.74-5.21,1.87L135,95l-1.31,5.88c9.39,2.44,20.5.92,18-8.57-.89-1.65-4.19-3.07-4.19-3.07-.33-.13-2.95-.49-2.25-2.4C145.74,85.43,148.09,86,148.09,86Z"/></svg>