<svg xmlns="http://www.w3.org/2000/svg" viewBox="0 0 200 200"><defs><style>.a,.c{fill:#004f9d;}.a,.b{fill-rule:evenodd;}.b,.d{fill:#f6ab00;}</style></defs><title>信用卡支付</title><path class="a" d="M67.17,75.78,54.81,109.05l-1.34-6.74A38.84,38.84,0,0,0,36,81.93l11.3,42.58H60.67l19.8-48.73Z"/><polygon class="a" points="77.72 124.57 85.63 75.72 98.22 75.72 90.31 124.57 77.72 124.57 77.72 124.57"/><path class="a" d="M136.06,77a31,31,0,0,0-11.3-2c-12.48,0-21.27,6.62-21.33,16-.06,7.09,6.27,11,11.08,13.3s6.56,3.92,6.5,6.09c0,3.22-3.93,4.74-7.56,4.74a25,25,0,0,1-11.83-2.58l-1.64-.76-1.76,10.9c2.93,1.41,8.38,2.58,14.06,2.64,13.24,0,21.85-6.56,21.91-16.7.06-5.56-3.28-9.78-10.55-13.24-4.39-2.28-7.14-3.75-7.08-6.09,0-2,2.28-4.16,7.2-4.16A21.31,21.31,0,0,1,133.19,87l1.12.53L136.06,77Z"/><path class="a" d="M168.34,75.78h-9.73c-3,0-5.27.88-6.61,4l-18.69,44.75h13.24s2.16-6,2.63-7.38l16.17.06c.35,1.7,1.52,7.32,1.52,7.32h11.72L168.34,75.78Zm-15.52,31.45c1.05-2.81,5-13.65,5-13.65s1-2.81,1.64-4.62l.88,4.21s2.4,11.6,2.93,14.06Z"/><path class="b" d="M43.39,75.78H23.06L23,76.6c15.75,4,26.18,14,30.52,25.71l-4.4-22.43c-.76-3.11-3-4-5.68-4.1Z"/><rect class="c" x="10.59" y="41.01" width="178.83" height="15.67"/><rect class="d" x="10.59" y="143.32" width="178.83" height="15.67"/></svg>