<svg xmlns="http://www.w3.org/2000/svg" viewBox="0 0 335 200"><defs><style>.a{fill:#f08300;}.b{fill:#004098;}.c{fill:#231815;}</style></defs><title>信用卡支付</title><path class="a" d="M44.66,88.72c-4.24,0-7.64,4.67-8.91,7.21s-4.67,32.25-4.67,32.25l9.33.43,5.52-32.25,18.25.42-5.94,31.83H68.85l6.63-39.89Zm9,39.92c-.87-2.17,3.91-27,3.91-27h-8.7S48,116,45,126c-3.92,10-17,10.44-17,10.44l.43,7c8.7.87,19.57-8.26,19.57-8.26,8.7,9.14,17,7.82,17,7.82l.87-7C58.45,134.74,54.54,130.82,53.67,128.64Zm57.62-33.83V89.5h-10.4v5.1H80.08L77,100.87s18.83,0,21.09.37,4.9,1.51,3.39,12.43S86,141.54,86,141.54h15.07c4.9-2.64,8.76-41,8.76-41h5.5V94.81Zm-24.87,9.45s-7.91,21.09-10.17,24.1-3.77,4.9-5.27,6-1.51,7.15-1.51,7.15-1.88,1.13,6.4-.75,20-36.53,20-36.53Z"/><path class="a" d="M143.66,73.75S135,85.81,133.49,87.31,128.22,90,128.22,90l-1.13,7.9h6.78c-.38,1.14-8.66,44.45-8.66,44.45h13.56l8.28-53.86,10.17-14.69Zm69.67,7.54,1.13-7.16H201.28l-1.13,7.53h-41.8c-.76,3-4.9,8.67-4.9,8.67h44.82L194.88,105c12.42,28.62-24.1,42.18-24.1,42.18,18.07,0,28.62-9,32.38-17.7s7.16-39.92,7.16-39.92l4.14-.37L216,81.29Z"/><path class="a" d="M302.59,98.08c4.8-.41,4.39-8,4.39-8H251.83l-3.19,6H289.4c0,2-2.4,4.79-2.4,4.79H274.61v-1.6H260.23l-1.2,2.4s-7.2-1.19-10,2-6,31.17-6,31.17l10.39-.4,2-8h10.79l-.8,8.39H277l.8-9.19h9.59c2,0,2.4-4.8,2.4-4.8l-10.39-.4.4-3.59s6.39,0,9.19-.4,2.4-6,2.4-6h-10l.4-2.79h12c6.39,10-8.4,27.17-8.4,27.17h13.19c.8-1.19,7.19-32.37,7.19-32.37h-3.59C300.59,99.67,302.59,98.08,302.59,98.08Zm-36,22.37c-1.6,0-10.79-.4-10.79-.4s-.79-3.2.8-3.59,11.19.4,11.19.4S268.23,120.45,266.62,120.45Zm2-10.38H258.23s-1.6-2,0-2.4h11.59S271,110.07,268.62,110.07Zm-24.38,28.77c-8.39-.4-8.39-5.2-8.39-5.2l7.19-36H228.26l-.8,6.39h3.6s-4,26.38-4.8,30.77-5.19,3.2-5.19,3.2v6h8c1.2,0,4-3.19,4-3.19,2.79,3.2,11.18,3.59,11.18,3.59h55.95l1.2-5.59S252.64,139.24,244.24,138.84Z"/><path class="b" d="M186.17,102.13c-8-6.65-20.78-4.51-28.46,4.78s-7.4,22.21.64,28.85,20.79,4.52,28.47-4.77S194.22,108.78,186.17,102.13Zm-8.7,22.81H163.2l2-14.27h13.6Z"/><path class="b" d="M229.05,87.69h16.53s-9-62.39-165.36-20.29C80.22,67.4,214.77,38.83,229.05,87.69Z"/><path class="c" d="M33,83.53v-9H29.58V73.31h8.1v1.21H34.3v9Z"/><path class="c" d="M40.24,83.53V73.31h7.39v1.21h-6v3.13h5.65v1.2H41.59v3.48h6.27v1.2Z"/><path class="c" d="M50.86,83.53V73.31h1.39l5.36,8v-8h1.3V83.53H57.52l-5.37-8v8Z"/><path class="c" d="M62.32,83.53V73.31h3.86a9.87,9.87,0,0,1,1.55.1,3.25,3.25,0,0,1,1.26.48,2.53,2.53,0,0,1,.82,1,3.05,3.05,0,0,1,.31,1.39,3.14,3.14,0,0,1-.83,2.2,3.94,3.94,0,0,1-3,.91H63.67v4.15Zm1.35-5.36h2.65a2.78,2.78,0,0,0,1.86-.49,1.75,1.75,0,0,0,.55-1.37,1.84,1.84,0,0,0-.33-1.1,1.52,1.52,0,0,0-.85-.6,5.83,5.83,0,0,0-1.26-.09H63.67Z"/><path class="c" d="M70.8,83.53l3.93-10.22h1.45l4.18,10.22H78.82l-1.19-3.09H73.36l-1.12,3.09Zm3-4.19h3.46l-1.06-2.83c-.33-.86-.57-1.57-.73-2.12a12.94,12.94,0,0,1-.55,2Z"/><path class="c" d="M84.41,83.53V79.2l-3.94-5.89h1.64l2,3.08c.37.58.71,1.16,1,1.73.31-.53.68-1.13,1.12-1.8l2-3h1.57L85.76,79.2v4.33Z"/><path class="c" d="M90.55,83.53V82.1H92v1.43Z"/><path class="c" d="M102.75,80l1.35.34a4.56,4.56,0,0,1-1.53,2.54,4.25,4.25,0,0,1-2.7.88A4.85,4.85,0,0,1,97.18,83a4.18,4.18,0,0,1-1.57-1.94,7,7,0,0,1-.54-2.75,6,6,0,0,1,.61-2.78,4.13,4.13,0,0,1,1.73-1.8,5.1,5.1,0,0,1,2.48-.62,4.21,4.21,0,0,1,2.58.78,4,4,0,0,1,1.45,2.2l-1.33.31a3.08,3.08,0,0,0-1-1.62,2.75,2.75,0,0,0-1.7-.51,3.37,3.37,0,0,0-2,.56,2.94,2.94,0,0,0-1.11,1.52,6.19,6.19,0,0,0-.32,2,6.33,6.33,0,0,0,.38,2.28A2.86,2.86,0,0,0,98,82.07a3.33,3.33,0,0,0,1.74.48,2.89,2.89,0,0,0,1.92-.66A3.32,3.32,0,0,0,102.75,80Z"/><path class="c" d="M106.49,78.56a5.57,5.57,0,0,1,1.37-4,4.65,4.65,0,0,1,3.53-1.44,4.91,4.91,0,0,1,2.55.68,4.43,4.43,0,0,1,1.73,1.88,6.11,6.11,0,0,1,.6,2.75,6,6,0,0,1-.63,2.78,4.3,4.3,0,0,1-1.78,1.85,5.06,5.06,0,0,1-2.48.64,4.89,4.89,0,0,1-2.58-.7,4.51,4.51,0,0,1-1.72-1.9A5.81,5.81,0,0,1,106.49,78.56Zm1.4,0a4.11,4.11,0,0,0,1,2.91,3.48,3.48,0,0,0,5,0,4.38,4.38,0,0,0,1-3,5.27,5.27,0,0,0-.42-2.18,3.22,3.22,0,0,0-1.23-1.44,3.36,3.36,0,0,0-1.83-.51,3.49,3.49,0,0,0-2.47,1A4.42,4.42,0,0,0,107.89,78.58Z"/><path class="c" d="M119.11,83.53V73.31h2l2.42,7.24c.22.67.39,1.18.49,1.51l.54-1.64L127,73.31h1.82V83.53h-1.3V75l-3,8.55h-1.22l-3-8.7v8.7Z"/></svg>