<?xml version="1.0" encoding="utf-8"?>
<!-- Generator: Adobe Illustrator 24.0.3, SVG Export Plug-In . SVG Version: 6.00 Build 0)  -->
<svg version="1.1" id="圖層_1" xmlns="http://www.w3.org/2000/svg" xmlns:xlink="http://www.w3.org/1999/xlink" x="0px" y="0px"
	 viewBox="0 0 200 200" style="enable-background:new 0 0 200 200;" xml:space="preserve">
<style type="text/css">
	.st0{fill:#3DAA4A;}
</style>
<title>信用卡支付</title>
<path class="st0" d="M82.8,83.1c-0.4,0.2-0.9,0.3-1.4,0.3c-1.1,0-2.2-0.6-2.8-1.6l-0.2-0.4l-8.7-18.9c-0.1-0.2-0.1-0.4-0.2-0.7
	c0-0.9,0.7-1.6,1.6-1.6c0.3,0,0.7,0.1,1,0.3l10.2,7.2c0.8,0.5,1.7,0.8,2.6,0.8c0.6,0,1.1-0.1,1.6-0.3l47.9-21.5
	c-8.6-10.1-22.8-16.7-38.8-16.6C69.4,30.2,48.2,48,48.3,69.8c0,11.9,6.5,22.6,16.5,29.8c0.8,0.6,1.3,1.5,1.3,2.6
	c0,0.3-0.1,0.7-0.2,1l-2.1,8c-0.1,0.4-0.2,0.8-0.2,1.2c0,0.9,0.7,1.6,1.6,1.6l0,0c0.3,0,0.6-0.1,0.9-0.3l10.4-6
	c0.8-0.5,1.6-0.7,2.5-0.7c0.5,0,0.9,0.1,1.4,0.2c5,1.4,10.3,2.1,15.5,2.1c26.2-0.1,47.4-17.9,47.3-39.7c0-6.5-1.9-12.8-5.5-18.3
	L83.2,82.9L82.8,83.1z"/>
<rect x="71.6" y="140.7" transform="matrix(1 -3.141556e-03 3.141556e-03 1 -0.4449 0.2647)" width="24.9" height="2.1"/>
<rect x="71.6" y="147.7" transform="matrix(1 -3.141556e-03 3.141556e-03 1 -0.4672 0.2648)" width="24.9" height="2.3"/>
<path d="M72.3,156.2v13.4l23.6-0.1v-13.4L72.3,156.2z M93.7,167.4l-19,0.1v-9.2l19-0.1V167.4z"/>
<path d="M66.2,127.8c-2,7.4-5.2,14.3-9.4,20.7l0,0l1.2,2.2c1.4-2.1,2.9-4.6,4.3-7.2l0.1,26.4h2.3l-0.1-31.1c1.4-3.1,2.7-6.4,3.7-9.7
	L66.2,127.8z"/>
<path d="M84.2,133.5l1.8-1c-0.3-0.8-1.8-3.9-2.3-4.9l-2.1,1.2c0.8,1.4,1.5,2.8,2.1,4.2c0.1,0.2,0.2,0.3,0.2,0.5l-14.7,0.1v2.3
	l29.9-0.1v-2.3H84.2z"/>
<polygon points="28,128.6 30.1,128.6 30.2,139.8 34.6,139.8 34.5,131.9 36.6,131.9 36.7,141.8 21.4,141.9 21.4,131.9 23.5,131.9 
	23.5,139.8 28.1,139.8 "/>
<rect x="22.1" y="146.4" transform="matrix(1 -3.141556e-03 3.141556e-03 1 -0.4631 9.136192e-02)" width="13.5" height="2.1"/>
<path d="M37.6,158.6l-3.5,3v-8.5H22.7v3.3c0.3,4.7-0.8,8-3.5,10l1.2,2.1c3.2-2.7,4.8-6.4,4.5-11.2v-2.1h7v5.1
	c-0.1,1.7-0.2,2.3-0.8,3.1l1.3,2.3c1.2-0.9,3.2-2.7,6.1-5.3L37.6,158.6z"/>
<path d="M18.2,128.2c-1.9,4.1-4.6,7.8-7.8,11l1.3,2.2c3.5-3.5,6.4-7.6,8.5-12.1L18.2,128.2z"/>
<path d="M17.9,139.6c-1.9,5-4.7,9.6-8.1,13.6l1.2,2.1c1.4-1.6,2.7-3.3,4-5l0.1,19.6h2.1l-0.1-23.1c1.1-1.9,2.1-3.9,2.9-6L17.9,139.6
	z"/>
<path d="M53.1,138.3v-2.1h-10c1-2.7,1.7-5.4,2.2-8.2h-2.2c-1.2,6.1-3.3,12-6.5,17.4l1.3,2.3l1-2c0.5-0.8,0.8-1.5,1-1.9
	c0.7,6.2,2,11.1,3.7,14.7c-2,3.3-4.6,6.3-7.5,8.9l1.3,2.2c3.6-3.4,6-6.3,7.3-8.8c1.9,3.2,4.3,6.2,7,8.9l1.2-2.2
	c-2.8-2.5-5.1-5.5-7-8.8c2.5-4.7,4.1-11.4,4.7-20.3L53.1,138.3z M44.9,156c-1.8-5-2.9-10.3-3.4-15.6c0.2-0.7,0.5-1.4,0.9-2.1h6.1
	C48.1,145.8,46.9,151.7,44.9,156z"/>
<path d="M173,158.5c-2.2-4.1-4.6-8.2-7.3-12.1l1.9-0.9c2.6,3.8,5.8,8.9,7.4,11.7L173,158.5z"/>
<path d="M144.7,169.1l0.6-2c-6.5-0.8-12.8-2.9-18.5-6.1c5.7-3.6,10.1-8.9,12.8-15l-1.5-1l-0.5,0.1h-12v-8.3l18.2-0.1v-2.3l-18.2,0.1
	v-7.8h-2.2v7.8h-18.2v2.3l18.2-0.1v8.3H111v2.2c2.6,5.5,6.6,10.2,11.6,13.7c-5.8,3.1-12,5.3-18.5,6.4l0.7,2.1v0.1
	c7-1.3,13.7-3.7,19.9-7.2c6.1,3.6,12.9,6,19.9,6.9L144.7,169.1z M113.7,147.4l22.6-0.1c-2.6,5.1-6.6,9.4-11.5,12.4
	C120,156.7,116.2,152.4,113.7,147.4L113.7,147.4z"/>
<path d="M160.9,127c-2.6,7.2-6.6,13.8-11.9,19.4l0.9,2.4l0.1,0.1c2.1-2.2,3.9-4.5,5.6-7l0.1,27.4h2.2l-0.1-30.9
	c2-3.4,3.8-7.1,5.2-10.8L160.9,127z"/>
<path d="M183.9,137.3v-10.1h-2.2v10.1l-19.4,0.1v2.3l19.4-0.1l0.1,26.2c0,1.1-0.4,1.4-1.4,1.5c-0.9,0-1.8,0.2-4.2,0.3v2
	c3.3,0,4.4,0,5.6-0.4c1.5-0.4,2.2-1.1,2.2-3.4l-0.1-26.2h6.3v-2.3L183.9,137.3z"/>
</svg>
