<svg xmlns="http://www.w3.org/2000/svg" width="58.932" height="80.813" viewBox="0 0 58.932 80.813">
  <path id="iconfinder_rmb_1608815" d="M406.822,208.813h9.873a1.814,1.814,0,0,0,1.291-.517,1.738,1.738,0,0,0,.545-1.32V188.036h16.53a1.815,1.815,0,0,0,1.292-.516,1.739,1.739,0,0,0,.545-1.32v-5.912a1.862,1.862,0,0,0-1.837-1.837h-16.53v-4.879h16.53a1.815,1.815,0,0,0,1.292-.517,1.739,1.739,0,0,0,.545-1.32v-5.969a1.862,1.862,0,0,0-1.837-1.837H422.779L441.2,130.755a1.951,1.951,0,0,0,0-1.837A1.8,1.8,0,0,0,439.6,128H428.461a1.81,1.81,0,0,0-1.664,1.033l-12.34,24.393q-1.09,2.181-3.214,7.174-.574-1.378-1.751-3.9t-1.578-3.5L396.95,129.09a1.664,1.664,0,0,0-1.665-1.09H384.323a1.753,1.753,0,0,0-1.55.918,1.735,1.735,0,0,0-.057,1.779l17.965,33.232h-12.34a1.863,1.863,0,0,0-1.837,1.837v5.969a1.739,1.739,0,0,0,.546,1.32,1.815,1.815,0,0,0,1.292.517h16.645v4.879H388.341a1.863,1.863,0,0,0-1.837,1.837V186.2a1.739,1.739,0,0,0,.546,1.32,1.815,1.815,0,0,0,1.292.516h16.645v18.941a1.862,1.862,0,0,0,1.836,1.837Z" transform="translate(-382.5 -128)" fill="#cfd3e8"/>
</svg>
